<svg width="2437" height="709" xmlns="http://www.w3.org/2000/svg" xmlns:xlink="http://www.w3.org/1999/xlink" overflow="hidden"><defs><clipPath id="clip0"><rect x="932" y="270" width="2437" height="709"/></clipPath></defs><g clip-path="url(#clip0)" transform="translate(-932 -270)"><rect x="1338.5" y="567.5" width="364" height="165" stroke="#000000" stroke-width="3.4375" stroke-miterlimit="8" fill="none"/><path d="M1415.15 622.552 1433.12 622.552 1432.63 624.754C1431.49 624.993 1430.67 625.263 1430.18 625.562 1429.68 625.862 1429.24 626.311 1428.85 626.91 1428.46 627.509 1428.06 628.445 1427.64 629.718 1427.22 630.99 1426.7 633.064 1426.07 635.939L1416.46 679.738 1427.51 679.738C1429.51 679.738 1431.09 679.543 1432.25 679.154 1433.4 678.765 1434.49 678.053 1435.52 677.02 1436.56 675.987 1437.57 674.587 1438.56 672.82 1439.55 671.053 1440.55 668.852 1441.57 666.217L1445.92 666.217 1441.39 683.871 1403.38 683.871 1403.88 681.67C1405.02 681.49 1405.87 681.198 1406.44 680.794 1407.01 680.389 1407.49 679.828 1407.88 679.109 1408.26 678.39 1408.62 677.514 1408.95 676.481 1409.28 675.448 1409.78 673.449 1410.44 670.484L1418.07 635.894C1418.73 632.899 1419.06 630.489 1419.06 628.662 1419.06 627.254 1418.71 626.273 1418.01 625.719 1417.3 625.165 1416.19 624.844 1414.66 624.754Z" fill-rule="evenodd"/><text fill="#000000" fill-opacity="0" font-family="Arial,Arial_MSFontService,sans-serif" font-size="61.3184" x="1403.38" y="676.206">𝐿</text><path d="M1473.66 666.748C1471.76 669.845 1469.88 672.948 1468.02 676.055 1466.15 679.163 1464.27 682.277 1462.37 685.396L1474.97 685.396C1474.86 684 1474.75 682.631 1474.64 681.29 1474.53 679.948 1474.45 678.536 1474.38 677.053 1474.32 675.57 1474.26 673.989 1474.2 672.31 1474.15 670.63 1474.12 668.776 1474.12 666.748ZM1473.53 659.583 1478.93 659.583 1481.9 694.163C1481.99 695.275 1482.13 696.213 1482.31 696.977 1482.5 697.74 1482.76 698.372 1483.08 698.874 1483.41 699.376 1483.82 699.757 1484.31 700.019 1484.8 700.281 1485.42 700.466 1486.16 700.575L1485.67 702.571 1471.4 702.571 1471.89 700.575C1472.5 700.466 1473.04 700.33 1473.51 700.166 1473.98 700.003 1474.37 699.73 1474.67 699.348 1474.98 698.967 1475.21 698.449 1475.38 697.794 1475.54 697.14 1475.62 696.29 1475.62 695.243 1475.62 694.85 1475.61 694.398 1475.59 693.885 1475.57 693.372 1475.54 692.833 1475.51 692.266 1475.48 691.699 1475.43 691.115 1475.38 690.515 1475.32 689.916 1475.27 689.332 1475.23 688.765L1460.57 688.765C1460.07 689.507 1459.58 690.27 1459.09 691.055 1458.6 691.84 1458.15 692.609 1457.74 693.362 1457.34 694.114 1457.02 694.861 1456.78 695.603 1456.54 696.344 1456.42 697.075 1456.42 697.794 1456.42 699.387 1457.59 700.313 1459.92 700.575L1459.5 702.571 1445.2 702.571 1445.56 700.575C1446.15 700.466 1446.68 700.297 1447.15 700.068 1447.61 699.839 1448.1 699.479 1448.62 698.989 1449.13 698.498 1449.69 697.833 1450.29 696.993 1450.89 696.153 1451.61 695.046 1452.46 693.672Z" fill-rule="evenodd"/><text fill="#000000" fill-opacity="0" font-family="Arial,Arial_MSFontService,sans-serif" font-size="42.9873" x="1445.2" y="697.197">𝐴</text><path d="M1537.31 617.342 1543.69 617.342 1543.69 674.527 1555.82 664.824 1558.47 667.654 1542.07 684.545 1538.97 684.545 1522.57 667.834 1525.22 664.824 1537.31 674.527Z" fill-rule="evenodd"/><text fill="#000000" fill-opacity="0" font-family="Arial,Arial_MSFontService,sans-serif" font-size="67.2031" x="1522.57" y="676.144">↓</text><path d="M1613.24 621.834C1618.81 621.834 1623.02 623.054 1625.86 625.495 1628.71 627.936 1630.13 631.477 1630.13 636.119 1630.13 637.706 1629.97 639.166 1629.66 640.499 1629.34 641.831 1628.85 643.149 1628.18 644.452 1627.5 645.755 1626.6 647.155 1625.46 648.652 1624.32 650.149 1623.06 651.669 1621.69 653.212 1620.31 654.754 1617.93 657.322 1614.54 660.916 1608.85 666.935 1604.68 672.191 1602.01 676.683L1618.95 676.683C1620.41 676.683 1621.6 676.594 1622.49 676.414 1623.39 676.234 1624.11 675.935 1624.65 675.515 1625.19 675.096 1625.62 674.55 1625.93 673.876 1626.24 673.202 1626.64 672.161 1627.12 670.754L1630.94 670.754 1630.18 683.871 1593.2 683.871 1593.2 681.715C1594.49 678.57 1596.23 675.351 1598.42 672.056 1600.6 668.762 1603.7 664.884 1607.71 660.422 1611.19 656.588 1613.69 653.683 1615.22 651.707 1616.89 649.551 1618.14 647.686 1618.97 646.114 1619.79 644.542 1620.38 643.059 1620.74 641.667 1621.1 640.274 1621.28 638.874 1621.28 637.467 1621.28 635.22 1620.92 633.236 1620.2 631.514 1619.48 629.792 1618.38 628.437 1616.9 627.449 1615.42 626.461 1613.55 625.967 1611.31 625.967 1605.71 625.967 1601.93 629.081 1599.99 635.31L1594.55 635.31 1594.55 626.685C1598.18 624.978 1601.57 623.743 1604.73 622.979 1607.89 622.216 1610.72 621.834 1613.24 621.834Z" fill-rule="evenodd"/><text fill="#000000" fill-opacity="0" font-family="Arial,Arial_MSFontService,sans-serif" font-size="62.0371" x="1593.2" y="676.116">2</text><path d="M4.13522e-06-1.71875 127.084-1.71844 127.084 1.71906-4.13522e-06 1.71875ZM122.5-13.7497 150 0.000360892 122.5 13.7503Z" transform="matrix(1 0 0 -1 1188.5 402.5)"/><path d="M4.13522e-06-1.71875 127.084-1.71844 127.084 1.71906-4.13522e-06 1.71875ZM122.5-13.7497 150 0.000360892 122.5 13.7503Z" transform="matrix(1 0 0 -1 1188.5 650.5)"/><path d="M1051.5 526.5 1188.5 526.5" stroke="#000000" stroke-width="3.4375" stroke-linejoin="round" stroke-miterlimit="10" fill="none" fill-rule="evenodd"/><path d="M0 0 0.000360892 248" stroke="#000000" stroke-width="3.4375" stroke-linejoin="round" stroke-miterlimit="10" fill="none" fill-rule="evenodd" transform="matrix(1 0 0 -1 1188.5 650.5)"/><path d="M4.16298e-06-1.71875 126.083-1.71844 126.083 1.71906-4.16298e-06 1.71875ZM121.5-13.7497 149 0.000360892 121.5 13.7503Z" transform="matrix(1 0 0 -1 1702.5 402.5)"/><path d="M1833.5 322.893C1834.47 322.893 1835.3 323.024 1835.99 323.285 1836.47 323.475 1836.94 323.79 1837.42 324.229 1837.89 324.669 1838.31 325.281 1838.68 326.065 1839.05 326.849 1839.37 327.729 1839.64 328.703 1839.92 329.677 1840.22 331.079 1840.55 332.909 1841.12 335.974 1841.68 339.2 1842.21 342.586 1842.75 345.973 1843.2 349.115 1843.58 352.014 1845.89 348.688 1847.84 345.432 1849.45 342.248 1851.05 339.064 1852.2 336.295 1852.9 333.943 1853.6 331.59 1853.96 329.677 1853.96 328.204 1853.96 327.087 1853.72 326.327 1853.24 325.923 1852.77 325.519 1851.96 325.281 1850.82 325.21L1851.18 323.463 1860.55 323.463 1861.51 325.245C1859.71 330.188 1857.26 335.475 1854.17 341.107 1851.13 346.62 1847.65 352.109 1843.73 357.575 1839.97 362.779 1836.85 366.546 1834.35 368.874 1832.62 370.466 1830.94 371.607 1829.32 372.296 1828.04 372.819 1826.68 373.08 1825.23 373.08 1824.73 373.08 1824.15 373.039 1823.5 372.956 1822.84 372.872 1822.34 372.76 1821.98 372.617L1823.51 365.702 1826.33 365.702C1826.33 367.223 1826.85 367.983 1827.9 367.983 1829.28 367.983 1830.88 367.122 1832.71 365.399 1834.54 363.676 1836.69 361.08 1839.16 357.611 1838.47 353.452 1837.54 348.438 1836.35 342.569 1835.09 336.295 1834.26 332.41 1833.85 330.913 1833.35 329.107 1832.83 327.954 1832.28 327.455 1831.95 327.146 1831.53 326.992 1831.04 326.992 1830.28 326.992 1829.56 327.301 1828.9 327.919 1828.23 328.537 1827.41 329.606 1826.44 331.127L1824.12 329.594C1825.76 327.146 1827.29 325.418 1828.72 324.408 1830.14 323.398 1831.74 322.893 1833.5 322.893Z" fill-rule="evenodd"/><text fill="#000000" fill-opacity="0" font-family="Arial,Arial_MSFontService,sans-serif" font-size="50.1875" x="1821.98" y="366.807">𝑦</text><path d="M1876.53 339.172 1878.11 339.172C1878.08 340.121 1878.05 340.97 1878.03 341.721 1878.02 342.471 1878 343.2 1877.99 343.908 1877.99 344.615 1877.98 345.314 1877.98 346.004L1877.98 365.672C1877.98 366.207 1878 366.668 1878.03 367.056 1878.07 367.445 1878.12 367.772 1878.2 368.04 1878.28 368.307 1878.38 368.536 1878.51 368.726 1878.64 368.915 1878.79 369.079 1878.96 369.217 1879.17 369.424 1879.45 369.584 1879.79 369.696 1880.14 369.808 1880.58 369.903 1881.11 369.981 1881.65 370.058 1882.29 370.119 1883.04 370.162 1883.79 370.205 1884.69 370.235 1885.75 370.252L1885.75 372.504 1865.22 372.504 1865.22 370.252C1866.24 370.218 1867.1 370.179 1867.81 370.136 1868.52 370.093 1869.12 370.032 1869.62 369.955 1870.12 369.877 1870.52 369.791 1870.83 369.696 1871.13 369.601 1871.39 369.485 1871.62 369.347 1871.86 369.191 1872.06 369.023 1872.24 368.842 1872.41 368.661 1872.55 368.432 1872.65 368.156 1872.75 367.88 1872.84 367.544 1872.9 367.147 1872.96 366.75 1872.99 366.258 1872.99 365.672L1872.99 347.117C1872.99 346.444 1872.86 345.969 1872.6 345.693 1872.34 345.417 1871.97 345.279 1871.49 345.279 1870.95 345.279 1870.16 345.555 1869.1 346.107 1868.05 346.66 1866.69 347.479 1865.02 348.566 1864.79 348.169 1864.58 347.772 1864.4 347.375 1864.21 346.979 1864.01 346.573 1863.8 346.159 1865.94 344.986 1868.06 343.817 1870.15 342.653 1872.25 341.488 1874.38 340.328 1876.53 339.172Z" fill-rule="evenodd"/><text fill="#000000" fill-opacity="0" font-family="Arial,Arial_MSFontService,sans-serif" font-size="33.332" x="1863.8" y="368.337">1</text><path d="M2004.01 302.682 2019.91 302.682 2019.91 370.656 2004.01 370.656 2004.01 367.912 2013.99 367.912 2013.99 305.427 2004.01 305.427ZM1901.18 302.682 1917.07 302.682 1917.07 305.427 1907.09 305.427 1907.09 367.912 1917.07 367.912 1917.07 370.656 1901.18 370.656Z" fill-rule="evenodd"/><path d="M1939.21 308.314C1943.63 308.314 1946.97 309.283 1949.23 311.219 1951.49 313.156 1952.61 315.966 1952.61 319.649 1952.61 320.909 1952.49 322.067 1952.24 323.125 1951.99 324.182 1951.6 325.228 1951.06 326.261 1950.53 327.295 1949.81 328.406 1948.91 329.594 1948 330.782 1947.01 331.988 1945.91 333.212 1944.82 334.436 1942.93 336.473 1940.25 339.325 1935.73 344.101 1932.42 348.272 1930.3 351.836L1943.74 351.836C1944.9 351.836 1945.84 351.765 1946.55 351.622 1947.27 351.48 1947.84 351.242 1948.27 350.909 1948.69 350.577 1949.03 350.143 1949.28 349.608 1949.53 349.074 1949.85 348.248 1950.23 347.131L1953.26 347.131 1952.65 357.539 1923.31 357.539 1923.31 355.828C1924.34 353.333 1925.71 350.779 1927.45 348.165 1929.18 345.551 1931.64 342.474 1934.83 338.933 1937.58 335.891 1939.57 333.586 1940.78 332.018 1942.11 330.307 1943.1 328.828 1943.76 327.58 1944.41 326.333 1944.88 325.156 1945.16 324.051 1945.45 322.946 1945.59 321.835 1945.59 320.719 1945.59 318.936 1945.31 317.362 1944.74 315.996 1944.17 314.629 1943.29 313.554 1942.12 312.77 1940.94 311.986 1939.46 311.594 1937.68 311.594 1933.24 311.594 1930.24 314.065 1928.7 319.008L1924.38 319.008 1924.38 312.164C1927.26 310.809 1929.95 309.829 1932.46 309.223 1934.96 308.617 1937.22 308.314 1939.21 308.314Z" fill-rule="evenodd"/><text fill="#000000" fill-opacity="0" font-family="Arial,Arial_MSFontService,sans-serif" font-size="49.2251" x="1923.31" y="351.386">2</text><path d="M1970.62 322.857C1972.12 322.857 1973.3 323.35 1974.17 324.336 1975.04 325.323 1975.47 326.612 1975.47 328.204 1975.47 329.463 1975.18 330.865 1974.61 332.41L1975.04 332.552C1977.37 329.273 1979.59 326.843 1981.69 325.263 1983.79 323.683 1985.96 322.893 1988.19 322.893 1990.4 322.893 1992.1 323.528 1993.29 324.8 1994.48 326.071 1995.07 327.836 1995.07 330.093 1995.07 331.59 1994.73 333.717 1994.04 336.473L1991.72 345.812C1991.08 348.402 1990.76 350.232 1990.76 351.302 1990.76 352.252 1990.91 352.941 1991.22 353.369 1991.53 353.797 1992.02 354.01 1992.69 354.01 1993.4 354.01 1994.16 353.719 1994.97 353.137 1995.77 352.555 1996.91 351.444 1998.39 349.804L2000.42 351.801C1998.38 353.987 1996.59 355.585 1995.07 356.595 1993.55 357.605 1991.82 358.11 1989.87 358.11 1988.32 358.11 1987.09 357.557 1986.16 356.452 1985.24 355.347 1984.77 353.939 1984.77 352.228 1984.77 350.684 1985.16 348.414 1985.95 345.42L1987.52 339.254C1988.09 337.02 1988.46 335.368 1988.64 334.299 1988.82 333.23 1988.91 332.362 1988.91 331.697 1988.91 330.057 1988.63 328.875 1988.09 328.15 1987.54 327.426 1986.65 327.063 1985.41 327.063 1984.42 327.063 1983.34 327.461 1982.19 328.257 1981.04 329.053 1979.81 330.253 1978.52 331.857 1977.22 333.461 1976.18 335.018 1975.4 336.527 1974.61 338.036 1973.97 339.895 1973.47 342.105L1970.09 357.539 1963.92 357.539 1969.12 334.941C1969.65 332.659 1969.91 330.901 1969.91 329.665 1969.91 328.715 1969.75 328.026 1969.44 327.598 1969.14 327.17 1968.65 326.956 1967.98 326.956 1967.25 326.956 1966.47 327.259 1965.65 327.865 1964.83 328.471 1963.71 329.57 1962.28 331.162L1960.25 329.166C1962.43 326.885 1964.25 325.263 1965.7 324.301 1967.15 323.338 1968.79 322.857 1970.62 322.857Z" fill-rule="evenodd"/><text fill="#000000" fill-opacity="0" font-family="Arial,Arial_MSFontService,sans-serif" font-size="35.2524" x="1960.25" y="353.703">𝑛</text><path d="M1015.17 427.676C1015.9 427.676 1016.55 427.759 1017.11 427.926 1017.67 428.092 1018.16 428.348 1018.59 428.692 1019.02 429.037 1019.4 429.482 1019.73 430.029 1020.06 430.575 1020.38 431.318 1020.69 432.257 1021 433.195 1021.29 434.36 1021.56 435.75 1021.84 437.14 1022.08 438.583 1022.3 440.081L1022.65 440.081C1024.93 436.872 1026.66 434.526 1027.84 433.041 1029.01 431.556 1030.01 430.451 1030.81 429.726 1031.62 429.001 1032.4 428.49 1033.15 428.193 1033.9 427.896 1034.89 427.747 1036.13 427.747 1037.24 427.747 1038.16 427.89 1038.87 428.175L1037.44 434.627 1034.95 434.627C1034.81 433.629 1034.39 433.13 1033.7 433.13 1033.49 433.13 1033.26 433.165 1033.02 433.237 1032.79 433.308 1032.5 433.462 1032.15 433.7 1031.81 433.938 1031.3 434.401 1030.64 435.09 1029.97 435.779 1029.22 436.623 1028.39 437.621 1027.56 438.619 1026.7 439.665 1025.82 440.758L1023.4 443.788C1023.83 446.069 1024.23 448.041 1024.61 449.705 1024.99 451.368 1025.33 452.752 1025.63 453.857 1025.93 454.962 1026.19 455.835 1026.41 456.477 1026.64 457.119 1026.88 457.6 1027.14 457.921 1027.4 458.241 1027.67 458.467 1027.95 458.598 1028.22 458.729 1028.53 458.794 1028.89 458.794 1029.53 458.794 1030.16 458.544 1030.76 458.045 1031.37 457.546 1032.24 456.418 1033.38 454.659L1035.7 456.192C1034.03 458.663 1032.53 460.404 1031.19 461.414 1029.85 462.424 1028.25 462.929 1026.39 462.929 1025.37 462.929 1024.51 462.744 1023.79 462.376 1023.08 462.008 1022.46 461.42 1021.94 460.612 1021.42 459.804 1020.95 458.544 1020.55 456.833 1019.81 453.792 1019.36 451.463 1019.19 449.847L1018.84 449.847C1016.32 453.388 1014.45 455.93 1013.22 457.475 1012 459.02 1010.99 460.16 1010.19 460.897 1009.4 461.634 1008.63 462.15 1007.88 462.447 1007.13 462.744 1006.14 462.893 1004.9 462.893 1003.78 462.893 1002.87 462.75 1002.16 462.465L1003.58 456.014 1006.08 456.014C1006.22 457.012 1006.64 457.511 1007.32 457.511 1007.66 457.511 1008.01 457.422 1008.38 457.243 1008.74 457.065 1009.27 456.637 1009.96 455.96 1010.65 455.283 1011.6 454.22 1012.81 452.77 1014.03 451.32 1015.78 449.146 1018.09 446.247 1017.73 444.37 1017.36 442.564 1016.98 440.829 1016.6 439.094 1016.21 437.478 1015.81 435.981 1015.4 434.484 1015.07 433.504 1014.81 433.041 1014.55 432.577 1014.27 432.257 1013.97 432.078 1013.68 431.9 1013.3 431.811 1012.85 431.811 1012.35 431.811 1011.9 431.924 1011.5 432.15 1011.09 432.375 1010.65 432.767 1010.18 433.326 1009.7 433.884 1009.07 434.758 1008.29 435.946L1005.97 434.413C1007.47 432.156 1008.9 430.468 1010.28 429.352 1011.66 428.235 1013.29 427.676 1015.17 427.676Z" fill-rule="evenodd"/><text fill="#000000" fill-opacity="0" font-family="Arial,Arial_MSFontService,sans-serif" font-size="35.2524" x="1002.16" y="458.522">𝑥</text><path d="M1050.4 410.709 1066.29 410.709 1066.29 413.454 1056.31 413.454 1056.31 475.939 1066.29 475.939 1066.29 478.684 1050.4 478.684Z" fill-rule="evenodd"/><text fill="#000000" fill-opacity="0" font-family="Arial,Arial_MSFontService,sans-serif" font-size="67.9741" x="1050.4" y="470.187">[</text><path d="M1079.28 427.676C1080.77 427.676 1081.96 428.169 1082.82 429.155 1083.69 430.142 1084.13 431.431 1084.13 433.023 1084.13 434.282 1083.84 435.684 1083.27 437.229L1083.7 437.372C1086.03 434.092 1088.24 431.662 1090.35 430.082 1092.45 428.502 1094.62 427.712 1096.85 427.712 1099.06 427.712 1100.76 428.348 1101.95 429.619 1103.14 430.89 1103.73 432.655 1103.73 434.912 1103.73 436.409 1103.39 438.536 1102.7 441.292L1100.38 450.631C1099.74 453.221 1099.42 455.051 1099.42 456.121 1099.42 457.071 1099.57 457.76 1099.88 458.188 1100.19 458.616 1100.68 458.83 1101.34 458.83 1102.05 458.83 1102.81 458.538 1103.62 457.956 1104.43 457.374 1105.57 456.263 1107.04 454.623L1109.08 456.62C1107.03 458.806 1105.25 460.404 1103.73 461.414 1102.21 462.424 1100.47 462.929 1098.53 462.929 1096.98 462.929 1095.75 462.376 1094.82 461.271 1093.89 460.166 1093.43 458.758 1093.43 457.047 1093.43 455.503 1093.82 453.233 1094.6 450.239L1096.17 444.073C1096.74 441.839 1097.12 440.187 1097.3 439.118 1097.47 438.049 1097.56 437.181 1097.56 436.516 1097.56 434.876 1097.29 433.694 1096.74 432.969 1096.2 432.245 1095.31 431.882 1094.07 431.882 1093.07 431.882 1092 432.28 1090.84 433.076 1089.69 433.872 1088.47 435.072 1087.17 436.676 1085.88 438.28 1084.84 439.837 1084.05 441.346 1083.27 442.855 1082.63 444.714 1082.13 446.924L1078.74 462.358 1072.58 462.358 1077.78 439.76C1078.3 437.478 1078.56 435.72 1078.56 434.484 1078.56 433.534 1078.41 432.845 1078.1 432.417 1077.79 431.989 1077.31 431.775 1076.64 431.775 1075.9 431.775 1075.12 432.078 1074.31 432.684 1073.49 433.29 1072.36 434.389 1070.94 435.981L1068.9 433.985C1071.09 431.704 1072.91 430.082 1074.36 429.12 1075.81 428.157 1077.45 427.676 1079.28 427.676Z" fill-rule="evenodd"/><text fill="#000000" fill-opacity="0" font-family="Arial,Arial_MSFontService,sans-serif" font-size="35.2524" x="1068.9" y="458.522">𝑛</text><path d="M1112.67 410.709 1128.56 410.709 1128.56 478.684 1112.67 478.684 1112.67 475.939 1122.65 475.939 1122.65 413.454 1112.67 413.454Z" fill-rule="evenodd"/><text fill="#000000" fill-opacity="0" font-family="Arial,Arial_MSFontService,sans-serif" font-size="67.9741" x="1112.67" y="470.187">]</text><rect x="1338.5" y="320.5" width="364" height="165" stroke="#000000" stroke-width="3.4375" stroke-miterlimit="8" fill="none"/><path d="M1408.94 375.052 1426.91 375.052 1426.42 377.254C1425.28 377.493 1424.46 377.763 1423.97 378.062 1423.47 378.362 1423.03 378.811 1422.64 379.41 1422.25 380.009 1421.85 380.945 1421.43 382.218 1421.01 383.49 1420.49 385.564 1419.86 388.439L1416.8 402.185 1440.93 402.185 1443.98 388.394C1444.25 387.166 1444.48 385.856 1444.68 384.464 1444.87 383.071 1444.97 381.97 1444.97 381.162 1444.97 379.754 1444.62 378.774 1443.91 378.219 1443.21 377.665 1442.09 377.344 1440.57 377.254L1441.06 375.052 1459.03 375.052 1458.54 377.254C1457.4 377.493 1456.58 377.763 1456.09 378.062 1455.59 378.362 1455.15 378.811 1454.76 379.41 1454.37 380.009 1453.97 380.945 1453.55 382.218 1453.13 383.49 1452.61 385.564 1451.98 388.439L1444.3 423.299C1443.91 425.066 1443.65 426.466 1443.53 427.499 1443.41 428.532 1443.35 429.468 1443.35 430.306 1443.35 431.654 1443.69 432.605 1444.36 433.159 1445.04 433.713 1446.17 434.05 1447.75 434.17L1447.26 436.371 1429.29 436.371 1429.79 434.17C1430.92 433.99 1431.78 433.698 1432.35 433.294 1432.92 432.889 1433.39 432.328 1433.78 431.609 1434.17 430.89 1434.53 430.014 1434.86 428.981 1435.19 427.948 1435.69 425.949 1436.34 422.984L1440.03 406.318 1415.91 406.318 1412.18 423.299C1411.85 424.796 1411.61 426.031 1411.46 427.005 1411.31 427.978 1411.23 429.079 1411.23 430.306 1411.23 431.594 1411.53 432.523 1412.13 433.092 1412.73 433.661 1413.9 434.02 1415.64 434.17L1415.14 436.371 1397.17 436.371 1397.67 434.17C1398.8 433.99 1399.66 433.698 1400.23 433.294 1400.8 432.889 1401.28 432.328 1401.66 431.609 1402.05 430.89 1402.41 430.014 1402.74 428.981 1403.07 427.948 1403.57 425.949 1404.23 422.984L1411.86 388.394C1412.13 387.166 1412.36 385.856 1412.56 384.464 1412.75 383.071 1412.85 381.97 1412.85 381.162 1412.85 379.754 1412.5 378.774 1411.79 378.219 1411.09 377.665 1409.98 377.344 1408.45 377.254Z" fill-rule="evenodd"/><text fill="#000000" fill-opacity="0" font-family="Arial,Arial_MSFontService,sans-serif" font-size="61.3184" x="1397.17" y="428.706">𝐻</text><path d="M1479.85 419.248C1477.95 422.345 1476.07 425.448 1474.2 428.555 1472.34 431.663 1470.46 434.777 1468.56 437.896L1481.16 437.896C1481.05 436.5 1480.94 435.131 1480.83 433.79 1480.72 432.449 1480.63 431.036 1480.57 429.553 1480.5 428.07 1480.44 426.489 1480.39 424.81 1480.33 423.13 1480.31 421.276 1480.31 419.248ZM1479.72 412.084 1485.12 412.084 1488.09 446.663C1488.18 447.775 1488.32 448.713 1488.5 449.477 1488.69 450.24 1488.94 450.872 1489.27 451.374 1489.6 451.876 1490.01 452.257 1490.5 452.519 1490.99 452.781 1491.6 452.966 1492.35 453.075L1491.85 455.071 1477.59 455.071 1478.08 453.075C1478.69 452.966 1479.23 452.83 1479.7 452.666 1480.17 452.503 1480.56 452.23 1480.86 451.848 1481.17 451.467 1481.4 450.949 1481.57 450.294 1481.73 449.64 1481.81 448.79 1481.81 447.743 1481.81 447.35 1481.8 446.898 1481.78 446.385 1481.76 445.872 1481.73 445.333 1481.7 444.766 1481.66 444.199 1481.62 443.615 1481.57 443.015 1481.51 442.416 1481.46 441.832 1481.42 441.265L1466.76 441.265C1466.26 442.007 1465.76 442.77 1465.27 443.555 1464.78 444.34 1464.34 445.109 1463.93 445.862 1463.53 446.614 1463.21 447.361 1462.97 448.103 1462.73 448.844 1462.61 449.575 1462.61 450.294 1462.61 451.887 1463.77 452.814 1466.11 453.075L1465.68 455.071 1451.39 455.071 1451.75 453.075C1452.34 452.966 1452.86 452.797 1453.33 452.568 1453.8 452.339 1454.29 451.979 1454.81 451.489 1455.32 450.998 1455.87 450.333 1456.47 449.493 1457.07 448.653 1457.8 447.546 1458.65 446.172Z" fill-rule="evenodd"/><text fill="#000000" fill-opacity="0" font-family="Arial,Arial_MSFontService,sans-serif" font-size="42.9873" x="1451.39" y="449.697">𝐴</text><path d="M1543.5 369.842 1549.88 369.842 1549.88 427.027 1562 417.324 1564.65 420.154 1548.26 437.045 1545.16 437.045 1528.76 420.334 1531.41 417.324 1543.5 427.027Z" fill-rule="evenodd"/><text fill="#000000" fill-opacity="0" font-family="Arial,Arial_MSFontService,sans-serif" font-size="67.2031" x="1528.76" y="428.644">↓</text><path d="M1619.43 374.334C1625 374.334 1629.21 375.554 1632.05 377.995 1634.9 380.436 1636.32 383.977 1636.32 388.619 1636.32 390.206 1636.16 391.666 1635.85 392.999 1635.53 394.331 1635.04 395.649 1634.36 396.952 1633.69 398.255 1632.78 399.655 1631.65 401.152 1630.51 402.65 1629.25 404.169 1627.87 405.712 1626.5 407.254 1624.11 409.822 1620.73 413.416 1615.04 419.435 1610.86 424.691 1608.2 429.183L1625.13 429.183C1626.6 429.183 1627.78 429.094 1628.68 428.914 1629.58 428.734 1630.3 428.435 1630.84 428.015 1631.38 427.596 1631.8 427.05 1632.12 426.376 1632.43 425.702 1632.83 424.661 1633.31 423.254L1637.13 423.254 1636.36 436.371 1599.39 436.371 1599.39 434.215C1600.68 431.07 1602.42 427.851 1604.6 424.556 1606.79 421.262 1609.89 417.384 1613.9 412.922 1617.38 409.088 1619.88 406.183 1621.4 404.207 1623.08 402.051 1624.33 400.186 1625.16 398.614 1625.98 397.042 1626.57 395.559 1626.93 394.167 1627.29 392.774 1627.47 391.374 1627.47 389.967 1627.47 387.72 1627.11 385.736 1626.39 384.014 1625.67 382.292 1624.57 380.937 1623.09 379.949 1621.61 378.961 1619.74 378.467 1617.5 378.467 1611.9 378.467 1608.12 381.581 1606.18 387.81L1600.74 387.81 1600.74 379.185C1604.36 377.478 1607.76 376.243 1610.91 375.479 1614.07 374.716 1616.91 374.334 1619.43 374.334Z" fill-rule="evenodd"/><text fill="#000000" fill-opacity="0" font-family="Arial,Arial_MSFontService,sans-serif" font-size="62.0371" x="1599.39" y="428.616">2</text><rect x="1991.5" y="690.5" width="364" height="165" stroke="#000000" stroke-width="3.4375" stroke-miterlimit="8" fill="none"/><path d="M2068.28 744.734 2086.25 744.734 2085.75 746.935C2084.61 747.175 2083.8 747.444 2083.3 747.744 2082.81 748.043 2082.37 748.492 2081.98 749.091 2081.59 749.69 2081.19 750.626 2080.77 751.899 2080.35 753.172 2079.82 755.246 2079.19 758.121L2069.58 801.92 2080.63 801.92C2082.64 801.92 2084.22 801.725 2085.37 801.336 2086.52 800.946 2087.62 800.235 2088.65 799.202 2089.68 798.169 2090.69 796.768 2091.68 795.002 2092.67 793.235 2093.67 791.034 2094.69 788.398L2099.05 788.398 2094.51 806.052 2056.51 806.052 2057 803.851C2058.14 803.672 2058.99 803.38 2059.56 802.975 2060.13 802.571 2060.61 802.009 2061 801.291 2061.39 800.572 2061.75 799.696 2062.08 798.663 2062.41 797.63 2062.9 795.63 2063.56 792.666L2071.2 758.076C2071.86 755.081 2072.19 752.67 2072.19 750.843 2072.19 749.436 2071.83 748.455 2071.13 747.901 2070.43 747.347 2069.31 747.025 2067.78 746.935Z" fill-rule="evenodd"/><text fill="#000000" fill-opacity="0" font-family="Arial,Arial_MSFontService,sans-serif" font-size="61.3184" x="2056.51" y="798.388">𝐿</text><path d="M2126.79 788.93C2124.89 792.027 2123.01 795.129 2121.14 798.237 2119.28 801.345 2117.4 804.458 2115.5 807.577L2128.09 807.577C2127.99 806.181 2127.88 804.813 2127.77 803.471 2127.66 802.13 2127.57 800.718 2127.51 799.235 2127.44 797.752 2127.38 796.171 2127.33 794.491 2127.27 792.812 2127.24 790.958 2127.24 788.93ZM2126.65 781.765 2132.05 781.765 2135.03 816.345C2135.12 817.457 2135.25 818.395 2135.44 819.158 2135.62 819.922 2135.88 820.554 2136.21 821.056 2136.53 821.557 2136.94 821.939 2137.43 822.201 2137.93 822.462 2138.54 822.648 2139.28 822.757L2138.79 824.752 2124.53 824.752 2125.02 822.757C2125.63 822.648 2126.17 822.511 2126.64 822.348 2127.11 822.184 2127.49 821.912 2127.8 821.53 2128.11 821.148 2128.34 820.63 2128.5 819.976 2128.67 819.322 2128.75 818.471 2128.75 817.424 2128.75 817.032 2128.74 816.579 2128.72 816.067 2128.69 815.554 2128.67 815.014 2128.63 814.447 2128.6 813.88 2128.56 813.297 2128.5 812.697 2128.45 812.097 2128.4 811.514 2128.36 810.947L2113.7 810.947C2113.2 811.688 2112.7 812.452 2112.21 813.237 2111.72 814.022 2111.27 814.791 2110.87 815.543 2110.47 816.296 2110.14 817.043 2109.9 817.784 2109.66 818.526 2109.54 819.256 2109.54 819.976 2109.54 821.568 2110.71 822.495 2113.05 822.757L2112.62 824.752 2098.32 824.752 2098.68 822.757C2099.27 822.648 2099.8 822.479 2100.27 822.25 2100.74 822.021 2101.23 821.661 2101.74 821.17 2102.25 820.679 2102.81 820.014 2103.41 819.174 2104.01 818.335 2104.74 817.228 2105.59 815.854Z" fill-rule="evenodd"/><text fill="#000000" fill-opacity="0" font-family="Arial,Arial_MSFontService,sans-serif" font-size="42.9873" x="2098.32" y="819.379">𝐴</text><path d="M2190.43 739.523 2196.81 739.523 2196.81 796.709 2208.94 787.005 2211.59 789.836 2195.2 806.726 2192.1 806.726 2175.7 790.015 2178.35 787.005 2190.43 796.709Z" fill-rule="evenodd"/><text fill="#000000" fill-opacity="0" font-family="Arial,Arial_MSFontService,sans-serif" font-size="67.2031" x="2175.7" y="798.326">↓</text><path d="M2266.36 744.015C2271.94 744.015 2276.14 745.236 2278.99 747.676 2281.83 750.117 2283.26 753.659 2283.26 758.3 2283.26 759.888 2283.1 761.348 2282.78 762.68 2282.47 764.013 2281.98 765.331 2281.3 766.633 2280.63 767.936 2279.72 769.336 2278.58 770.834 2277.45 772.331 2276.19 773.851 2274.81 775.393 2273.43 776.935 2271.05 779.504 2267.67 783.097 2261.98 789.117 2257.8 794.373 2255.13 798.865L2272.07 798.865C2273.54 798.865 2274.72 798.775 2275.62 798.595 2276.52 798.416 2277.24 798.116 2277.78 797.697 2278.31 797.278 2278.74 796.731 2279.06 796.057 2279.37 795.383 2279.77 794.343 2280.25 792.935L2284.06 792.935 2283.3 806.052 2246.33 806.052 2246.33 803.896C2247.62 800.752 2249.35 797.532 2251.54 794.238 2253.73 790.944 2256.83 787.065 2260.84 782.603 2264.31 778.77 2266.81 775.865 2268.34 773.888 2270.02 771.732 2271.27 769.868 2272.09 768.296 2272.92 766.723 2273.51 765.241 2273.87 763.848 2274.23 762.456 2274.41 761.056 2274.41 759.648 2274.41 757.402 2274.05 755.418 2273.33 753.696 2272.61 751.974 2271.51 750.619 2270.03 749.63 2268.54 748.642 2266.68 748.148 2264.43 748.148 2258.83 748.148 2255.06 751.263 2253.11 757.492L2247.68 757.492 2247.68 748.867C2251.3 747.16 2254.69 745.924 2257.85 745.161 2261.01 744.397 2263.85 744.015 2266.36 744.015Z" fill-rule="evenodd"/><text fill="#000000" fill-opacity="0" font-family="Arial,Arial_MSFontService,sans-serif" font-size="62.0371" x="2246.33" y="798.298">2</text><path d="M4.16298e-06-1.71875 126.083-1.71844 126.083 1.71906-4.16298e-06 1.71875ZM121.5-13.7497 149 0.000360892 121.5 13.7503Z" transform="matrix(1 0 0 -1 1842.5 525.5)"/><path d="M4.16298e-06-1.71875 126.083-1.71844 126.083 1.71906-4.16298e-06 1.71875ZM121.5-13.7497 149 0.000360892 121.5 13.7503Z" transform="matrix(1 0 0 -1 1842.5 772.5)"/><path d="M1704.5 648.5 1842.5 648.501" stroke="#000000" stroke-width="3.4375" stroke-linejoin="round" stroke-miterlimit="10" fill="none" fill-rule="evenodd"/><path d="M0 0 0.000360892 247" stroke="#000000" stroke-width="3.4375" stroke-linejoin="round" stroke-miterlimit="10" fill="none" fill-rule="evenodd" transform="matrix(1 0 0 -1 1842.5 772.5)"/><path d="M4.16297e-06-1.71875 126.084-1.71844 126.084 1.71906-4.16297e-06 1.71875ZM121.5-13.7497 149 0.000360892 121.5 13.7503Z" transform="matrix(1 0 0 -1 2355.5 525.5)"/><path d="M2485.77 445.074C2486.75 445.074 2487.58 445.205 2488.27 445.466 2488.74 445.657 2489.22 445.971 2489.69 446.411 2490.17 446.851 2490.59 447.463 2490.96 448.247 2491.33 449.031 2491.65 449.91 2491.92 450.884 2492.19 451.859 2492.5 453.261 2492.83 455.091 2493.4 458.156 2493.95 461.382 2494.49 464.768 2495.02 468.154 2495.48 471.297 2495.86 474.196 2498.16 470.869 2500.12 467.614 2501.72 464.429 2503.33 461.245 2504.48 458.477 2505.18 456.124 2505.88 453.772 2506.23 451.859 2506.23 450.385 2506.23 449.269 2505.99 448.508 2505.52 448.104 2505.04 447.7 2504.24 447.463 2503.1 447.391L2503.45 445.645 2512.83 445.645 2513.79 447.427C2511.98 452.37 2509.54 457.657 2506.45 463.289 2503.4 468.802 2499.92 474.291 2496 479.757 2492.25 484.961 2489.12 488.727 2486.63 491.056 2484.89 492.648 2483.22 493.789 2481.6 494.478 2480.32 495.001 2478.95 495.262 2477.5 495.262 2477 495.262 2476.43 495.22 2475.77 495.137 2475.12 495.054 2474.62 494.941 2474.26 494.799L2475.79 487.883 2478.61 487.883C2478.61 489.404 2479.13 490.165 2480.18 490.165 2481.55 490.165 2483.16 489.303 2484.99 487.581 2486.82 485.858 2488.97 483.262 2491.44 479.792 2490.75 475.634 2489.81 470.62 2488.62 464.75 2487.36 458.477 2486.53 454.591 2486.13 453.094 2485.63 451.288 2485.11 450.136 2484.56 449.637 2484.23 449.328 2483.81 449.174 2483.31 449.174 2482.55 449.174 2481.84 449.482 2481.17 450.1 2480.51 450.718 2479.69 451.787 2478.71 453.308L2476.4 451.776C2478.04 449.328 2479.57 447.599 2481 446.589 2482.42 445.579 2484.01 445.074 2485.77 445.074Z" fill-rule="evenodd"/><text fill="#000000" fill-opacity="0" font-family="Arial,Arial_MSFontService,sans-serif" font-size="50.1875" x="2474.26" y="488.988">𝑦</text><path d="M2528.49 461.172C2530.28 461.172 2531.81 461.375 2533.08 461.78 2534.35 462.186 2535.38 462.734 2536.17 463.424 2536.97 464.114 2537.54 464.942 2537.89 465.908 2538.25 466.874 2538.42 467.918 2538.42 469.039 2538.42 469.712 2538.38 470.338 2538.28 470.916 2538.19 471.494 2538.02 472.063 2537.79 472.624 2537.56 473.184 2537.25 473.749 2536.87 474.319 2536.49 474.888 2536.02 475.492 2535.45 476.13 2535.02 476.682 2534.46 477.321 2533.77 478.045 2533.08 478.77 2532.32 479.546 2531.5 480.374 2530.68 481.203 2529.82 482.065 2528.93 482.962 2528.03 483.859 2527.16 484.748 2526.31 485.628 2525.47 486.508 2524.69 487.362 2523.98 488.19 2523.28 489.018 2522.7 489.777 2522.25 490.467L2531.82 490.467C2532.64 490.467 2533.28 490.437 2533.77 490.377 2534.25 490.316 2534.65 490.183 2534.97 489.975 2535.29 489.768 2535.56 489.454 2535.78 489.031 2536.01 488.608 2536.27 488.026 2536.56 487.284L2538.97 487.284C2538.88 488.509 2538.8 489.743 2538.72 490.985 2538.64 492.227 2538.56 493.461 2538.48 494.685L2516.56 494.685 2516.56 493.34C2516.97 492.408 2517.45 491.489 2518.01 490.584 2518.56 489.678 2519.18 488.759 2519.87 487.828 2520.56 486.896 2521.34 485.934 2522.22 484.942 2523.1 483.95 2524.08 482.919 2525.15 481.85 2526.77 480.228 2528.09 478.843 2529.11 477.696 2530.13 476.549 2530.93 475.526 2531.51 474.629 2532.1 473.732 2532.5 472.904 2532.72 472.145 2532.93 471.386 2533.04 470.575 2533.04 469.712 2533.04 468.832 2532.92 468.022 2532.67 467.28 2532.42 466.538 2532.06 465.908 2531.59 465.391 2531.13 464.873 2530.54 464.468 2529.82 464.174 2529.1 463.881 2528.28 463.734 2527.35 463.734 2525.74 463.734 2524.4 464.17 2523.31 465.041 2522.22 465.912 2521.38 467.176 2520.77 468.832L2517.38 468.832 2517.38 463.786C2519.59 462.872 2521.62 462.207 2523.48 461.793 2525.33 461.379 2527 461.172 2528.49 461.172Z" fill-rule="evenodd"/><text fill="#000000" fill-opacity="0" font-family="Arial,Arial_MSFontService,sans-serif" font-size="33.5132" x="2516.56" y="490.496">2</text><path d="M2657.98 424.864 2673.88 424.864 2673.88 492.838 2657.98 492.838 2657.98 490.093 2667.96 490.093 2667.96 427.608 2657.98 427.608ZM2555.15 424.864 2571.05 424.864 2571.05 427.608 2561.07 427.608 2561.07 490.093 2571.05 490.093 2571.05 492.838 2555.15 492.838Z" fill-rule="evenodd"/><path d="M2595.25 438.872 2581.31 461.008 2581.31 461.507 2595.25 461.507 2595.25 452.631C2595.25 450.397 2595.29 447.896 2595.36 445.128 2595.43 442.359 2595.51 440.274 2595.61 438.872ZM2596.29 430.817 2601.38 430.817 2601.38 461.507 2602.13 461.507C2603.51 461.507 2604.5 461.406 2605.09 461.204 2605.68 461.002 2606.18 460.645 2606.57 460.134 2606.96 459.623 2607.32 458.786 2607.66 457.621L2610.37 457.621 2609.94 464.964 2601.38 464.964 2601.38 470.81C2601.38 472.402 2601.44 473.566 2601.54 474.303 2601.65 475.04 2601.83 475.622 2602.08 476.049 2602.33 476.477 2602.7 476.834 2603.18 477.119 2603.67 477.404 2604.46 477.689 2605.55 477.974L2605.55 479.721 2591.08 479.721 2591.08 477.974C2592.55 477.594 2593.54 477.172 2594.04 476.709 2594.54 476.246 2594.87 475.586 2595.02 474.731 2595.17 473.875 2595.25 472.568 2595.25 470.81L2595.25 464.964 2575.43 464.964 2575.43 462.291Z" fill-rule="evenodd"/><text fill="#000000" fill-opacity="0" font-family="Arial,Arial_MSFontService,sans-serif" font-size="48.9043" x="2575.43" y="473.608">4</text><path d="M2624.59 445.039C2626.09 445.039 2627.27 445.532 2628.14 446.518 2629.01 447.504 2629.44 448.793 2629.44 450.385 2629.44 451.645 2629.16 453.047 2628.59 454.591L2629.01 454.734C2631.34 451.455 2633.56 449.025 2635.66 447.445 2637.76 445.865 2639.93 445.074 2642.17 445.074 2644.38 445.074 2646.08 445.71 2647.26 446.981 2648.45 448.253 2649.05 450.017 2649.05 452.275 2649.05 453.772 2648.7 455.898 2648.01 458.655L2645.7 467.994C2645.05 470.584 2644.73 472.414 2644.73 473.483 2644.73 474.434 2644.89 475.123 2645.2 475.55 2645.51 475.978 2645.99 476.192 2646.66 476.192 2647.37 476.192 2648.13 475.901 2648.94 475.319 2649.75 474.737 2650.89 473.626 2652.36 471.986L2654.39 473.982C2652.35 476.168 2650.57 477.766 2649.05 478.776 2647.53 479.786 2645.79 480.291 2643.84 480.291 2642.3 480.291 2641.06 479.739 2640.14 478.634 2639.21 477.529 2638.74 476.121 2638.74 474.41 2638.74 472.865 2639.14 470.596 2639.92 467.602L2641.49 461.435C2642.06 459.202 2642.43 457.55 2642.61 456.481 2642.79 455.411 2642.88 454.544 2642.88 453.879 2642.88 452.239 2642.61 451.057 2642.06 450.332 2641.51 449.607 2640.62 449.245 2639.39 449.245 2638.39 449.245 2637.31 449.643 2636.16 450.439 2635.01 451.235 2633.78 452.435 2632.49 454.039 2631.19 455.643 2630.15 457.199 2629.37 458.708 2628.59 460.217 2627.94 462.077 2627.45 464.287L2624.06 479.721 2617.89 479.721 2623.1 457.122C2623.62 454.841 2623.88 453.083 2623.88 451.847 2623.88 450.896 2623.73 450.207 2623.42 449.779 2623.11 449.352 2622.62 449.138 2621.96 449.138 2621.22 449.138 2620.44 449.441 2619.62 450.047 2618.8 450.653 2617.68 451.752 2616.25 453.344L2614.22 451.348C2616.41 449.067 2618.23 447.445 2619.68 446.482 2621.12 445.52 2622.76 445.039 2624.59 445.039Z" fill-rule="evenodd"/><text fill="#000000" fill-opacity="0" font-family="Arial,Arial_MSFontService,sans-serif" font-size="35.2524" x="2614.22" y="475.885">𝑛</text><rect x="1991.5" y="442.5" width="364" height="165" stroke="#000000" stroke-width="3.4375" stroke-miterlimit="8" fill="none"/><path d="M2062.07 497.234 2080.04 497.234 2079.54 499.435C2078.4 499.675 2077.59 499.944 2077.09 500.244 2076.6 500.543 2076.16 500.992 2075.77 501.591 2075.38 502.19 2074.97 503.126 2074.56 504.399 2074.14 505.672 2073.61 507.746 2072.98 510.621L2069.93 524.367 2094.05 524.367 2097.11 510.576C2097.38 509.348 2097.61 508.038 2097.8 506.645 2098 505.253 2098.09 504.152 2098.09 503.343 2098.09 501.936 2097.74 500.955 2097.04 500.401 2096.33 499.847 2095.22 499.525 2093.69 499.435L2094.19 497.234 2112.16 497.234 2111.66 499.435C2110.52 499.675 2109.71 499.944 2109.21 500.244 2108.72 500.543 2108.28 500.992 2107.89 501.591 2107.5 502.19 2107.09 503.126 2106.67 504.399 2106.26 505.672 2105.73 507.746 2105.1 510.621L2097.42 545.48C2097.03 547.247 2096.78 548.647 2096.66 549.68 2096.54 550.714 2096.48 551.649 2096.48 552.488 2096.48 553.836 2096.81 554.786 2097.49 555.34 2098.16 555.894 2099.29 556.231 2100.88 556.351L2100.39 558.552 2082.42 558.552 2082.91 556.351C2084.05 556.172 2084.9 555.88 2085.47 555.475 2086.04 555.071 2086.52 554.509 2086.91 553.791 2087.3 553.072 2087.66 552.196 2087.99 551.163 2088.32 550.13 2088.81 548.13 2089.47 545.166L2093.15 528.5 2069.03 528.5 2065.3 545.48C2064.97 546.977 2064.73 548.213 2064.58 549.186 2064.43 550.159 2064.36 551.26 2064.36 552.488 2064.36 553.776 2064.66 554.704 2065.26 555.273 2065.86 555.842 2067.02 556.201 2068.76 556.351L2068.27 558.552 2050.3 558.552 2050.79 556.351C2051.93 556.172 2052.78 555.88 2053.35 555.475 2053.92 555.071 2054.4 554.509 2054.79 553.791 2055.18 553.072 2055.54 552.196 2055.87 551.163 2056.2 550.13 2056.69 548.13 2057.35 545.166L2064.99 510.576C2065.26 509.348 2065.49 508.038 2065.68 506.645 2065.88 505.253 2065.98 504.152 2065.98 503.343 2065.98 501.936 2065.62 500.955 2064.92 500.401 2064.22 499.847 2063.1 499.525 2061.57 499.435Z" fill-rule="evenodd"/><text fill="#000000" fill-opacity="0" font-family="Arial,Arial_MSFontService,sans-serif" font-size="61.3184" x="2050.3" y="550.888">𝐻</text><path d="M2132.97 541.43C2131.08 544.527 2129.19 547.629 2127.33 550.737 2125.47 553.845 2123.58 556.958 2121.69 560.077L2134.28 560.077C2134.17 558.681 2134.06 557.313 2133.95 555.971 2133.85 554.63 2133.76 553.218 2133.69 551.735 2133.63 550.252 2133.57 548.671 2133.51 546.991 2133.46 545.312 2133.43 543.458 2133.43 541.43ZM2132.84 534.265 2138.24 534.265 2141.22 568.845C2141.3 569.957 2141.44 570.895 2141.63 571.658 2141.81 572.422 2142.07 573.054 2142.4 573.556 2142.72 574.057 2143.13 574.439 2143.62 574.701 2144.11 574.962 2144.73 575.148 2145.47 575.257L2144.98 577.252 2130.72 577.252 2131.21 575.257C2131.82 575.148 2132.36 575.011 2132.83 574.848 2133.29 574.684 2133.68 574.412 2133.99 574.03 2134.29 573.648 2134.53 573.13 2134.69 572.476 2134.85 571.822 2134.94 570.971 2134.94 569.924 2134.94 569.532 2134.93 569.079 2134.9 568.567 2134.88 568.054 2134.85 567.514 2134.82 566.947 2134.79 566.38 2134.75 565.797 2134.69 565.197 2134.64 564.597 2134.59 564.014 2134.54 563.447L2119.89 563.447C2119.39 564.188 2118.89 564.952 2118.4 565.737 2117.91 566.522 2117.46 567.291 2117.06 568.043 2116.65 568.796 2116.33 569.543 2116.09 570.284 2115.85 571.026 2115.73 571.756 2115.73 572.476 2115.73 574.068 2116.9 574.995 2119.23 575.257L2118.81 577.252 2104.51 577.252 2104.87 575.257C2105.46 575.148 2105.99 574.979 2106.46 574.75 2106.93 574.521 2107.42 574.161 2107.93 573.67 2108.44 573.179 2109 572.514 2109.6 571.674 2110.2 570.835 2110.92 569.728 2111.77 568.354Z" fill-rule="evenodd"/><text fill="#000000" fill-opacity="0" font-family="Arial,Arial_MSFontService,sans-serif" font-size="42.9873" x="2104.51" y="571.879">𝐴</text><path d="M2196.62 492.023 2203 492.023 2203 549.209 2215.13 539.505 2217.78 542.336 2201.38 559.226 2198.28 559.226 2181.89 542.515 2184.54 539.505 2196.62 549.209Z" fill-rule="evenodd"/><text fill="#000000" fill-opacity="0" font-family="Arial,Arial_MSFontService,sans-serif" font-size="67.2031" x="2181.89" y="550.826">↓</text><path d="M2272.55 496.515C2278.12 496.515 2282.33 497.736 2285.18 500.176 2288.02 502.617 2289.44 506.158 2289.44 510.8 2289.44 512.388 2289.29 513.848 2288.97 515.18 2288.66 516.513 2288.16 517.831 2287.49 519.133 2286.82 520.436 2285.91 521.836 2284.77 523.334 2283.63 524.831 2282.38 526.351 2281 527.893 2279.62 529.435 2277.24 532.004 2273.86 535.597 2268.17 541.617 2263.99 546.873 2261.32 551.365L2278.26 551.365C2279.73 551.365 2280.91 551.275 2281.81 551.095 2282.7 550.916 2283.42 550.616 2283.96 550.197 2284.5 549.778 2284.93 549.231 2285.24 548.557 2285.56 547.883 2285.95 546.843 2286.43 545.435L2290.25 545.435 2289.49 558.552 2252.52 558.552 2252.52 556.396C2253.81 553.252 2255.54 550.032 2257.73 546.738 2259.91 543.444 2263.01 539.565 2267.03 535.103 2270.5 531.27 2273 528.365 2274.53 526.388 2276.21 524.232 2277.46 522.368 2278.28 520.796 2279.1 519.223 2279.7 517.741 2280.05 516.348 2280.41 514.956 2280.59 513.556 2280.59 512.148 2280.59 509.902 2280.23 507.918 2279.52 506.196 2278.8 504.474 2277.7 503.119 2276.21 502.13 2274.73 501.142 2272.87 500.648 2270.62 500.648 2265.02 500.648 2261.25 503.763 2259.3 509.992L2253.86 509.992 2253.86 501.367C2257.49 499.66 2260.88 498.424 2264.04 497.661 2267.2 496.897 2270.04 496.515 2272.55 496.515Z" fill-rule="evenodd"/><text fill="#000000" fill-opacity="0" font-family="Arial,Arial_MSFontService,sans-serif" font-size="62.0371" x="2252.52" y="550.798">2</text><rect x="2644.5" y="812.5" width="364" height="165" stroke="#000000" stroke-width="3.4375" stroke-miterlimit="8" fill="none"/><path d="M2721.4 866.916 2739.37 866.916 2738.88 869.117C2737.74 869.356 2736.92 869.626 2736.43 869.925 2735.93 870.225 2735.49 870.674 2735.1 871.273 2734.71 871.872 2734.31 872.808 2733.89 874.081 2733.47 875.353 2732.95 877.427 2732.32 880.302L2722.7 924.101 2733.76 924.101C2735.76 924.101 2737.34 923.906 2738.49 923.517 2739.65 923.128 2740.74 922.417 2741.77 921.383 2742.81 920.35 2743.82 918.95 2744.81 917.183 2745.79 915.416 2746.8 913.215 2747.82 910.58L2752.17 910.58 2747.64 928.234 2709.63 928.234 2710.13 926.033C2711.26 925.853 2712.12 925.561 2712.69 925.157 2713.26 924.753 2713.74 924.191 2714.12 923.472 2714.51 922.753 2714.87 921.878 2715.2 920.844 2715.53 919.811 2716.03 917.812 2716.69 914.847L2724.32 880.257C2724.98 877.263 2725.31 874.852 2725.31 873.025 2725.31 871.617 2724.96 870.637 2724.25 870.083 2723.55 869.529 2722.44 869.207 2720.91 869.117Z" fill-rule="evenodd"/><text fill="#000000" fill-opacity="0" font-family="Arial,Arial_MSFontService,sans-serif" font-size="61.3184" x="2709.63" y="920.569">𝐿</text><path d="M2779.91 911.111C2778.01 914.208 2776.13 917.311 2774.27 920.419 2772.4 923.526 2770.52 926.64 2768.62 929.759L2781.22 929.759C2781.11 928.363 2781 926.994 2780.89 925.653 2780.78 924.312 2780.7 922.899 2780.63 921.416 2780.56 919.933 2780.5 918.352 2780.45 916.673 2780.4 914.993 2780.37 913.14 2780.37 911.111ZM2779.78 903.947 2785.18 903.947 2788.15 938.526C2788.24 939.639 2788.38 940.576 2788.56 941.34 2788.75 942.103 2789 942.736 2789.33 943.237 2789.66 943.739 2790.07 944.12 2790.56 944.382 2791.05 944.644 2791.67 944.829 2792.41 944.938L2791.92 946.934 2777.65 946.934 2778.14 944.938C2778.75 944.829 2779.29 944.693 2779.76 944.529 2780.23 944.366 2780.62 944.093 2780.92 943.712 2781.23 943.33 2781.46 942.812 2781.63 942.158 2781.79 941.503 2781.87 940.653 2781.87 939.606 2781.87 939.213 2781.86 938.761 2781.84 938.248 2781.82 937.736 2781.79 937.196 2781.76 936.629 2781.73 936.062 2781.68 935.478 2781.63 934.879 2781.57 934.279 2781.52 933.695 2781.48 933.128L2766.82 933.128C2766.32 933.87 2765.83 934.633 2765.34 935.418 2764.84 936.203 2764.4 936.972 2763.99 937.725 2763.59 938.477 2763.27 939.224 2763.03 939.966 2762.79 940.707 2762.67 941.438 2762.67 942.158 2762.67 943.75 2763.84 944.677 2766.17 944.938L2765.74 946.934 2751.45 946.934 2751.81 944.938C2752.4 944.829 2752.93 944.66 2753.39 944.431 2753.86 944.202 2754.35 943.842 2754.87 943.352 2755.38 942.861 2755.94 942.196 2756.54 941.356 2757.14 940.516 2757.86 939.41 2758.71 938.036Z" fill-rule="evenodd"/><text fill="#000000" fill-opacity="0" font-family="Arial,Arial_MSFontService,sans-serif" font-size="42.9873" x="2751.45" y="941.561">𝐴</text><path d="M2843.56 861.705 2849.94 861.705 2849.94 918.89 2862.07 909.187 2864.72 912.017 2848.32 928.908 2845.22 928.908 2828.82 912.197 2831.47 909.187 2843.56 918.89Z" fill-rule="evenodd"/><text fill="#000000" fill-opacity="0" font-family="Arial,Arial_MSFontService,sans-serif" font-size="67.2031" x="2828.82" y="920.507">↓</text><path d="M2919.49 866.197C2925.06 866.197 2929.27 867.417 2932.11 869.858 2934.96 872.299 2936.38 875.84 2936.38 880.482 2936.38 882.069 2936.22 883.529 2935.91 884.862 2935.59 886.195 2935.1 887.512 2934.43 888.815 2933.75 890.118 2932.85 891.518 2931.71 893.015 2930.57 894.513 2929.31 896.032 2927.94 897.575 2926.56 899.117 2924.18 901.685 2920.79 905.279 2915.1 911.298 2910.92 916.554 2908.26 921.046L2925.19 921.046C2926.66 921.046 2927.85 920.957 2928.74 920.777 2929.64 920.597 2930.36 920.298 2930.9 919.878 2931.44 919.459 2931.87 918.913 2932.18 918.239 2932.49 917.565 2932.89 916.524 2933.37 915.117L2937.19 915.117 2936.43 928.234 2899.45 928.234 2899.45 926.078C2900.74 922.933 2902.48 919.714 2904.67 916.419 2906.85 913.125 2909.95 909.247 2913.96 904.785 2917.44 900.951 2919.94 898.046 2921.47 896.07 2923.14 893.914 2924.39 892.049 2925.22 890.477 2926.04 888.905 2926.63 887.422 2926.99 886.03 2927.35 884.637 2927.53 883.237 2927.53 881.83 2927.53 879.584 2927.17 877.599 2926.45 875.878 2925.73 874.156 2924.63 872.8 2923.15 871.812 2921.67 870.824 2919.8 870.33 2917.56 870.33 2911.96 870.33 2908.18 873.444 2906.24 879.673L2900.8 879.673 2900.8 871.048C2904.43 869.341 2907.82 868.106 2910.98 867.342 2914.14 866.579 2916.97 866.197 2919.49 866.197Z" fill-rule="evenodd"/><text fill="#000000" fill-opacity="0" font-family="Arial,Arial_MSFontService,sans-serif" font-size="62.0371" x="2899.45" y="920.479">2</text><path d="M4.16298e-06-1.71875 126.083-1.71844 126.083 1.71906-4.16298e-06 1.71875ZM121.5-13.7497 149 0.000360892 121.5 13.7503Z" transform="matrix(1 0 0 -1 2495.5 647.5)"/><path d="M4.16298e-06-1.71875 126.083-1.71844 126.083 1.71906-4.16298e-06 1.71875ZM121.5-13.7497 149 0.000360892 121.5 13.7503Z" transform="matrix(1 0 0 -1 2495.5 894.5)"/><path d="M2357.5 770.5 2495.5 770.5" stroke="#000000" stroke-width="3.4375" stroke-linejoin="round" stroke-miterlimit="10" fill="none" fill-rule="evenodd"/><path d="M0 0 0.000360892 247" stroke="#000000" stroke-width="3.4375" stroke-linejoin="round" stroke-miterlimit="10" fill="none" fill-rule="evenodd" transform="matrix(1 0 0 -1 2495.5 894.5)"/><path d="M4.13523e-06-1.71875 127.083-1.71844 127.083 1.71906-4.13523e-06 1.71875ZM122.5-13.7497 150 0.000360892 122.5 13.7503Z" transform="matrix(1 0 0 -1 3008.5 647.5)"/><path d="M3138.9 567.256C3139.87 567.256 3140.7 567.387 3141.39 567.648 3141.87 567.838 3142.34 568.153 3142.82 568.593 3143.29 569.032 3143.71 569.644 3144.08 570.428 3144.45 571.212 3144.77 572.092 3145.05 573.066 3145.32 574.04 3145.62 575.442 3145.95 577.272 3146.52 580.337 3147.08 583.563 3147.61 586.95 3148.15 590.336 3148.6 593.478 3148.98 596.378 3151.29 593.051 3153.24 589.795 3154.85 586.611 3156.45 583.427 3157.6 580.658 3158.31 578.306 3159.01 575.953 3159.36 574.04 3159.36 572.567 3159.36 571.45 3159.12 570.69 3158.64 570.286 3158.17 569.882 3157.36 569.644 3156.22 569.573L3156.58 567.826 3165.95 567.826 3166.91 569.608C3165.11 574.551 3162.66 579.838 3159.57 585.47 3156.53 590.983 3153.05 596.473 3149.13 601.938 3145.37 607.142 3142.25 610.909 3139.75 613.237 3138.02 614.829 3136.34 615.97 3134.73 616.659 3133.44 617.182 3132.08 617.443 3130.63 617.443 3130.13 617.443 3129.55 617.402 3128.9 617.319 3128.25 617.235 3127.74 617.123 3127.38 616.98L3128.92 610.065 3131.73 610.065C3131.73 611.586 3132.26 612.346 3133.3 612.346 3134.68 612.346 3136.28 611.485 3138.11 609.762 3139.94 608.039 3142.09 605.443 3144.56 601.974 3143.88 597.815 3142.94 592.801 3141.75 586.932 3140.49 580.658 3139.66 576.773 3139.25 575.276 3138.75 573.47 3138.23 572.317 3137.69 571.818 3137.35 571.51 3136.94 571.355 3136.44 571.355 3135.68 571.355 3134.96 571.664 3134.3 572.282 3133.63 572.9 3132.81 573.969 3131.84 575.49L3129.52 573.957C3131.16 571.51 3132.69 569.781 3134.12 568.771 3135.55 567.761 3137.14 567.256 3138.9 567.256Z" fill-rule="evenodd"/><text fill="#000000" fill-opacity="0" font-family="Arial,Arial_MSFontService,sans-serif" font-size="50.1875" x="3127.38" y="611.17">𝑦</text><path d="M3181.56 583.354C3182.94 583.354 3184.23 583.5 3185.43 583.794 3186.63 584.087 3187.67 584.531 3188.55 585.127 3189.43 585.722 3190.11 586.464 3190.6 587.352 3191.1 588.241 3191.34 589.271 3191.34 590.445 3191.34 591.549 3191.19 592.524 3190.88 593.369 3190.57 594.214 3190.09 594.982 3189.44 595.672 3188.79 596.362 3188 596.988 3187.06 597.548 3186.12 598.109 3185.04 598.648 3183.81 599.166L3183.81 599.476C3184.97 599.683 3186.04 600.016 3187.05 600.473 3188.05 600.93 3188.92 601.508 3189.67 602.207 3190.42 602.905 3191.01 603.712 3191.45 604.626 3191.88 605.541 3192.09 606.55 3192.09 607.654 3192.09 609.034 3191.83 610.315 3191.32 611.497 3190.8 612.679 3190.02 613.701 3188.99 614.564 3187.95 615.426 3186.67 616.099 3185.16 616.582 3183.64 617.065 3181.86 617.307 3179.83 617.307 3178.22 617.307 3176.59 617.147 3174.93 616.828 3173.28 616.509 3171.71 616.091 3170.22 615.573L3170.22 609.983 3173.56 609.983C3173.84 610.846 3174.17 611.583 3174.55 612.196 3174.93 612.808 3175.37 613.309 3175.88 613.697 3176.39 614.085 3176.97 614.365 3177.64 614.538 3178.3 614.71 3179.06 614.797 3179.9 614.797 3182.13 614.797 3183.82 614.266 3184.96 613.205 3186.11 612.144 3186.68 610.535 3186.68 608.379 3186.68 606.084 3185.93 604.346 3184.42 603.164 3182.91 601.982 3180.67 601.391 3177.7 601.391L3175.43 601.391 3175.43 598.907C3177.24 598.821 3178.8 598.566 3180.12 598.144 3181.44 597.721 3182.54 597.173 3183.42 596.5 3184.3 595.827 3184.96 595.042 3185.39 594.145 3185.82 593.248 3186.04 592.291 3186.04 591.273 3186.04 589.617 3185.54 588.31 3184.56 587.352 3183.58 586.395 3182.15 585.916 3180.29 585.916 3178.72 585.916 3177.41 586.347 3176.34 587.21 3175.28 588.072 3174.47 589.358 3173.9 591.066L3170.61 591.066 3170.61 585.968C3172.65 585.105 3174.57 584.454 3176.37 584.014 3178.17 583.574 3179.9 583.354 3181.56 583.354Z" fill-rule="evenodd"/><text fill="#000000" fill-opacity="0" font-family="Arial,Arial_MSFontService,sans-serif" font-size="33.9531" x="3170.22" y="613.063">3</text><path d="M3311.11 547.045 3327 547.045 3327 615.019 3311.11 615.019 3311.11 612.275 3321.09 612.275 3321.09 549.79 3311.11 549.79ZM3208.27 547.045 3224.17 547.045 3224.17 549.79 3214.19 549.79 3214.19 612.275 3224.17 612.275 3224.17 615.019 3208.27 615.019Z" fill-rule="evenodd"/><path d="M3246.02 578.163C3244.27 578.163 3242.79 578.436 3241.59 578.983 3240.39 579.53 3239.41 580.266 3238.66 581.193 3237.91 582.12 3237.38 583.207 3237.06 584.454 3236.74 585.702 3236.58 587.039 3236.58 588.464 3236.58 590.009 3236.76 591.453 3237.11 592.795 3237.47 594.138 3238.03 595.296 3238.81 596.271 3239.58 597.245 3240.57 598.017 3241.78 598.587 3242.99 599.158 3244.47 599.443 3246.2 599.443 3248.15 599.443 3249.82 599.045 3251.21 598.249 3252.6 597.453 3253.66 596.271 3254.38 594.702 3255.11 593.134 3255.47 591.28 3255.47 589.142 3255.47 586.86 3255.08 584.894 3254.29 583.242 3253.51 581.591 3252.4 580.332 3250.98 579.464 3249.55 578.597 3247.9 578.163 3246.02 578.163ZM3246.2 555.707C3243.21 555.707 3240.92 556.521 3239.34 558.149 3237.76 559.776 3236.97 562.087 3236.97 565.082 3236.97 566.484 3237.14 567.802 3237.47 569.038 3237.8 570.274 3238.34 571.343 3239.07 572.246 3239.81 573.149 3240.77 573.868 3241.94 574.403 3243.12 574.937 3244.56 575.205 3246.27 575.205 3248.25 575.205 3249.9 574.818 3251.25 574.046 3252.59 573.274 3253.59 572.145 3254.24 570.66 3254.89 569.175 3255.22 567.458 3255.22 565.509 3255.22 563.371 3254.83 561.559 3254.06 560.074 3253.29 558.588 3252.23 557.489 3250.87 556.776 3249.52 556.064 3247.96 555.707 3246.2 555.707ZM3246.27 552.677C3249.7 552.677 3252.57 553.159 3254.9 554.121 3257.23 555.083 3258.98 556.473 3260.16 558.291 3261.33 560.109 3261.92 562.289 3261.92 564.832 3261.92 567.446 3261.28 569.698 3260 571.587 3258.71 573.476 3256.73 575.015 3254.04 576.203L3254.12 576.666C3256.8 577.712 3258.83 579.238 3260.21 581.246 3261.59 583.254 3262.28 585.672 3262.28 588.5 3262.28 591.28 3261.61 593.728 3260.28 595.843 3258.95 597.958 3257.02 599.591 3254.49 600.744 3251.96 601.896 3249.01 602.473 3245.63 602.473 3242.47 602.473 3239.7 601.944 3237.31 600.887 3234.92 599.829 3233.07 598.284 3231.75 596.253 3230.43 594.221 3229.77 591.827 3229.77 589.07 3229.77 587.003 3230.13 585.209 3230.84 583.688 3231.55 582.167 3232.48 580.914 3233.64 579.928 3234.79 578.941 3236.25 578.044 3238 577.236L3237.93 576.773C3232.82 574.563 3230.27 570.773 3230.27 565.402 3230.27 562.955 3230.94 560.769 3232.28 558.844 3233.63 556.919 3235.54 555.41 3238.02 554.317 3240.5 553.224 3243.26 552.677 3246.27 552.677Z" fill-rule="evenodd"/><text fill="#000000" fill-opacity="0" font-family="Arial,Arial_MSFontService,sans-serif" font-size="49.7954" x="3229.77" y="596.248">8</text><path d="M3277.72 567.22C3279.22 567.22 3280.4 567.713 3281.27 568.7 3282.13 569.686 3282.57 570.975 3282.57 572.567 3282.57 573.826 3282.28 575.228 3281.71 576.773L3282.14 576.916C3284.47 573.636 3286.68 571.207 3288.79 569.626 3290.89 568.046 3293.06 567.256 3295.29 567.256 3297.5 567.256 3299.2 567.892 3300.39 569.163 3301.58 570.434 3302.17 572.199 3302.17 574.456 3302.17 575.953 3301.83 578.08 3301.14 580.836L3298.82 590.175C3298.18 592.766 3297.86 594.595 3297.86 595.665 3297.86 596.615 3298.01 597.304 3298.32 597.732 3298.63 598.16 3299.12 598.374 3299.78 598.374 3300.5 598.374 3301.26 598.083 3302.06 597.5 3302.87 596.918 3304.01 595.807 3305.49 594.168L3307.52 596.164C3305.47 598.35 3303.69 599.948 3302.17 600.958 3300.65 601.968 3298.92 602.473 3296.97 602.473 3295.42 602.473 3294.19 601.92 3293.26 600.815 3292.33 599.71 3291.87 598.302 3291.87 596.591 3291.87 595.047 3292.26 592.777 3293.05 589.783L3294.61 583.617C3295.18 581.383 3295.56 579.732 3295.74 578.662 3295.92 577.593 3296 576.725 3296 576.06 3296 574.42 3295.73 573.238 3295.18 572.513 3294.64 571.789 3293.75 571.426 3292.51 571.426 3291.51 571.426 3290.44 571.824 3289.29 572.62 3288.13 573.417 3286.91 574.617 3285.61 576.221 3284.32 577.825 3283.28 579.381 3282.5 580.89 3281.71 582.399 3281.07 584.258 3280.57 586.468L3277.18 601.902 3271.02 601.902 3276.22 579.304C3276.74 577.023 3277.01 575.264 3277.01 574.028 3277.01 573.078 3276.85 572.389 3276.54 571.961 3276.23 571.533 3275.75 571.319 3275.08 571.319 3274.34 571.319 3273.57 571.622 3272.75 572.228 3271.93 572.834 3270.8 573.933 3269.38 575.525L3267.35 573.529C3269.53 571.248 3271.35 569.626 3272.8 568.664 3274.25 567.701 3275.89 567.22 3277.72 567.22Z" fill-rule="evenodd"/><text fill="#000000" fill-opacity="0" font-family="Arial,Arial_MSFontService,sans-serif" font-size="35.2524" x="3267.35" y="598.066">𝑛</text><rect x="2644.5" y="564.5" width="364" height="165" stroke="#000000" stroke-width="3.4375" stroke-miterlimit="8" fill="none"/><path d="M2715.19 619.416 2733.16 619.416 2732.67 621.617C2731.53 621.856 2730.71 622.126 2730.22 622.425 2729.72 622.725 2729.28 623.174 2728.89 623.773 2728.5 624.372 2728.1 625.308 2727.68 626.581 2727.26 627.853 2726.74 629.927 2726.11 632.802L2723.05 646.548 2747.18 646.548 2750.23 632.757C2750.5 631.53 2750.73 630.219 2750.93 628.827 2751.12 627.434 2751.22 626.334 2751.22 625.525 2751.22 624.117 2750.87 623.137 2750.16 622.583 2749.46 622.029 2748.34 621.707 2746.82 621.617L2747.31 619.416 2765.28 619.416 2764.79 621.617C2763.65 621.856 2762.83 622.126 2762.34 622.425 2761.84 622.725 2761.4 623.174 2761.01 623.773 2760.62 624.372 2760.22 625.308 2759.8 626.581 2759.38 627.853 2758.86 629.927 2758.23 632.802L2750.55 667.662C2750.16 669.429 2749.9 670.829 2749.78 671.862 2749.66 672.895 2749.6 673.831 2749.6 674.669 2749.6 676.017 2749.94 676.968 2750.61 677.522 2751.29 678.076 2752.42 678.413 2754 678.533L2753.51 680.734 2735.54 680.734 2736.04 678.533C2737.17 678.353 2738.03 678.061 2738.6 677.657 2739.17 677.253 2739.64 676.691 2740.03 675.972 2740.42 675.253 2740.78 674.378 2741.11 673.344 2741.44 672.311 2741.94 670.312 2742.59 667.347L2746.28 650.681 2722.15 650.681 2718.43 667.662C2718.1 669.159 2717.86 670.394 2717.71 671.368 2717.56 672.341 2717.48 673.442 2717.48 674.669 2717.48 675.957 2717.78 676.886 2718.38 677.455 2718.98 678.024 2720.15 678.383 2721.89 678.533L2721.39 680.734 2703.42 680.734 2703.92 678.533C2705.05 678.353 2705.91 678.061 2706.48 677.657 2707.05 677.253 2707.52 676.691 2707.91 675.972 2708.3 675.253 2708.66 674.378 2708.99 673.344 2709.32 672.311 2709.82 670.312 2710.47 667.347L2718.11 632.757C2718.38 631.53 2718.61 630.219 2718.81 628.827 2719 627.434 2719.1 626.334 2719.1 625.525 2719.1 624.117 2718.75 623.137 2718.04 622.583 2717.34 622.029 2716.22 621.707 2714.7 621.617Z" fill-rule="evenodd"/><text fill="#000000" fill-opacity="0" font-family="Arial,Arial_MSFontService,sans-serif" font-size="61.3184" x="2703.42" y="673.069">𝐻</text><path d="M2786.1 663.611C2784.2 666.708 2782.32 669.811 2780.45 672.919 2778.59 676.026 2776.71 679.14 2774.81 682.259L2787.41 682.259C2787.3 680.863 2787.19 679.494 2787.08 678.153 2786.97 676.812 2786.88 675.399 2786.82 673.916 2786.75 672.433 2786.69 670.852 2786.64 669.173 2786.58 667.493 2786.56 665.64 2786.56 663.611ZM2785.97 656.447 2791.36 656.447 2794.34 691.026C2794.43 692.139 2794.57 693.076 2794.75 693.84 2794.94 694.603 2795.19 695.236 2795.52 695.737 2795.85 696.239 2796.26 696.62 2796.75 696.882 2797.24 697.144 2797.85 697.329 2798.59 697.438L2798.1 699.434 2783.84 699.434 2784.33 697.438C2784.94 697.329 2785.48 697.193 2785.95 697.029 2786.42 696.866 2786.81 696.593 2787.11 696.212 2787.42 695.83 2787.65 695.312 2787.82 694.658 2787.98 694.003 2788.06 693.153 2788.06 692.106 2788.06 691.713 2788.05 691.261 2788.03 690.748 2788.01 690.236 2787.98 689.696 2787.95 689.129 2787.91 688.562 2787.87 687.978 2787.82 687.379 2787.76 686.779 2787.71 686.195 2787.67 685.628L2773.01 685.628C2772.51 686.37 2772.01 687.133 2771.52 687.918 2771.03 688.703 2770.59 689.472 2770.18 690.225 2769.78 690.977 2769.46 691.724 2769.22 692.466 2768.98 693.207 2768.86 693.938 2768.86 694.658 2768.86 696.25 2770.02 697.177 2772.36 697.438L2771.93 699.434 2757.64 699.434 2758 697.438C2758.58 697.329 2759.11 697.16 2759.58 696.931 2760.05 696.702 2760.54 696.342 2761.05 695.852 2761.57 695.361 2762.12 694.696 2762.72 693.856 2763.32 693.016 2764.05 691.91 2764.9 690.536Z" fill-rule="evenodd"/><text fill="#000000" fill-opacity="0" font-family="Arial,Arial_MSFontService,sans-serif" font-size="42.9873" x="2757.64" y="694.061">𝐴</text><path d="M2849.75 614.205 2856.12 614.205 2856.12 671.39 2868.25 661.687 2870.9 664.517 2854.51 681.408 2851.41 681.408 2835.01 664.697 2837.66 661.687 2849.75 671.39Z" fill-rule="evenodd"/><text fill="#000000" fill-opacity="0" font-family="Arial,Arial_MSFontService,sans-serif" font-size="67.2031" x="2835.01" y="673.007">↓</text><path d="M2925.68 618.697C2931.25 618.697 2935.46 619.917 2938.3 622.358 2941.15 624.799 2942.57 628.34 2942.57 632.982 2942.57 634.569 2942.41 636.029 2942.1 637.362 2941.78 638.695 2941.29 640.012 2940.61 641.315 2939.94 642.618 2939.03 644.018 2937.9 645.515 2936.76 647.013 2935.5 648.532 2934.12 650.075 2932.74 651.617 2930.36 654.185 2926.98 657.779 2921.29 663.798 2917.11 669.054 2914.45 673.546L2931.38 673.546C2932.85 673.546 2934.03 673.457 2934.93 673.277 2935.83 673.097 2936.55 672.798 2937.09 672.378 2937.63 671.959 2938.05 671.413 2938.37 670.739 2938.68 670.065 2939.08 669.024 2939.56 667.617L2943.38 667.617 2942.61 680.734 2905.64 680.734 2905.64 678.578C2906.93 675.433 2908.67 672.214 2910.85 668.919 2913.04 665.625 2916.14 661.747 2920.15 657.285 2923.63 653.451 2926.13 650.546 2927.65 648.57 2929.33 646.414 2930.58 644.549 2931.4 642.977 2932.23 641.405 2932.82 639.922 2933.18 638.53 2933.54 637.137 2933.72 635.737 2933.72 634.33 2933.72 632.084 2933.36 630.099 2932.64 628.378 2931.92 626.656 2930.82 625.3 2929.34 624.312 2927.86 623.324 2925.99 622.83 2923.75 622.83 2918.15 622.83 2914.37 625.944 2912.43 632.173L2906.99 632.173 2906.99 623.548C2910.61 621.841 2914.01 620.606 2917.16 619.842 2920.32 619.079 2923.16 618.697 2925.68 618.697Z" fill-rule="evenodd"/><text fill="#000000" fill-opacity="0" font-family="Arial,Arial_MSFontService,sans-serif" font-size="62.0371" x="2905.64" y="672.979">2</text><path d="M4.16298e-06-1.71875 126.083-1.71844 126.083 1.71906-4.16298e-06 1.71875ZM121.5-13.7497 149 0.000360892 121.5 13.7503Z" transform="matrix(1 0 0 -1 3008.5 883.5)"/><path d="M3140.3 803.484C3141.27 803.484 3142.11 803.615 3142.8 803.876 3143.27 804.066 3143.75 804.381 3144.22 804.821 3144.7 805.26 3145.12 805.872 3145.49 806.657 3145.85 807.441 3146.18 808.32 3146.45 809.294 3146.72 810.269 3147.02 811.671 3147.36 813.5 3147.93 816.566 3148.48 819.792 3149.02 823.178 3149.55 826.564 3150.01 829.707 3150.39 832.606 3152.69 829.279 3154.65 826.023 3156.25 822.839 3157.85 819.655 3159.01 816.887 3159.71 814.534 3160.41 812.181 3160.76 810.269 3160.76 808.795 3160.76 807.678 3160.52 806.918 3160.05 806.514 3159.57 806.11 3158.76 805.872 3157.62 805.801L3157.98 804.055 3167.35 804.055 3168.32 805.837C3166.51 810.779 3164.06 816.067 3160.97 821.699 3157.93 827.212 3154.45 832.701 3150.53 838.166 3146.78 843.37 3143.65 847.137 3141.16 849.466 3139.42 851.058 3137.75 852.198 3136.13 852.888 3134.85 853.41 3133.48 853.672 3132.03 853.672 3131.53 853.672 3130.96 853.63 3130.3 853.547 3129.65 853.464 3129.14 853.351 3128.79 853.208L3130.32 846.293 3133.14 846.293C3133.14 847.814 3133.66 848.575 3134.7 848.575 3136.08 848.575 3137.69 847.713 3139.52 845.99 3141.35 844.267 3143.5 841.671 3145.97 838.202 3145.28 834.043 3144.34 829.029 3143.15 823.16 3141.89 816.887 3141.06 813.001 3140.66 811.504 3140.16 809.698 3139.63 808.546 3139.09 808.047 3138.76 807.738 3138.34 807.583 3137.84 807.583 3137.08 807.583 3136.37 807.892 3135.7 808.51 3135.04 809.128 3134.22 810.197 3133.24 811.718L3130.93 810.185C3132.57 807.738 3134.1 806.009 3135.52 804.999 3136.95 803.989 3138.54 803.484 3140.3 803.484Z" fill-rule="evenodd"/><text fill="#000000" fill-opacity="0" font-family="Arial,Arial_MSFontService,sans-serif" font-size="50.1875" x="3128.79" y="847.398">𝑦</text><path d="M3181.09 826C3179.43 828.398 3177.78 830.779 3176.14 833.143 3174.49 835.506 3172.83 837.878 3171.15 840.259L3171.15 840.57 3181.09 840.57 3181.09 835.368C3181.09 834.782 3181.1 834.057 3181.12 833.194 3181.13 832.332 3181.16 831.456 3181.18 830.568 3181.21 829.679 3181.24 828.834 3181.27 828.032 3181.31 827.229 3181.34 826.552 3181.38 826ZM3181.84 819.944 3185.96 819.944 3185.96 840.57 3186.42 840.57C3187.13 840.57 3187.7 840.535 3188.14 840.466 3188.58 840.397 3188.94 840.255 3189.2 840.039 3189.47 839.824 3189.7 839.522 3189.88 839.134 3190.06 838.745 3190.25 838.241 3190.46 837.62L3192.66 837.62C3192.61 838.569 3192.55 839.509 3192.49 840.44 3192.43 841.372 3192.37 842.321 3192.32 843.287L3185.96 843.287 3185.96 846.677C3185.96 847.678 3185.98 848.454 3186.02 849.006 3186.06 849.558 3186.19 849.99 3186.41 850.3 3186.62 850.611 3186.94 850.844 3187.37 850.999 3187.79 851.154 3188.38 851.336 3189.14 851.543L3189.14 853.095 3177.96 853.095 3177.96 851.543C3178.48 851.405 3178.92 851.279 3179.28 851.167 3179.64 851.055 3179.94 850.926 3180.19 850.779 3180.43 850.632 3180.6 850.46 3180.72 850.262 3180.83 850.063 3180.91 849.813 3180.97 849.511 3181.03 849.209 3181.07 848.83 3181.08 848.372 3181.09 847.915 3181.09 847.35 3181.09 846.677L3181.09 843.287 3166.52 843.287 3166.52 841.243C3169.09 837.671 3171.65 834.122 3174.18 830.594 3176.72 827.065 3179.27 823.516 3181.84 819.944Z" fill-rule="evenodd"/><text fill="#000000" fill-opacity="0" font-family="Arial,Arial_MSFontService,sans-serif" font-size="33.1509" x="3166.52" y="848.951">4</text><path d="M3309.37 783.273 3325.27 783.273 3325.27 851.247 3309.37 851.247 3309.37 848.503 3319.35 848.503 3319.35 786.018 3309.37 786.018ZM3206.54 783.273 3222.43 783.273 3222.43 786.018 3212.45 786.018 3212.45 848.503 3222.43 848.503 3222.43 851.247 3206.54 851.247Z" fill-rule="evenodd"/><path d="M3244.29 814.391C3242.53 814.391 3241.05 814.665 3239.85 815.211 3238.65 815.758 3237.68 816.494 3236.93 817.421 3236.18 818.348 3235.64 819.435 3235.32 820.683 3235 821.93 3234.84 823.267 3234.84 824.693 3234.84 826.237 3235.02 827.681 3235.38 829.023 3235.73 830.366 3236.3 831.525 3237.07 832.499 3237.84 833.473 3238.83 834.245 3240.05 834.816 3241.26 835.386 3242.73 835.671 3244.47 835.671 3246.41 835.671 3248.08 835.273 3249.47 834.477 3250.86 833.681 3251.92 832.499 3252.65 830.93 3253.37 829.362 3253.73 827.509 3253.73 825.37 3253.73 823.089 3253.34 821.122 3252.56 819.471 3251.77 817.819 3250.67 816.56 3249.24 815.692 3247.82 814.825 3246.16 814.391 3244.29 814.391ZM3244.47 791.935C3241.47 791.935 3239.18 792.749 3237.6 794.377 3236.02 796.005 3235.23 798.316 3235.23 801.31 3235.23 802.712 3235.4 804.031 3235.73 805.266 3236.07 806.502 3236.6 807.571 3237.34 808.474 3238.07 809.377 3239.03 810.096 3240.21 810.631 3241.38 811.166 3242.83 811.433 3244.54 811.433 3246.51 811.433 3248.17 811.047 3249.51 810.274 3250.85 809.502 3251.85 808.373 3252.5 806.888 3253.16 805.403 3253.48 803.686 3253.48 801.738 3253.48 799.599 3253.1 797.787 3252.33 796.302 3251.55 794.817 3250.49 793.718 3249.14 793.005 3247.78 792.292 3246.22 791.935 3244.47 791.935ZM3244.54 788.906C3247.96 788.906 3250.83 789.387 3253.16 790.349 3255.49 791.312 3257.24 792.702 3258.42 794.52 3259.6 796.337 3260.18 798.518 3260.18 801.06 3260.18 803.674 3259.54 805.926 3258.26 807.815 3256.98 809.704 3254.99 811.243 3252.31 812.431L3252.38 812.894C3255.06 813.94 3257.1 815.467 3258.47 817.475 3259.85 819.483 3260.54 821.901 3260.54 824.728 3260.54 827.509 3259.88 829.956 3258.55 832.071 3257.21 834.186 3255.28 835.82 3252.75 836.972 3250.22 838.125 3247.27 838.701 3243.9 838.701 3240.73 838.701 3237.96 838.172 3235.57 837.115 3233.18 836.057 3231.33 834.513 3230.01 832.481 3228.69 830.449 3228.03 828.055 3228.03 825.299 3228.03 823.231 3228.39 821.437 3229.1 819.916 3229.82 818.396 3230.75 817.142 3231.9 816.156 3233.05 815.17 3234.51 814.273 3236.27 813.465L3236.2 813.001C3231.09 810.791 3228.53 807.001 3228.53 801.631 3228.53 799.183 3229.2 796.997 3230.55 795.072 3231.89 793.147 3233.8 791.638 3236.29 790.545 3238.77 789.452 3241.52 788.906 3244.54 788.906Z" fill-rule="evenodd"/><text fill="#000000" fill-opacity="0" font-family="Arial,Arial_MSFontService,sans-serif" font-size="49.7954" x="3228.03" y="832.477">8</text><path d="M3275.98 803.449C3277.48 803.449 3278.66 803.942 3279.53 804.928 3280.4 805.914 3280.83 807.203 3280.83 808.795 3280.83 810.055 3280.54 811.457 3279.97 813.001L3280.4 813.144C3282.73 809.865 3284.95 807.435 3287.05 805.855 3289.15 804.274 3291.32 803.484 3293.55 803.484 3295.76 803.484 3297.46 804.12 3298.65 805.391 3299.84 806.662 3300.43 808.427 3300.43 810.684 3300.43 812.181 3300.09 814.308 3299.4 817.065L3297.08 826.404C3296.44 828.994 3296.12 830.824 3296.12 831.893 3296.12 832.843 3296.28 833.533 3296.58 833.96 3296.89 834.388 3297.38 834.602 3298.05 834.602 3298.76 834.602 3299.52 834.311 3300.33 833.729 3301.14 833.146 3302.28 832.035 3303.75 830.396L3305.78 832.392C3303.74 834.578 3301.95 836.176 3300.43 837.186 3298.91 838.196 3297.18 838.701 3295.23 838.701 3293.69 838.701 3292.45 838.148 3291.52 837.044 3290.6 835.939 3290.13 834.531 3290.13 832.82 3290.13 831.275 3290.52 829.006 3291.31 826.012L3292.88 819.845C3293.45 817.611 3293.82 815.96 3294 814.89 3294.18 813.821 3294.27 812.954 3294.27 812.288 3294.27 810.649 3293.99 809.467 3293.45 808.742 3292.9 808.017 3292.01 807.655 3290.77 807.655 3289.78 807.655 3288.7 808.053 3287.55 808.849 3286.4 809.645 3285.17 810.845 3283.88 812.449 3282.58 814.053 3281.54 815.609 3280.76 817.118 3279.97 818.627 3279.33 820.487 3278.83 822.697L3275.45 838.131 3269.28 838.131 3274.48 815.532C3275.01 813.251 3275.27 811.492 3275.27 810.257 3275.27 809.306 3275.11 808.617 3274.81 808.189 3274.5 807.762 3274.01 807.548 3273.34 807.548 3272.61 807.548 3271.83 807.851 3271.01 808.457 3270.19 809.063 3269.07 810.162 3267.64 811.754L3265.61 809.758C3267.8 807.476 3269.61 805.855 3271.06 804.892 3272.51 803.93 3274.15 803.449 3275.98 803.449Z" fill-rule="evenodd"/><text fill="#000000" fill-opacity="0" font-family="Arial,Arial_MSFontService,sans-serif" font-size="35.2524" x="3265.61" y="834.294">𝑛</text></g></svg>