<svg width="2929" height="952" xmlns="http://www.w3.org/2000/svg" xmlns:xlink="http://www.w3.org/1999/xlink" overflow="hidden"><defs><clipPath id="clip0"><rect x="896" y="1293" width="2929" height="952"/></clipPath></defs><g clip-path="url(#clip0)" transform="translate(-896 -1293)"><rect x="2850.5" y="1601.5" width="364" height="165" stroke="#000000" stroke-width="3.4375" stroke-miterlimit="8" fill="none"/><path d="M2929.48 1656.61 2947.45 1656.61 2946.95 1658.81C2945.82 1659.05 2945 1659.32 2944.51 1659.62 2944.01 1659.92 2943.57 1660.37 2943.18 1660.97 2942.79 1661.56 2942.39 1662.5 2941.97 1663.77 2941.55 1665.05 2941.02 1667.12 2940.4 1669.99L2930.78 1713.79 2941.83 1713.79C2943.84 1713.79 2945.42 1713.6 2946.57 1713.21 2947.73 1712.82 2948.82 1712.11 2949.85 1711.08 2950.89 1710.04 2951.9 1708.64 2952.88 1706.88 2953.87 1705.11 2954.88 1702.91 2955.89 1700.27L2960.25 1700.27 2955.71 1717.93 2917.71 1717.93 2918.2 1715.72C2919.34 1715.55 2920.2 1715.25 2920.77 1714.85 2921.33 1714.44 2921.81 1713.88 2922.2 1713.16 2922.59 1712.45 2922.95 1711.57 2923.28 1710.54 2923.61 1709.5 2924.1 1707.5 2924.76 1704.54L2932.4 1669.95C2933.06 1666.95 2933.39 1664.54 2933.39 1662.72 2933.39 1661.31 2933.04 1660.33 2932.33 1659.77 2931.63 1659.22 2930.51 1658.9 2928.99 1658.81Z" fill-rule="evenodd"/><text fill="#000000" fill-opacity="0" font-family="Arial,Arial_MSFontService,sans-serif" font-size="61.3184" x="2917.71" y="1710.26">𝐿</text><path d="M2985.48 1693.57C2987.55 1693.57 2989.54 1693.73 2991.45 1694.05 2993.36 1694.36 2995.36 1694.87 2997.45 1695.57L2995.59 1703.88 2992.02 1703.88C2991.95 1702.66 2991.76 1701.6 2991.45 1700.72 2991.13 1699.84 2990.69 1699.12 2990.12 1698.56 2989.56 1698.01 2988.84 1697.59 2987.96 1697.32 2987.09 1697.05 2986.05 1696.91 2984.86 1696.91 2983.57 1696.91 2982.4 1697.08 2981.35 1697.43 2980.31 1697.78 2979.41 1698.28 2978.67 1698.92 2977.93 1699.57 2977.36 1700.34 2976.95 1701.24 2976.55 1702.15 2976.35 1703.14 2976.35 1704.21 2976.35 1705.01 2976.45 1705.75 2976.64 1706.43 2976.84 1707.11 2977.18 1707.76 2977.66 1708.39 2978.14 1709.03 2978.8 1709.67 2979.64 1710.32 2980.48 1710.98 2981.54 1711.7 2982.83 1712.48 2984.4 1713.46 2985.74 1714.39 2986.87 1715.26 2987.99 1716.14 2988.91 1717.04 2989.62 1717.98 2990.32 1718.92 2990.84 1719.91 2991.17 1720.97 2991.5 1722.03 2991.66 1723.21 2991.66 1724.52 2991.66 1726.42 2991.28 1728.15 2990.53 1729.72 2989.78 1731.29 2988.71 1732.65 2987.33 1733.78 2985.94 1734.91 2984.28 1735.79 2982.35 1736.41 2980.42 1737.03 2978.27 1737.35 2975.89 1737.35 2973.88 1737.35 2971.73 1737.18 2969.41 1736.84 2967.1 1736.5 2964.82 1736 2962.58 1735.35L2964.51 1726.52 2967.97 1726.52C2968.04 1729.13 2968.74 1731.03 2970.07 1732.21 2971.4 1733.39 2973.45 1733.98 2976.22 1733.98 2977.64 1733.98 2978.91 1733.79 2980.05 1733.42 2981.18 1733.05 2982.14 1732.51 2982.93 1731.82 2983.71 1731.12 2984.31 1730.27 2984.72 1729.27 2985.14 1728.26 2985.35 1727.14 2985.35 1725.9 2985.35 1725.02 2985.24 1724.23 2985.02 1723.52 2984.8 1722.81 2984.42 1722.11 2983.87 1721.41 2983.33 1720.72 2982.59 1720.01 2981.67 1719.29 2980.74 1718.57 2979.59 1717.78 2978.21 1716.93 2976.84 1716.08 2975.65 1715.24 2974.63 1714.4 2973.62 1713.56 2972.77 1712.68 2972.1 1711.78 2971.42 1710.87 2970.91 1709.93 2970.58 1708.95 2970.24 1707.97 2970.07 1706.92 2970.07 1705.81 2970.07 1703.98 2970.43 1702.31 2971.15 1700.82 2971.87 1699.33 2972.9 1698.04 2974.24 1696.96 2975.58 1695.88 2977.21 1695.05 2979.11 1694.46 2981.02 1693.87 2983.14 1693.57 2985.48 1693.57Z" fill-rule="evenodd"/><text fill="#000000" fill-opacity="0" font-family="Arial,Arial_MSFontService,sans-serif" font-size="43.7725" x="2962.58" y="1731.87">𝑆</text><path d="M3049.04 1651.4 3052.14 1651.4 3068.53 1668.11 3065.88 1670.94 3053.8 1661.41 3053.8 1718.64 3047.42 1718.64 3047.42 1661.41 3035.33 1670.94 3032.68 1668.11Z" fill-rule="evenodd"/><text fill="#000000" fill-opacity="0" font-family="Arial,Arial_MSFontService,sans-serif" font-size="67.248" x="3032.68" y="1710.24">↑</text><path d="M3123.3 1655.89C3128.88 1655.89 3133.08 1657.11 3135.93 1659.55 3138.77 1661.99 3140.2 1665.53 3140.2 1670.17 3140.2 1671.76 3140.04 1673.22 3139.72 1674.55 3139.41 1675.89 3138.92 1677.2 3138.24 1678.51 3137.57 1679.81 3136.66 1681.21 3135.52 1682.71 3134.39 1684.2 3133.13 1685.72 3131.75 1687.27 3130.37 1688.81 3127.99 1691.38 3124.61 1694.97 3118.92 1700.99 3114.74 1706.25 3112.07 1710.74L3129.01 1710.74C3130.48 1710.74 3131.66 1710.65 3132.56 1710.47 3133.46 1710.29 3134.18 1709.99 3134.72 1709.57 3135.25 1709.15 3135.68 1708.6 3136 1707.93 3136.31 1707.26 3136.71 1706.22 3137.19 1704.81L3141 1704.81 3140.24 1717.93 3103.27 1717.93 3103.27 1715.77C3104.56 1712.63 3106.29 1709.41 3108.48 1706.11 3110.67 1702.82 3113.77 1698.94 3117.78 1694.48 3121.25 1690.64 3123.75 1687.74 3125.28 1685.76 3126.96 1683.61 3128.21 1681.74 3129.03 1680.17 3129.86 1678.6 3130.45 1677.11 3130.81 1675.72 3131.17 1674.33 3131.35 1672.93 3131.35 1671.52 3131.35 1669.28 3130.99 1667.29 3130.27 1665.57 3129.55 1663.85 3128.45 1662.49 3126.97 1661.5 3125.48 1660.52 3123.62 1660.02 3121.37 1660.02 3115.77 1660.02 3112 1663.14 3110.05 1669.37L3104.62 1669.37 3104.62 1660.74C3108.24 1659.03 3111.63 1657.8 3114.79 1657.03 3117.95 1656.27 3120.79 1655.89 3123.3 1655.89Z" fill-rule="evenodd"/><text fill="#000000" fill-opacity="0" font-family="Arial,Arial_MSFontService,sans-serif" font-size="62.0371" x="3103.27" y="1710.17">2</text><rect x="2850.5" y="1354.5" width="364" height="165" stroke="#000000" stroke-width="3.4375" stroke-miterlimit="8" fill="none"/><path d="M2923.27 1409.11 2941.24 1409.11 2940.74 1411.31C2939.61 1411.55 2938.79 1411.82 2938.3 1412.12 2937.8 1412.42 2937.36 1412.87 2936.97 1413.47 2936.58 1414.06 2936.18 1415 2935.76 1416.27 2935.34 1417.55 2934.81 1419.62 2934.19 1422.49L2931.13 1436.24 2955.25 1436.24 2958.31 1422.45C2958.58 1421.22 2958.81 1419.91 2959 1418.52 2959.2 1417.13 2959.3 1416.03 2959.3 1415.22 2959.3 1413.81 2958.95 1412.83 2958.24 1412.27 2957.54 1411.72 2956.42 1411.4 2954.89 1411.31L2955.39 1409.11 2973.36 1409.11 2972.86 1411.31C2971.73 1411.55 2970.91 1411.82 2970.42 1412.12 2969.92 1412.42 2969.48 1412.87 2969.09 1413.47 2968.7 1414.06 2968.3 1415 2967.88 1416.27 2967.46 1417.55 2966.93 1419.62 2966.3 1422.49L2958.62 1457.35C2958.23 1459.12 2957.98 1460.52 2957.86 1461.55 2957.74 1462.59 2957.68 1463.52 2957.68 1464.36 2957.68 1465.71 2958.02 1466.66 2958.69 1467.21 2959.36 1467.77 2960.49 1468.11 2962.08 1468.22L2961.59 1470.43 2943.62 1470.43 2944.11 1468.22C2945.25 1468.05 2946.1 1467.75 2946.67 1467.35 2947.24 1466.94 2947.72 1466.38 2948.11 1465.66 2948.5 1464.95 2948.86 1464.07 2949.19 1463.04 2949.52 1462 2950.01 1460 2950.67 1457.04L2954.36 1440.37 2930.23 1440.37 2926.5 1457.35C2926.17 1458.85 2925.93 1460.09 2925.79 1461.06 2925.64 1462.03 2925.56 1463.13 2925.56 1464.36 2925.56 1465.65 2925.86 1466.58 2926.46 1467.15 2927.06 1467.72 2928.23 1468.08 2929.96 1468.22L2929.47 1470.43 2911.5 1470.43 2911.99 1468.22C2913.13 1468.05 2913.99 1467.75 2914.55 1467.35 2915.12 1466.94 2915.6 1466.38 2915.99 1465.66 2916.38 1464.95 2916.74 1464.07 2917.07 1463.04 2917.4 1462 2917.89 1460 2918.55 1457.04L2926.19 1422.45C2926.46 1421.22 2926.69 1419.91 2926.89 1418.52 2927.08 1417.13 2927.18 1416.03 2927.18 1415.22 2927.18 1413.81 2926.83 1412.83 2926.12 1412.27 2925.42 1411.72 2924.3 1411.4 2922.78 1411.31Z" fill-rule="evenodd"/><text fill="#000000" fill-opacity="0" font-family="Arial,Arial_MSFontService,sans-serif" font-size="61.3184" x="2911.5" y="1462.76">𝐻</text><path d="M2991.66 1446.07C2993.74 1446.07 2995.73 1446.23 2997.63 1446.55 2999.54 1446.86 3001.54 1447.37 3003.64 1448.07L3001.77 1456.38 2998.21 1456.38C2998.14 1455.16 2997.95 1454.1 2997.63 1453.22 2997.32 1452.34 2996.88 1451.62 2996.31 1451.06 2995.74 1450.51 2995.02 1450.09 2994.15 1449.82 2993.28 1449.55 2992.24 1449.41 2991.04 1449.41 2989.76 1449.41 2988.59 1449.58 2987.54 1449.93 2986.5 1450.28 2985.6 1450.78 2984.86 1451.42 2984.12 1452.07 2983.55 1452.84 2983.14 1453.74 2982.74 1454.65 2982.54 1455.64 2982.54 1456.71 2982.54 1457.51 2982.64 1458.25 2982.83 1458.93 2983.03 1459.61 2983.37 1460.26 2983.85 1460.89 2984.33 1461.53 2984.99 1462.17 2985.82 1462.82 2986.66 1463.48 2987.73 1464.2 2989.01 1464.98 2990.58 1465.96 2991.93 1466.89 2993.05 1467.76 2994.18 1468.64 2995.09 1469.54 2995.8 1470.48 2996.51 1471.42 2997.03 1472.41 2997.36 1473.47 2997.68 1474.53 2997.85 1475.71 2997.85 1477.02 2997.85 1478.92 2997.47 1480.65 2996.72 1482.22 2995.97 1483.79 2994.9 1485.15 2993.51 1486.28 2992.13 1487.41 2990.47 1488.29 2988.54 1488.91 2986.61 1489.53 2984.46 1489.85 2982.08 1489.85 2980.07 1489.85 2977.91 1489.68 2975.6 1489.34 2973.29 1489 2971.01 1488.5 2968.76 1487.85L2970.69 1479.02 2974.16 1479.02C2974.23 1481.63 2974.93 1483.53 2976.26 1484.71 2977.59 1485.89 2979.64 1486.48 2982.41 1486.48 2983.82 1486.48 2985.1 1486.29 2986.23 1485.92 2987.37 1485.55 2988.33 1485.01 2989.11 1484.32 2989.9 1483.62 2990.5 1482.77 2990.91 1481.77 2991.33 1480.76 2991.53 1479.64 2991.53 1478.4 2991.53 1477.52 2991.42 1476.73 2991.21 1476.02 2990.99 1475.31 2990.61 1474.61 2990.06 1473.91 2989.52 1473.22 2988.78 1472.51 2987.85 1471.79 2986.93 1471.07 2985.78 1470.28 2984.4 1469.43 2983.03 1468.58 2981.83 1467.74 2980.82 1466.9 2979.81 1466.06 2978.96 1465.18 2978.28 1464.28 2977.61 1463.37 2977.1 1462.43 2976.76 1461.45 2976.42 1460.47 2976.26 1459.42 2976.26 1458.31 2976.26 1456.48 2976.62 1454.81 2977.34 1453.32 2978.05 1451.83 2979.09 1450.54 2980.43 1449.46 2981.77 1448.38 2983.39 1447.55 2985.3 1446.96 2987.21 1446.37 2989.33 1446.07 2991.66 1446.07Z" fill-rule="evenodd"/><text fill="#000000" fill-opacity="0" font-family="Arial,Arial_MSFontService,sans-serif" font-size="43.7725" x="2968.76" y="1484.37">𝑆</text><path d="M3055.22 1403.9 3058.32 1403.9 3074.72 1420.61 3072.07 1423.44 3059.99 1413.91 3059.99 1471.14 3053.61 1471.14 3053.61 1413.91 3041.52 1423.44 3038.87 1420.61Z" fill-rule="evenodd"/><text fill="#000000" fill-opacity="0" font-family="Arial,Arial_MSFontService,sans-serif" font-size="67.248" x="3038.87" y="1462.74">↑</text><path d="M3129.49 1408.39C3135.06 1408.39 3139.27 1409.61 3142.12 1412.05 3144.96 1414.49 3146.38 1418.03 3146.38 1422.67 3146.38 1424.26 3146.23 1425.72 3145.91 1427.05 3145.6 1428.39 3145.1 1429.7 3144.43 1431.01 3143.76 1432.31 3142.85 1433.71 3141.71 1435.21 3140.57 1436.7 3139.32 1438.22 3137.94 1439.77 3136.56 1441.31 3134.18 1443.88 3130.8 1447.47 3125.1 1453.49 3120.93 1458.75 3118.26 1463.24L3135.2 1463.24C3136.67 1463.24 3137.85 1463.15 3138.75 1462.97 3139.64 1462.79 3140.36 1462.49 3140.9 1462.07 3141.44 1461.65 3141.87 1461.1 3142.18 1460.43 3142.5 1459.76 3142.89 1458.72 3143.37 1457.31L3147.19 1457.31 3146.43 1470.43 3109.46 1470.43 3109.46 1468.27C3110.75 1465.13 3112.48 1461.91 3114.67 1458.61 3116.85 1455.32 3119.95 1451.44 3123.97 1446.98 3127.44 1443.14 3129.94 1440.24 3131.47 1438.26 3133.15 1436.11 3134.4 1434.24 3135.22 1432.67 3136.04 1431.1 3136.64 1429.61 3136.99 1428.22 3137.35 1426.83 3137.53 1425.43 3137.53 1424.02 3137.53 1421.78 3137.17 1419.79 3136.46 1418.07 3135.74 1416.35 3134.64 1414.99 3133.15 1414 3131.67 1413.02 3129.81 1412.52 3127.56 1412.52 3121.96 1412.52 3118.19 1415.64 3116.24 1421.87L3110.8 1421.87 3110.8 1413.24C3114.43 1411.53 3117.82 1410.3 3120.98 1409.53 3124.14 1408.77 3126.98 1408.39 3129.49 1408.39Z" fill-rule="evenodd"/><text fill="#000000" fill-opacity="0" font-family="Arial,Arial_MSFontService,sans-serif" font-size="62.0371" x="3109.46" y="1462.67">2</text><path d="M4.13523e-06-1.71875 127.083-1.71844 127.083 1.71906-4.13523e-06 1.71875ZM122.5-13.7497 150 0.000360892 122.5 13.7503Z" transform="matrix(1 0 0 -1 3216.5 1438.5)"/><path d="M0 0 227 0.000360892" stroke="#000000" stroke-width="3.4375" stroke-linejoin="round" stroke-miterlimit="10" fill="none" fill-rule="evenodd" transform="matrix(1 0 0 -1 3220.5 1682.5)"/><path d="M3630.25 1357.69C3631.22 1357.69 3632.05 1357.82 3632.74 1358.08 3633.22 1358.27 3633.69 1358.59 3634.17 1359.03 3634.64 1359.47 3635.07 1360.08 3635.43 1360.86 3635.8 1361.65 3636.12 1362.53 3636.4 1363.5 3636.67 1364.47 3636.97 1365.88 3637.31 1367.71 3637.88 1370.77 3638.43 1374 3638.96 1377.38 3639.5 1380.77 3639.95 1383.91 3640.33 1386.81 3642.64 1383.48 3644.59 1380.23 3646.2 1377.04 3647.8 1373.86 3648.96 1371.09 3649.66 1368.74 3650.36 1366.39 3650.71 1364.47 3650.71 1363 3650.71 1361.88 3650.47 1361.12 3649.99 1360.72 3649.52 1360.32 3648.71 1360.08 3647.57 1360.01L3647.93 1358.26 3657.3 1358.26 3658.26 1360.04C3656.46 1364.98 3654.01 1370.27 3650.92 1375.9 3647.88 1381.42 3644.4 1386.91 3640.48 1392.37 3636.72 1397.58 3633.6 1401.34 3631.1 1403.67 3629.37 1405.26 3627.69 1406.4 3626.08 1407.09 3624.79 1407.62 3623.43 1407.88 3621.98 1407.88 3621.48 1407.88 3620.9 1407.84 3620.25 1407.75 3619.6 1407.67 3619.09 1407.56 3618.73 1407.41L3620.27 1400.5 3623.08 1400.5C3623.08 1402.02 3623.61 1402.78 3624.65 1402.78 3626.03 1402.78 3627.63 1401.92 3629.46 1400.2 3631.29 1398.47 3633.44 1395.88 3635.92 1392.41 3635.23 1388.25 3634.29 1383.23 3633.1 1377.37 3631.84 1371.09 3631.01 1367.21 3630.6 1365.71 3630.1 1363.9 3629.58 1362.75 3629.04 1362.25 3628.7 1361.94 3628.29 1361.79 3627.79 1361.79 3627.03 1361.79 3626.31 1362.1 3625.65 1362.72 3624.98 1363.33 3624.16 1364.4 3623.19 1365.92L3620.87 1364.39C3622.51 1361.94 3624.05 1360.21 3625.47 1359.2 3626.9 1358.19 3628.49 1357.69 3630.25 1357.69Z" fill-rule="evenodd"/><text fill="#000000" fill-opacity="0" font-family="Arial,Arial_MSFontService,sans-serif" font-size="50.1875" x="3618.73" y="1401.6">𝑦</text><path d="M3731.28 1337.48 3747.18 1337.48 3747.18 1405.45 3731.28 1405.45 3731.28 1402.71 3741.26 1402.71 3741.26 1340.22 3731.28 1340.22ZM3669.12 1337.48 3685.02 1337.48 3685.02 1340.22 3675.04 1340.22 3675.04 1402.71 3685.02 1402.71 3685.02 1405.45 3669.12 1405.45Z" fill-rule="evenodd"/><path d="M3697.89 1357.65C3699.39 1357.65 3700.57 1358.15 3701.44 1359.13 3702.3 1360.12 3702.74 1361.41 3702.74 1363 3702.74 1364.26 3702.45 1365.66 3701.88 1367.21L3702.31 1367.35C3704.64 1364.07 3706.85 1361.64 3708.96 1360.06 3711.06 1358.48 3713.23 1357.69 3715.46 1357.69 3717.67 1357.69 3719.37 1358.33 3720.56 1359.6 3721.75 1360.87 3722.34 1362.63 3722.34 1364.89 3722.34 1366.39 3722 1368.51 3721.31 1371.27L3718.99 1380.61C3718.35 1383.2 3718.03 1385.03 3718.03 1386.1 3718.03 1387.05 3718.18 1387.74 3718.49 1388.17 3718.8 1388.59 3719.29 1388.81 3719.95 1388.81 3720.67 1388.81 3721.43 1388.52 3722.24 1387.93 3723.04 1387.35 3724.18 1386.24 3725.66 1384.6L3727.69 1386.6C3725.65 1388.78 3723.86 1390.38 3722.34 1391.39 3720.82 1392.4 3719.09 1392.91 3717.14 1392.91 3715.59 1392.91 3714.36 1392.35 3713.43 1391.25 3712.5 1390.14 3712.04 1388.74 3712.04 1387.03 3712.04 1385.48 3712.43 1383.21 3713.22 1380.22L3714.79 1374.05C3715.36 1371.82 3715.73 1370.17 3715.91 1369.1 3716.09 1368.03 3716.18 1367.16 3716.18 1366.49 3716.18 1364.85 3715.9 1363.67 3715.36 1362.95 3714.81 1362.22 3713.92 1361.86 3712.68 1361.86 3711.68 1361.86 3710.61 1362.26 3709.46 1363.05 3708.3 1363.85 3707.08 1365.05 3705.79 1366.65 3704.49 1368.26 3703.45 1369.81 3702.67 1371.32 3701.88 1372.83 3701.24 1374.69 3700.74 1376.9L3697.36 1392.34 3691.19 1392.34 3696.39 1369.74C3696.92 1367.46 3697.18 1365.7 3697.18 1364.46 3697.18 1363.51 3697.02 1362.82 3696.71 1362.39 3696.4 1361.97 3695.92 1361.75 3695.25 1361.75 3694.52 1361.75 3693.74 1362.06 3692.92 1362.66 3692.1 1363.27 3690.97 1364.37 3689.55 1365.96L3687.52 1363.96C3689.7 1361.68 3691.52 1360.06 3692.97 1359.1 3694.42 1358.14 3696.06 1357.65 3697.89 1357.65Z" fill-rule="evenodd"/><text fill="#000000" fill-opacity="0" font-family="Arial,Arial_MSFontService,sans-serif" font-size="35.2524" x="3687.52" y="1388.5">𝑛</text><path d="M3448.66 1414.58 3454.41 1414.58 3454.41 1437.92 3476.5 1437.92 3476.5 1443.31 3454.41 1443.31 3454.41 1466.65 3448.66 1466.65 3448.66 1443.31 3426.57 1443.31 3426.57 1437.92 3448.66 1437.92Z" fill-rule="evenodd"/><text fill="#000000" fill-opacity="0" font-family="Arial,Arial_MSFontService,sans-serif" font-size="52.0776" x="3426.57" y="1460.15">+</text><path d="M3361.5 1441C3361.5 1395.44 3398.44 1358.5 3444 1358.5 3489.56 1358.5 3526.5 1395.44 3526.5 1441 3526.5 1486.56 3489.56 1523.5 3444 1523.5 3398.44 1523.5 3361.5 1486.56 3361.5 1441Z" stroke="#000000" stroke-width="3.4375" stroke-linejoin="round" stroke-miterlimit="10" fill="none" fill-rule="evenodd"/><path d="M1.71875-4.00183e-06 1.71906 132.083-1.71844 132.083-1.71875 4.00183e-06ZM13.7503 127.5 0.000360892 155-13.7497 127.5Z" transform="matrix(1 0 0 -1 3448.5 1679.5)"/><path d="M4.13522e-06-1.71875 127.084-1.71844 127.084 1.71906-4.13522e-06 1.71875ZM122.5-13.7497 150 0.000360892 122.5 13.7503Z" transform="matrix(1 0 0 -1 3533.5 1440.5)"/><path d="M4.16297e-06-1.71875 126.084-1.71844 126.084 1.71906-4.16297e-06 1.71875ZM121.5-13.7497 149 0.000360892 121.5 13.7503Z" transform="matrix(1 0 0 -1 2696.5 1430.5)"/><path d="M4.16297e-06-1.71875 126.084-1.71844 126.084 1.71906-4.16297e-06 1.71875ZM121.5-13.7497 149 0.000360892 121.5 13.7503Z" transform="matrix(1 0 0 -1 2696.5 1678.5)"/><path d="M2607.67 1345.68C2608.64 1345.68 2609.47 1345.81 2610.16 1346.07 2610.64 1346.26 2611.11 1346.57 2611.59 1347.01 2612.06 1347.45 2612.49 1348.06 2612.85 1348.85 2613.22 1349.63 2613.54 1350.51 2613.82 1351.49 2614.09 1352.46 2614.39 1353.86 2614.72 1355.69 2615.3 1358.76 2615.85 1361.98 2616.38 1365.37 2616.92 1368.76 2617.37 1371.9 2617.75 1374.8 2620.06 1371.47 2622.01 1368.22 2623.62 1365.03 2625.22 1361.85 2626.37 1359.08 2627.08 1356.73 2627.78 1354.37 2628.13 1352.46 2628.13 1350.99 2628.13 1349.87 2627.89 1349.11 2627.41 1348.71 2626.94 1348.3 2626.13 1348.06 2624.99 1347.99L2625.35 1346.25 2634.72 1346.25 2635.68 1348.03C2633.88 1352.97 2631.43 1358.26 2628.34 1363.89 2625.3 1369.4 2621.82 1374.89 2617.9 1380.36 2614.14 1385.56 2611.02 1389.33 2608.52 1391.66 2606.79 1393.25 2605.11 1394.39 2603.5 1395.08 2602.21 1395.6 2600.85 1395.86 2599.4 1395.86 2598.9 1395.86 2598.32 1395.82 2597.67 1395.74 2597.02 1395.66 2596.51 1395.54 2596.15 1395.4L2597.69 1388.49 2600.5 1388.49C2600.5 1390.01 2601.03 1390.77 2602.07 1390.77 2603.45 1390.77 2605.05 1389.91 2606.88 1388.18 2608.71 1386.46 2610.86 1383.86 2613.33 1380.39 2612.65 1376.24 2611.71 1371.22 2610.52 1365.35 2609.26 1359.08 2608.43 1355.19 2608.02 1353.7 2607.52 1351.89 2607 1350.74 2606.46 1350.24 2606.12 1349.93 2605.71 1349.78 2605.21 1349.78 2604.45 1349.78 2603.73 1350.08 2603.07 1350.7 2602.4 1351.32 2601.58 1352.39 2600.61 1353.91L2598.29 1352.38C2599.93 1349.93 2601.47 1348.2 2602.89 1347.19 2604.32 1346.18 2605.91 1345.68 2607.67 1345.68Z" fill-rule="evenodd"/><text fill="#000000" fill-opacity="0" font-family="Arial,Arial_MSFontService,sans-serif" font-size="50.1875" x="2596.15" y="1389.59">𝑦</text><path d="M2650.7 1361.96 2652.28 1361.96C2652.25 1362.9 2652.22 1363.75 2652.21 1364.5 2652.19 1365.25 2652.17 1365.98 2652.17 1366.69 2652.16 1367.4 2652.15 1368.1 2652.15 1368.79L2652.15 1388.46C2652.15 1388.99 2652.17 1389.45 2652.21 1389.84 2652.24 1390.23 2652.3 1390.56 2652.37 1390.82 2652.45 1391.09 2652.55 1391.32 2652.68 1391.51 2652.81 1391.7 2652.96 1391.86 2653.14 1392 2653.34 1392.21 2653.62 1392.37 2653.96 1392.48 2654.31 1392.59 2654.75 1392.69 2655.28 1392.76 2655.82 1392.84 2656.46 1392.9 2657.21 1392.95 2657.96 1392.99 2658.86 1393.02 2659.92 1393.04L2659.92 1395.29 2639.4 1395.29 2639.4 1393.04C2640.41 1393 2641.28 1392.96 2641.98 1392.92 2642.69 1392.88 2643.29 1392.82 2643.79 1392.74 2644.29 1392.66 2644.7 1392.57 2645 1392.48 2645.3 1392.38 2645.56 1392.27 2645.79 1392.13 2646.03 1391.97 2646.24 1391.81 2646.41 1391.63 2646.58 1391.44 2646.72 1391.22 2646.82 1390.94 2646.93 1390.66 2647.01 1390.33 2647.07 1389.93 2647.13 1389.53 2647.16 1389.04 2647.16 1388.46L2647.16 1369.9C2647.16 1369.23 2647.03 1368.75 2646.77 1368.48 2646.51 1368.2 2646.14 1368.06 2645.66 1368.06 2645.12 1368.06 2644.33 1368.34 2643.28 1368.89 2642.22 1369.44 2640.86 1370.26 2639.19 1371.35 2638.96 1370.95 2638.76 1370.56 2638.57 1370.16 2638.38 1369.76 2638.18 1369.36 2637.97 1368.94 2640.11 1367.77 2642.23 1366.6 2644.32 1365.44 2646.42 1364.27 2648.55 1363.11 2650.7 1361.96Z" fill-rule="evenodd"/><text fill="#000000" fill-opacity="0" font-family="Arial,Arial_MSFontService,sans-serif" font-size="33.332" x="2637.97" y="1391.12">1</text><path d="M2778.18 1325.47 2794.08 1325.47 2794.08 1393.44 2778.18 1393.44 2778.18 1390.69 2788.16 1390.69 2788.16 1328.21 2778.18 1328.21ZM2675.35 1325.47 2691.25 1325.47 2691.25 1328.21 2681.27 1328.21 2681.27 1390.69 2691.25 1390.69 2691.25 1393.44 2675.35 1393.44Z" fill-rule="evenodd"/><path d="M2713.38 1331.1C2717.8 1331.1 2721.14 1332.07 2723.4 1334 2725.66 1335.94 2726.79 1338.75 2726.79 1342.43 2726.79 1343.69 2726.66 1344.85 2726.41 1345.91 2726.16 1346.97 2725.77 1348.01 2725.24 1349.04 2724.7 1350.08 2723.98 1351.19 2723.08 1352.38 2722.18 1353.57 2721.18 1354.77 2720.08 1356 2718.99 1357.22 2717.1 1359.26 2714.42 1362.11 2709.9 1366.88 2706.59 1371.06 2704.47 1374.62L2717.91 1374.62C2719.07 1374.62 2720.01 1374.55 2720.73 1374.41 2721.44 1374.26 2722.01 1374.03 2722.44 1373.69 2722.86 1373.36 2723.2 1372.93 2723.45 1372.39 2723.7 1371.86 2724.02 1371.03 2724.4 1369.91L2727.43 1369.91 2726.82 1380.32 2697.49 1380.32 2697.49 1378.61C2698.51 1376.12 2699.89 1373.56 2701.62 1370.95 2703.36 1368.33 2705.81 1365.26 2709 1361.72 2711.76 1358.67 2713.74 1356.37 2714.95 1354.8 2716.28 1353.09 2717.27 1351.61 2717.93 1350.36 2718.58 1349.12 2719.05 1347.94 2719.34 1346.83 2719.62 1345.73 2719.76 1344.62 2719.76 1343.5 2719.76 1341.72 2719.48 1340.15 2718.91 1338.78 2718.34 1337.41 2717.46 1336.34 2716.29 1335.55 2715.11 1334.77 2713.63 1334.38 2711.85 1334.38 2707.41 1334.38 2704.41 1336.85 2702.87 1341.79L2698.56 1341.79 2698.56 1334.95C2701.43 1333.59 2704.12 1332.61 2706.63 1332.01 2709.14 1331.4 2711.39 1331.1 2713.38 1331.1Z" fill-rule="evenodd"/><text fill="#000000" fill-opacity="0" font-family="Arial,Arial_MSFontService,sans-serif" font-size="49.2251" x="2697.49" y="1374.17">2</text><path d="M2744.79 1345.64C2746.29 1345.64 2747.47 1346.13 2748.34 1347.12 2749.21 1348.11 2749.64 1349.4 2749.64 1350.99 2749.64 1352.25 2749.36 1353.65 2748.79 1355.19L2749.21 1355.34C2751.54 1352.06 2753.76 1349.63 2755.86 1348.05 2757.96 1346.47 2760.13 1345.68 2762.37 1345.68 2764.58 1345.68 2766.27 1346.31 2767.46 1347.58 2768.65 1348.85 2769.25 1350.62 2769.25 1352.88 2769.25 1354.37 2768.9 1356.5 2768.21 1359.26L2765.89 1368.6C2765.25 1371.19 2764.93 1373.02 2764.93 1374.08 2764.93 1375.04 2765.09 1375.72 2765.4 1376.15 2765.7 1376.58 2766.19 1376.79 2766.86 1376.79 2767.57 1376.79 2768.33 1376.5 2769.14 1375.92 2769.95 1375.34 2771.09 1374.23 2772.56 1372.59L2774.59 1374.58C2772.55 1376.77 2770.77 1378.37 2769.25 1379.38 2767.72 1380.39 2765.99 1380.89 2764.04 1380.89 2762.5 1380.89 2761.26 1380.34 2760.33 1379.24 2759.41 1378.13 2758.94 1376.72 2758.94 1375.01 2758.94 1373.47 2759.34 1371.2 2760.12 1368.2L2761.69 1362.04C2762.26 1359.8 2762.63 1358.15 2762.81 1357.08 2762.99 1356.01 2763.08 1355.15 2763.08 1354.48 2763.08 1352.84 2762.81 1351.66 2762.26 1350.93 2761.71 1350.21 2760.82 1349.85 2759.59 1349.85 2758.59 1349.85 2757.51 1350.24 2756.36 1351.04 2755.21 1351.84 2753.98 1353.04 2752.69 1354.64 2751.39 1356.24 2750.35 1357.8 2749.57 1359.31 2748.79 1360.82 2748.14 1362.68 2747.64 1364.89L2744.26 1380.32 2738.09 1380.32 2743.3 1357.72C2743.82 1355.44 2744.08 1353.68 2744.08 1352.45 2744.08 1351.5 2743.93 1350.81 2743.62 1350.38 2743.31 1349.95 2742.82 1349.74 2742.16 1349.74 2741.42 1349.74 2740.64 1350.04 2739.82 1350.65 2739 1351.25 2737.88 1352.35 2736.45 1353.95L2734.42 1351.95C2736.61 1349.67 2738.42 1348.05 2739.87 1347.08 2741.32 1346.12 2742.96 1345.64 2744.79 1345.64Z" fill-rule="evenodd"/><text fill="#000000" fill-opacity="0" font-family="Arial,Arial_MSFontService,sans-serif" font-size="35.2524" x="2734.42" y="1376.49">𝑛</text><rect x="2018.5" y="1838.5" width="364" height="165" stroke="#000000" stroke-width="3.4375" stroke-miterlimit="8" fill="none"/><path d="M2097.44 1893.6 2115.41 1893.6 2114.92 1895.8C2113.78 1896.04 2112.96 1896.31 2112.47 1896.61 2111.98 1896.91 2111.53 1897.36 2111.14 1897.96 2110.76 1898.56 2110.35 1899.49 2109.93 1900.77 2109.51 1902.04 2108.99 1904.11 2108.36 1906.99L2098.75 1950.79 2109.8 1950.79C2111.8 1950.79 2113.38 1950.59 2114.54 1950.2 2115.69 1949.81 2116.78 1949.1 2117.82 1948.07 2118.85 1947.04 2119.86 1945.64 2120.85 1943.87 2121.84 1942.1 2122.84 1939.9 2123.86 1937.27L2128.22 1937.27 2123.68 1954.92 2085.67 1954.92 2086.17 1952.72C2087.31 1952.54 2088.16 1952.25 2088.73 1951.84 2089.3 1951.44 2089.78 1950.88 2090.17 1950.16 2090.56 1949.44 2090.92 1948.56 2091.24 1947.53 2091.57 1946.5 2092.07 1944.5 2092.73 1941.53L2100.36 1906.94C2101.02 1903.95 2101.35 1901.54 2101.35 1899.71 2101.35 1898.3 2101 1897.32 2100.3 1896.77 2099.59 1896.21 2098.48 1895.89 2096.95 1895.8Z" fill-rule="evenodd"/><text fill="#000000" fill-opacity="0" font-family="Arial,Arial_MSFontService,sans-serif" font-size="61.3184" x="2085.67" y="1947.26">𝐿</text><path d="M2153.44 1930.57C2155.51 1930.57 2157.5 1930.73 2159.41 1931.04 2161.32 1931.36 2163.32 1931.87 2165.41 1932.56L2163.55 1940.87 2159.98 1940.87C2159.92 1939.65 2159.73 1938.6 2159.41 1937.72 2159.09 1936.83 2158.65 1936.11 2158.09 1935.56 2157.52 1935 2156.8 1934.59 2155.93 1934.31 2155.05 1934.04 2154.02 1933.9 2152.82 1933.9 2151.53 1933.9 2150.37 1934.08 2149.32 1934.43 2148.27 1934.78 2147.38 1935.27 2146.64 1935.92 2145.89 1936.56 2145.32 1937.33 2144.92 1938.24 2144.51 1939.14 2144.31 1940.13 2144.31 1941.2 2144.31 1942.01 2144.41 1942.75 2144.61 1943.42 2144.8 1944.1 2145.14 1944.76 2145.62 1945.39 2146.1 1946.02 2146.76 1946.66 2147.6 1947.32 2148.44 1947.97 2149.5 1948.69 2150.79 1949.48 2152.36 1950.46 2153.71 1951.39 2154.83 1952.26 2155.95 1953.13 2156.87 1954.04 2157.58 1954.97 2158.29 1955.91 2158.81 1956.91 2159.13 1957.97 2159.46 1959.02 2159.62 1960.21 2159.62 1961.52 2159.62 1963.41 2159.25 1965.15 2158.5 1966.72 2157.74 1968.29 2156.67 1969.64 2155.29 1970.77 2153.9 1971.91 2152.25 1972.79 2150.32 1973.41 2148.39 1974.03 2146.23 1974.34 2143.86 1974.34 2141.85 1974.34 2139.69 1974.17 2137.38 1973.83 2135.07 1973.49 2132.79 1973 2130.54 1972.34L2132.47 1963.51 2135.94 1963.51C2136 1966.13 2136.7 1968.03 2138.03 1969.2 2139.36 1970.38 2141.41 1970.97 2144.18 1970.97 2145.6 1970.97 2146.88 1970.79 2148.01 1970.41 2149.14 1970.04 2150.1 1969.51 2150.89 1968.81 2151.67 1968.11 2152.27 1967.26 2152.69 1966.26 2153.1 1965.26 2153.31 1964.13 2153.31 1962.89 2153.31 1962.02 2153.2 1961.23 2152.98 1960.52 2152.76 1959.81 2152.38 1959.11 2151.84 1958.41 2151.29 1957.71 2150.56 1957 2149.63 1956.28 2148.7 1955.56 2147.55 1954.78 2146.18 1953.93 2144.8 1953.08 2143.61 1952.23 2142.6 1951.39 2141.58 1950.55 2140.74 1949.68 2140.06 1948.77 2139.38 1947.87 2138.88 1946.93 2138.54 1945.94 2138.2 1944.96 2138.03 1943.92 2138.03 1942.8 2138.03 1940.97 2138.39 1939.31 2139.11 1937.81 2139.83 1936.32 2140.86 1935.03 2142.2 1933.95 2143.54 1932.87 2145.17 1932.04 2147.08 1931.45 2148.99 1930.86 2151.11 1930.57 2153.44 1930.57Z" fill-rule="evenodd"/><text fill="#000000" fill-opacity="0" font-family="Arial,Arial_MSFontService,sans-serif" font-size="43.7725" x="2130.54" y="1968.87">𝑆</text><path d="M2217 1888.39 2220.1 1888.39 2236.5 1905.1 2233.85 1907.93 2221.76 1898.41 2221.76 1955.64 2215.38 1955.64 2215.38 1898.41 2203.3 1907.93 2200.65 1905.1Z" fill-rule="evenodd"/><text fill="#000000" fill-opacity="0" font-family="Arial,Arial_MSFontService,sans-serif" font-size="67.248" x="2200.65" y="1947.23">↑</text><path d="M2291.27 1892.88C2296.84 1892.88 2301.05 1894.1 2303.89 1896.54 2306.74 1898.99 2308.16 1902.53 2308.16 1907.17 2308.16 1908.76 2308 1910.22 2307.69 1911.55 2307.37 1912.88 2306.88 1914.2 2306.21 1915.5 2305.53 1916.8 2304.63 1918.2 2303.49 1919.7 2302.35 1921.2 2301.09 1922.72 2299.71 1924.26 2298.34 1925.8 2295.96 1928.37 2292.57 1931.97 2286.88 1937.98 2282.7 1943.24 2280.04 1947.73L2296.97 1947.73C2298.44 1947.73 2299.62 1947.64 2300.52 1947.46 2301.42 1947.28 2302.14 1946.98 2302.68 1946.56 2303.22 1946.15 2303.64 1945.6 2303.96 1944.93 2304.27 1944.25 2304.67 1943.21 2305.15 1941.8L2308.97 1941.8 2308.2 1954.92 2271.23 1954.92 2271.23 1952.76C2272.52 1949.62 2274.26 1946.4 2276.44 1943.11 2278.63 1939.81 2281.73 1935.93 2285.74 1931.47 2289.22 1927.64 2291.72 1924.73 2293.25 1922.76 2294.92 1920.6 2296.17 1918.74 2297 1917.16 2297.82 1915.59 2298.41 1914.11 2298.77 1912.72 2299.13 1911.32 2299.31 1909.92 2299.31 1908.52 2299.31 1906.27 2298.95 1904.29 2298.23 1902.56 2297.51 1900.84 2296.41 1899.49 2294.93 1898.5 2293.45 1897.51 2291.58 1897.02 2289.34 1897.02 2283.74 1897.02 2279.96 1900.13 2278.02 1906.36L2272.58 1906.36 2272.58 1897.73C2276.2 1896.03 2279.6 1894.79 2282.76 1894.03 2285.92 1893.27 2288.75 1892.88 2291.27 1892.88Z" fill-rule="evenodd"/><text fill="#000000" fill-opacity="0" font-family="Arial,Arial_MSFontService,sans-serif" font-size="62.0371" x="2271.23" y="1947.17">2</text><rect x="2018.5" y="1591.5" width="364" height="165" stroke="#000000" stroke-width="3.4375" stroke-miterlimit="8" fill="none"/><path d="M2091.23 1646.1 2109.2 1646.1 2108.71 1648.3C2107.57 1648.54 2106.75 1648.81 2106.26 1649.11 2105.77 1649.41 2105.32 1649.86 2104.93 1650.46 2104.54 1651.06 2104.14 1651.99 2103.72 1653.27 2103.3 1654.54 2102.78 1656.61 2102.15 1659.49L2099.09 1673.23 2123.22 1673.23 2126.27 1659.44C2126.54 1658.22 2126.77 1656.91 2126.97 1655.51 2127.16 1654.12 2127.26 1653.02 2127.26 1652.21 2127.26 1650.8 2126.91 1649.82 2126.2 1649.27 2125.5 1648.71 2124.39 1648.39 2122.86 1648.3L2123.35 1646.1 2141.32 1646.1 2140.83 1648.3C2139.69 1648.54 2138.87 1648.81 2138.38 1649.11 2137.88 1649.41 2137.44 1649.86 2137.05 1650.46 2136.66 1651.06 2136.26 1651.99 2135.84 1653.27 2135.42 1654.54 2134.9 1656.61 2134.27 1659.49L2126.59 1694.35C2126.2 1696.12 2125.94 1697.52 2125.82 1698.55 2125.7 1699.58 2125.64 1700.52 2125.64 1701.36 2125.64 1702.7 2125.98 1703.65 2126.65 1704.21 2127.33 1704.76 2128.46 1705.1 2130.05 1705.22L2129.55 1707.42 2111.58 1707.42 2112.08 1705.22C2113.21 1705.04 2114.07 1704.75 2114.64 1704.34 2115.21 1703.94 2115.69 1703.38 2116.07 1702.66 2116.46 1701.94 2116.82 1701.06 2117.15 1700.03 2117.48 1699 2117.98 1697 2118.64 1694.03L2122.32 1677.37 2098.2 1677.37 2094.47 1694.35C2094.14 1695.85 2093.9 1697.08 2093.75 1698.05 2093.6 1699.03 2093.52 1700.13 2093.52 1701.36 2093.52 1702.64 2093.82 1703.57 2094.42 1704.14 2095.02 1704.71 2096.19 1705.07 2097.93 1705.22L2097.43 1707.42 2079.46 1707.42 2079.96 1705.22C2081.1 1705.04 2081.95 1704.75 2082.52 1704.34 2083.09 1703.94 2083.57 1703.38 2083.96 1702.66 2084.35 1701.94 2084.7 1701.06 2085.03 1700.03 2085.36 1699 2085.86 1697 2086.52 1694.03L2094.15 1659.44C2094.42 1658.22 2094.65 1656.91 2094.85 1655.51 2095.04 1654.12 2095.14 1653.02 2095.14 1652.21 2095.14 1650.8 2094.79 1649.82 2094.09 1649.27 2093.38 1648.71 2092.27 1648.39 2090.74 1648.3Z" fill-rule="evenodd"/><text fill="#000000" fill-opacity="0" font-family="Arial,Arial_MSFontService,sans-serif" font-size="61.3184" x="2079.46" y="1699.76">𝐻</text><path d="M2159.63 1683.07C2161.7 1683.07 2163.69 1683.23 2165.6 1683.54 2167.51 1683.86 2169.51 1684.37 2171.6 1685.06L2169.74 1693.37 2166.17 1693.37C2166.11 1692.15 2165.91 1691.1 2165.6 1690.22 2165.28 1689.33 2164.84 1688.61 2164.27 1688.06 2163.71 1687.5 2162.99 1687.09 2162.11 1686.81 2161.24 1686.54 2160.21 1686.4 2159.01 1686.4 2157.72 1686.4 2156.55 1686.58 2155.51 1686.93 2154.46 1687.28 2153.56 1687.77 2152.82 1688.42 2152.08 1689.06 2151.51 1689.83 2151.11 1690.74 2150.7 1691.64 2150.5 1692.63 2150.5 1693.7 2150.5 1694.51 2150.6 1695.25 2150.8 1695.92 2150.99 1696.6 2151.33 1697.26 2151.81 1697.89 2152.29 1698.52 2152.95 1699.16 2153.79 1699.82 2154.63 1700.47 2155.69 1701.19 2156.98 1701.98 2158.55 1702.96 2159.9 1703.89 2161.02 1704.76 2162.14 1705.63 2163.06 1706.54 2163.77 1707.47 2164.48 1708.41 2164.99 1709.41 2165.32 1710.47 2165.65 1711.52 2165.81 1712.71 2165.81 1714.02 2165.81 1715.91 2165.44 1717.65 2164.68 1719.22 2163.93 1720.79 2162.86 1722.14 2161.48 1723.27 2160.09 1724.41 2158.43 1725.29 2156.5 1725.91 2154.57 1726.53 2152.42 1726.84 2150.04 1726.84 2148.04 1726.84 2145.88 1726.67 2143.57 1726.33 2141.25 1725.99 2138.97 1725.5 2136.73 1724.84L2138.66 1716.01 2142.13 1716.01C2142.19 1718.63 2142.89 1720.53 2144.22 1721.7 2145.55 1722.88 2147.6 1723.47 2150.37 1723.47 2151.79 1723.47 2153.06 1723.29 2154.2 1722.91 2155.33 1722.54 2156.29 1722.01 2157.08 1721.31 2157.86 1720.61 2158.46 1719.76 2158.88 1718.76 2159.29 1717.76 2159.5 1716.63 2159.5 1715.39 2159.5 1714.52 2159.39 1713.73 2159.17 1713.02 2158.95 1712.31 2158.57 1711.61 2158.03 1710.91 2157.48 1710.21 2156.74 1709.5 2155.82 1708.78 2154.89 1708.06 2153.74 1707.28 2152.37 1706.43 2150.99 1705.58 2149.8 1704.73 2148.78 1703.89 2147.77 1703.05 2146.92 1702.18 2146.25 1701.27 2145.57 1700.37 2145.06 1699.43 2144.73 1698.44 2144.39 1697.46 2144.22 1696.42 2144.22 1695.3 2144.22 1693.47 2144.58 1691.81 2145.3 1690.31 2146.02 1688.82 2147.05 1687.53 2148.39 1686.45 2149.73 1685.37 2151.36 1684.54 2153.27 1683.95 2155.17 1683.36 2157.29 1683.07 2159.63 1683.07Z" fill-rule="evenodd"/><text fill="#000000" fill-opacity="0" font-family="Arial,Arial_MSFontService,sans-serif" font-size="43.7725" x="2136.73" y="1721.37">𝑆</text><path d="M2223.19 1640.89 2226.29 1640.89 2242.68 1657.6 2240.03 1660.43 2227.95 1650.91 2227.95 1708.14 2221.57 1708.14 2221.57 1650.91 2209.49 1660.43 2206.84 1657.6Z" fill-rule="evenodd"/><text fill="#000000" fill-opacity="0" font-family="Arial,Arial_MSFontService,sans-serif" font-size="67.248" x="2206.84" y="1699.73">↑</text><path d="M2297.46 1645.38C2303.03 1645.38 2307.23 1646.6 2310.08 1649.04 2312.92 1651.49 2314.35 1655.03 2314.35 1659.67 2314.35 1661.26 2314.19 1662.72 2313.88 1664.05 2313.56 1665.38 2313.07 1666.7 2312.39 1668 2311.72 1669.3 2310.81 1670.7 2309.67 1672.2 2308.54 1673.7 2307.28 1675.22 2305.9 1676.76 2304.52 1678.3 2302.14 1680.87 2298.76 1684.47 2293.07 1690.48 2288.89 1695.74 2286.23 1700.23L2303.16 1700.23C2304.63 1700.23 2305.81 1700.14 2306.71 1699.96 2307.61 1699.78 2308.33 1699.48 2308.87 1699.06 2309.41 1698.65 2309.83 1698.1 2310.15 1697.43 2310.46 1696.75 2310.86 1695.71 2311.34 1694.3L2315.16 1694.3 2314.39 1707.42 2277.42 1707.42 2277.42 1705.26C2278.71 1702.12 2280.45 1698.9 2282.63 1695.61 2284.82 1692.31 2287.92 1688.43 2291.93 1683.97 2295.4 1680.14 2297.91 1677.23 2299.43 1675.26 2301.11 1673.1 2302.36 1671.24 2303.18 1669.66 2304.01 1668.09 2304.6 1666.61 2304.96 1665.22 2305.32 1663.82 2305.5 1662.42 2305.5 1661.02 2305.5 1658.77 2305.14 1656.79 2304.42 1655.06 2303.7 1653.34 2302.6 1651.99 2301.12 1651 2299.63 1650.01 2297.77 1649.52 2295.52 1649.52 2289.92 1649.52 2286.15 1652.63 2284.2 1658.86L2278.77 1658.86 2278.77 1650.23C2282.39 1648.53 2285.78 1647.29 2288.94 1646.53 2292.1 1645.77 2294.94 1645.38 2297.46 1645.38Z" fill-rule="evenodd"/><text fill="#000000" fill-opacity="0" font-family="Arial,Arial_MSFontService,sans-serif" font-size="62.0371" x="2277.42" y="1699.67">2</text><path d="M4.13523e-06-1.71875 127.083-1.71844 127.083 1.71906-4.13523e-06 1.71875ZM122.5-13.7497 150 0.000360892 122.5 13.7503Z" transform="matrix(1 0 0 -1 2384.5 1675.5)"/><path d="M0 0 227 0.000360892" stroke="#000000" stroke-width="3.4375" stroke-linejoin="round" stroke-miterlimit="10" fill="none" fill-rule="evenodd" transform="matrix(1 0 0 -1 2388.5 1919.5)"/><path d="M2616.62 1651.57 2622.38 1651.57 2622.38 1674.92 2644.46 1674.92 2644.46 1680.31 2622.38 1680.31 2622.38 1703.65 2616.62 1703.65 2616.62 1680.31 2594.53 1680.31 2594.53 1674.92 2616.62 1674.92Z" fill-rule="evenodd"/><text fill="#000000" fill-opacity="0" font-family="Arial,Arial_MSFontService,sans-serif" font-size="52.0776" x="2594.53" y="1697.14">+</text><path d="M2529.5 1678C2529.5 1632.44 2566.44 1595.5 2612 1595.5 2657.56 1595.5 2694.5 1632.44 2694.5 1678 2694.5 1723.56 2657.56 1760.5 2612 1760.5 2566.44 1760.5 2529.5 1723.56 2529.5 1678Z" stroke="#000000" stroke-width="3.4375" stroke-linejoin="round" stroke-miterlimit="10" fill="none" fill-rule="evenodd"/><path d="M1.71875-4.00183e-06 1.71906 132.083-1.71844 132.083-1.71875 4.00183e-06ZM13.7503 127.5 0.000360892 155-13.7497 127.5Z" transform="matrix(1 0 0 -1 2616.5 1916.5)"/><path d="M4.16298e-06-1.71875 126.083-1.71844 126.083 1.71906-4.16298e-06 1.71875ZM121.5-13.7497 149 0.000360892 121.5 13.7503Z" transform="matrix(1 0 0 -1 1864.5 1667.5)"/><path d="M4.16298e-06-1.71875 126.083-1.71844 126.083 1.71906-4.16298e-06 1.71875ZM121.5-13.7497 149 0.000360892 121.5 13.7503Z" transform="matrix(1 0 0 -1 1864.5 1915.5)"/><path d="M1774.78 1582.67C1775.76 1582.67 1776.59 1582.8 1777.28 1583.06 1777.75 1583.25 1778.23 1583.57 1778.7 1584.01 1779.18 1584.45 1779.6 1585.06 1779.97 1585.84 1780.34 1586.63 1780.66 1587.51 1780.93 1588.48 1781.21 1589.45 1781.51 1590.86 1781.84 1592.69 1782.41 1595.75 1782.96 1598.98 1783.5 1602.36 1784.03 1605.75 1784.49 1608.89 1784.87 1611.79 1787.18 1608.47 1789.13 1605.21 1790.73 1602.03 1792.34 1598.84 1793.49 1596.07 1794.19 1593.72 1794.89 1591.37 1795.24 1589.45 1795.24 1587.98 1795.24 1586.86 1795.01 1586.1 1794.53 1585.7 1794.05 1585.3 1793.25 1585.06 1792.11 1584.99L1792.46 1583.24 1801.84 1583.24 1802.8 1585.02C1800.99 1589.97 1798.55 1595.25 1795.46 1600.89 1792.42 1606.4 1788.93 1611.89 1785.01 1617.35 1781.26 1622.56 1778.13 1626.32 1775.64 1628.65 1773.9 1630.24 1772.23 1631.38 1770.61 1632.07 1769.33 1632.6 1767.96 1632.86 1766.51 1632.86 1766.01 1632.86 1765.44 1632.82 1764.78 1632.73 1764.13 1632.65 1763.63 1632.54 1763.27 1632.39L1764.8 1625.48 1767.62 1625.48C1767.62 1627 1768.14 1627.76 1769.19 1627.76 1770.57 1627.76 1772.17 1626.9 1774 1625.18 1775.83 1623.45 1777.98 1620.86 1780.45 1617.39 1779.76 1613.23 1778.82 1608.22 1777.63 1602.35 1776.38 1596.07 1775.54 1592.19 1775.14 1590.69 1774.64 1588.88 1774.12 1587.73 1773.57 1587.23 1773.24 1586.92 1772.82 1586.77 1772.32 1586.77 1771.56 1586.77 1770.85 1587.08 1770.18 1587.7 1769.52 1588.31 1768.7 1589.38 1767.73 1590.9L1765.41 1589.37C1767.05 1586.92 1768.58 1585.2 1770.01 1584.19 1771.43 1583.18 1773.02 1582.67 1774.78 1582.67Z" fill-rule="evenodd"/><text fill="#000000" fill-opacity="0" font-family="Arial,Arial_MSFontService,sans-serif" font-size="50.1875" x="1763.27" y="1626.58">𝑦</text><path d="M1817.5 1598.77C1819.29 1598.77 1820.82 1598.97 1822.09 1599.38 1823.36 1599.78 1824.39 1600.33 1825.18 1601.02 1825.98 1601.71 1826.55 1602.54 1826.9 1603.5 1827.26 1604.47 1827.43 1605.51 1827.43 1606.64 1827.43 1607.31 1827.39 1607.93 1827.29 1608.51 1827.2 1609.09 1827.03 1609.66 1826.8 1610.22 1826.57 1610.78 1826.26 1611.35 1825.88 1611.92 1825.5 1612.48 1825.03 1613.09 1824.46 1613.73 1824.03 1614.28 1823.47 1614.92 1822.78 1615.64 1822.09 1616.37 1821.33 1617.14 1820.51 1617.97 1819.69 1618.8 1818.83 1619.66 1817.94 1620.56 1817.04 1621.46 1816.17 1622.34 1815.32 1623.22 1814.48 1624.1 1813.7 1624.96 1812.99 1625.79 1812.29 1626.61 1811.71 1627.37 1811.26 1628.06L1820.84 1628.06C1821.65 1628.06 1822.29 1628.03 1822.78 1627.97 1823.26 1627.91 1823.66 1627.78 1823.98 1627.57 1824.3 1627.36 1824.57 1627.05 1824.8 1626.63 1825.02 1626.2 1825.28 1625.62 1825.57 1624.88L1827.98 1624.88C1827.89 1626.11 1827.81 1627.34 1827.73 1628.58 1827.65 1629.82 1827.57 1631.06 1827.49 1632.28L1805.57 1632.28 1805.57 1630.94C1805.98 1630 1806.46 1629.09 1807.02 1628.18 1807.57 1627.27 1808.19 1626.36 1808.88 1625.42 1809.57 1624.49 1810.35 1623.53 1811.23 1622.54 1812.11 1621.55 1813.09 1620.52 1814.16 1619.45 1815.78 1617.82 1817.1 1616.44 1818.12 1615.29 1819.14 1614.14 1819.94 1613.12 1820.53 1612.23 1821.11 1611.33 1821.51 1610.5 1821.73 1609.74 1821.94 1608.98 1822.05 1608.17 1822.05 1607.31 1822.05 1606.43 1821.93 1605.62 1821.68 1604.88 1821.43 1604.13 1821.07 1603.5 1820.6 1602.99 1820.14 1602.47 1819.55 1602.06 1818.83 1601.77 1818.11 1601.48 1817.29 1601.33 1816.36 1601.33 1814.75 1601.33 1813.41 1601.77 1812.32 1602.64 1811.23 1603.51 1810.39 1604.77 1809.79 1606.43L1806.4 1606.43 1806.4 1601.38C1808.6 1600.47 1810.64 1599.8 1812.49 1599.39 1814.34 1598.98 1816.01 1598.77 1817.5 1598.77Z" fill-rule="evenodd"/><text fill="#000000" fill-opacity="0" font-family="Arial,Arial_MSFontService,sans-serif" font-size="33.5132" x="1805.57" y="1628.09">2</text><path d="M1946.99 1562.46 1962.89 1562.46 1962.89 1630.43 1946.99 1630.43 1946.99 1627.69 1956.97 1627.69 1956.97 1565.2 1946.99 1565.2ZM1844.16 1562.46 1860.06 1562.46 1860.06 1565.2 1850.08 1565.2 1850.08 1627.69 1860.06 1627.69 1860.06 1630.43 1844.16 1630.43Z" fill-rule="evenodd"/><path d="M1884.26 1576.47 1870.33 1598.6 1870.33 1599.1 1884.26 1599.1 1884.26 1590.23C1884.26 1587.99 1884.3 1585.49 1884.37 1582.72 1884.44 1579.96 1884.52 1577.87 1884.62 1576.47ZM1885.3 1568.41 1890.39 1568.41 1890.39 1599.1 1891.14 1599.1C1892.52 1599.1 1893.51 1599 1894.1 1598.8 1894.69 1598.6 1895.19 1598.24 1895.58 1597.73 1895.97 1597.22 1896.33 1596.38 1896.67 1595.22L1899.38 1595.22 1898.95 1602.56 1890.39 1602.56 1890.39 1608.41C1890.39 1610 1890.45 1611.16 1890.55 1611.9 1890.66 1612.64 1890.84 1613.22 1891.09 1613.65 1891.34 1614.07 1891.71 1614.43 1892.19 1614.72 1892.68 1615 1893.47 1615.29 1894.56 1615.57L1894.56 1617.32 1880.09 1617.32 1880.09 1615.57C1881.57 1615.19 1882.55 1614.77 1883.05 1614.31 1883.55 1613.84 1883.88 1613.18 1884.03 1612.33 1884.19 1611.47 1884.26 1610.16 1884.26 1608.41L1884.26 1602.56 1864.44 1602.56 1864.44 1599.89Z" fill-rule="evenodd"/><text fill="#000000" fill-opacity="0" font-family="Arial,Arial_MSFontService,sans-serif" font-size="48.9043" x="1864.44" y="1611.2">4</text><path d="M1913.6 1582.64C1915.1 1582.64 1916.28 1583.13 1917.15 1584.11 1918.02 1585.1 1918.45 1586.39 1918.45 1587.98 1918.45 1589.24 1918.17 1590.64 1917.6 1592.19L1918.02 1592.33C1920.35 1589.05 1922.57 1586.62 1924.67 1585.04 1926.78 1583.46 1928.94 1582.67 1931.18 1582.67 1933.39 1582.67 1935.09 1583.31 1936.27 1584.58 1937.46 1585.85 1938.06 1587.61 1938.06 1589.87 1938.06 1591.37 1937.71 1593.49 1937.02 1596.25L1934.71 1605.59C1934.06 1608.18 1933.74 1610.01 1933.74 1611.08 1933.74 1612.03 1933.9 1612.72 1934.21 1613.15 1934.52 1613.57 1935 1613.79 1935.67 1613.79 1936.38 1613.79 1937.14 1613.5 1937.95 1612.92 1938.76 1612.33 1939.9 1611.22 1941.37 1609.58L1943.4 1611.58C1941.36 1613.76 1939.58 1615.36 1938.06 1616.37 1936.54 1617.38 1934.8 1617.89 1932.85 1617.89 1931.31 1617.89 1930.07 1617.33 1929.15 1616.23 1928.22 1615.12 1927.76 1613.72 1927.76 1612.01 1927.76 1610.46 1928.15 1608.19 1928.93 1605.2L1930.5 1599.03C1931.07 1596.8 1931.44 1595.15 1931.62 1594.08 1931.8 1593.01 1931.89 1592.14 1931.89 1591.47 1931.89 1589.84 1931.62 1588.65 1931.07 1587.93 1930.52 1587.2 1929.63 1586.84 1928.4 1586.84 1927.4 1586.84 1926.32 1587.24 1925.17 1588.04 1924.02 1588.83 1922.79 1590.03 1921.5 1591.64 1920.2 1593.24 1919.17 1594.8 1918.38 1596.3 1917.6 1597.81 1916.96 1599.67 1916.46 1601.88L1913.07 1617.32 1906.9 1617.32 1912.11 1594.72C1912.63 1592.44 1912.89 1590.68 1912.89 1589.44 1912.89 1588.49 1912.74 1587.8 1912.43 1587.38 1912.12 1586.95 1911.63 1586.73 1910.97 1586.73 1910.23 1586.73 1909.45 1587.04 1908.63 1587.64 1907.81 1588.25 1906.69 1589.35 1905.26 1590.94L1903.23 1588.94C1905.42 1586.66 1907.24 1585.04 1908.69 1584.08 1910.14 1583.12 1911.77 1582.64 1913.6 1582.64Z" fill-rule="evenodd"/><text fill="#000000" fill-opacity="0" font-family="Arial,Arial_MSFontService,sans-serif" font-size="35.2524" x="1903.23" y="1613.48">𝑛</text><rect x="1184.5" y="2078.5" width="364" height="165" stroke="#000000" stroke-width="3.4375" stroke-miterlimit="8" fill="none"/><path d="M1263.72 2133.64 1281.69 2133.64 1281.2 2135.84C1280.06 2136.08 1279.24 2136.35 1278.75 2136.65 1278.26 2136.95 1277.81 2137.39 1277.43 2137.99 1277.04 2138.59 1276.63 2139.53 1276.21 2140.8 1275.79 2142.07 1275.27 2144.15 1274.64 2147.02L1265.03 2190.82 1276.08 2190.82C1278.08 2190.82 1279.66 2190.63 1280.82 2190.24 1281.97 2189.85 1283.06 2189.14 1284.1 2188.1 1285.13 2187.07 1286.14 2185.67 1287.13 2183.9 1288.12 2182.14 1289.12 2179.94 1290.14 2177.3L1294.5 2177.3 1289.96 2194.95 1251.95 2194.95 1252.45 2192.75C1253.59 2192.57 1254.44 2192.28 1255.01 2191.88 1255.58 2191.47 1256.06 2190.91 1256.45 2190.19 1256.84 2189.47 1257.2 2188.6 1257.53 2187.56 1257.85 2186.53 1258.35 2184.53 1259.01 2181.57L1266.64 2146.98C1267.3 2143.98 1267.63 2141.57 1267.63 2139.75 1267.63 2138.34 1267.28 2137.36 1266.58 2136.8 1265.87 2136.25 1264.76 2135.93 1263.23 2135.84Z" fill-rule="evenodd"/><text fill="#000000" fill-opacity="0" font-family="Arial,Arial_MSFontService,sans-serif" font-size="61.3184" x="1251.95" y="2187.29">𝐿</text><path d="M1319.72 2170.6C1321.79 2170.6 1323.78 2170.76 1325.69 2171.08 1327.6 2171.39 1329.6 2171.9 1331.7 2172.6L1329.83 2180.91 1326.26 2180.91C1326.2 2179.69 1326.01 2178.63 1325.69 2177.75 1325.38 2176.87 1324.93 2176.15 1324.37 2175.59 1323.8 2175.03 1323.08 2174.62 1322.21 2174.35 1321.34 2174.07 1320.3 2173.94 1319.1 2173.94 1317.81 2173.94 1316.65 2174.11 1315.6 2174.46 1314.55 2174.81 1313.66 2175.31 1312.92 2175.95 1312.18 2176.59 1311.6 2177.37 1311.2 2178.27 1310.8 2179.18 1310.59 2180.17 1310.59 2181.23 1310.59 2182.04 1310.69 2182.78 1310.89 2183.46 1311.08 2184.13 1311.42 2184.79 1311.9 2185.42 1312.38 2186.05 1313.04 2186.7 1313.88 2187.35 1314.72 2188.01 1315.78 2188.73 1317.07 2189.51 1318.64 2190.49 1319.99 2191.42 1321.11 2192.29 1322.24 2193.16 1323.15 2194.07 1323.86 2195.01 1324.57 2195.94 1325.09 2196.94 1325.41 2198 1325.74 2199.06 1325.9 2200.24 1325.9 2201.55 1325.9 2203.45 1325.53 2205.18 1324.78 2206.75 1324.02 2208.32 1322.95 2209.67 1321.57 2210.81 1320.19 2211.94 1318.53 2212.82 1316.6 2213.44 1314.67 2214.06 1312.51 2214.37 1310.14 2214.37 1308.13 2214.37 1305.97 2214.21 1303.66 2213.87 1301.35 2213.53 1299.07 2213.03 1296.82 2212.38L1298.75 2203.55 1302.22 2203.55C1302.28 2206.16 1302.98 2208.06 1304.31 2209.24 1305.64 2210.42 1307.69 2211 1310.46 2211 1311.88 2211 1313.16 2210.82 1314.29 2210.45 1315.43 2210.08 1316.38 2209.54 1317.17 2208.85 1317.95 2208.15 1318.55 2207.3 1318.97 2206.29 1319.38 2205.29 1319.59 2204.17 1319.59 2202.92 1319.59 2202.05 1319.48 2201.26 1319.26 2200.55 1319.05 2199.84 1318.66 2199.14 1318.12 2198.44 1317.57 2197.74 1316.84 2197.04 1315.91 2196.32 1314.98 2195.6 1313.83 2194.81 1312.46 2193.96 1311.08 2193.11 1309.89 2192.26 1308.88 2191.42 1307.86 2190.58 1307.02 2189.71 1306.34 2188.81 1305.67 2187.9 1305.16 2186.96 1304.82 2185.98 1304.48 2185 1304.31 2183.95 1304.31 2182.84 1304.31 2181 1304.67 2179.34 1305.39 2177.85 1306.11 2176.35 1307.14 2175.07 1308.48 2173.99 1309.83 2172.91 1311.45 2172.07 1313.36 2171.48 1315.27 2170.9 1317.39 2170.6 1319.72 2170.6Z" fill-rule="evenodd"/><text fill="#000000" fill-opacity="0" font-family="Arial,Arial_MSFontService,sans-serif" font-size="43.7725" x="1296.82" y="2208.9">𝑆</text><path d="M1383.28 2128.43 1386.38 2128.43 1402.78 2145.14 1400.13 2147.97 1388.04 2138.44 1388.04 2195.67 1381.66 2195.67 1381.66 2138.44 1369.58 2147.97 1366.93 2145.14Z" fill-rule="evenodd"/><text fill="#000000" fill-opacity="0" font-family="Arial,Arial_MSFontService,sans-serif" font-size="67.248" x="1366.93" y="2187.27">↑</text><path d="M1457.55 2132.92C1463.12 2132.92 1467.33 2134.14 1470.17 2136.58 1473.02 2139.02 1474.44 2142.56 1474.44 2147.2 1474.44 2148.79 1474.28 2150.25 1473.97 2151.58 1473.65 2152.92 1473.16 2154.23 1472.49 2155.54 1471.81 2156.84 1470.91 2158.24 1469.77 2159.74 1468.63 2161.23 1467.37 2162.75 1465.99 2164.3 1464.62 2165.84 1462.24 2168.41 1458.85 2172 1453.16 2178.02 1448.98 2183.27 1446.32 2187.77L1463.25 2187.77C1464.72 2187.77 1465.9 2187.68 1466.8 2187.5 1467.7 2187.32 1468.42 2187.02 1468.96 2186.6 1469.5 2186.18 1469.93 2185.63 1470.24 2184.96 1470.55 2184.29 1470.95 2183.24 1471.43 2181.84L1475.25 2181.84 1474.48 2194.95 1437.51 2194.95 1437.51 2192.8C1438.8 2189.65 1440.54 2186.43 1442.73 2183.14 1444.91 2179.85 1448.01 2175.97 1452.02 2171.51 1455.5 2167.67 1458 2164.77 1459.53 2162.79 1461.2 2160.63 1462.45 2158.77 1463.28 2157.2 1464.1 2155.63 1464.69 2154.14 1465.05 2152.75 1465.41 2151.36 1465.59 2149.96 1465.59 2148.55 1465.59 2146.3 1465.23 2144.32 1464.51 2142.6 1463.79 2140.88 1462.69 2139.52 1461.21 2138.53 1459.73 2137.54 1457.86 2137.05 1455.62 2137.05 1450.02 2137.05 1446.24 2140.16 1444.3 2146.39L1438.86 2146.39 1438.86 2137.77C1442.49 2136.06 1445.88 2134.83 1449.04 2134.06 1452.2 2133.3 1455.03 2132.92 1457.55 2132.92Z" fill-rule="evenodd"/><text fill="#000000" fill-opacity="0" font-family="Arial,Arial_MSFontService,sans-serif" font-size="62.0371" x="1437.51" y="2187.2">2</text><rect x="1184.5" y="1831.5" width="364" height="165" stroke="#000000" stroke-width="3.4375" stroke-miterlimit="8" fill="none"/><path d="M1257.51 1886.14 1275.48 1886.14 1274.99 1888.34C1273.85 1888.58 1273.03 1888.85 1272.54 1889.15 1272.05 1889.45 1271.6 1889.89 1271.22 1890.49 1270.83 1891.09 1270.42 1892.03 1270 1893.3 1269.58 1894.57 1269.06 1896.65 1268.43 1899.52L1265.38 1913.27 1289.5 1913.27 1292.55 1899.48C1292.82 1898.25 1293.05 1896.94 1293.25 1895.55 1293.44 1894.15 1293.54 1893.05 1293.54 1892.25 1293.54 1890.84 1293.19 1889.86 1292.49 1889.3 1291.78 1888.75 1290.67 1888.43 1289.14 1888.34L1289.63 1886.14 1307.6 1886.14 1307.11 1888.34C1305.97 1888.58 1305.15 1888.85 1304.66 1889.15 1304.17 1889.45 1303.72 1889.89 1303.33 1890.49 1302.95 1891.09 1302.54 1892.03 1302.12 1893.3 1301.7 1894.57 1301.18 1896.65 1300.55 1899.52L1292.87 1934.38C1292.48 1936.15 1292.22 1937.55 1292.1 1938.58 1291.98 1939.62 1291.92 1940.55 1291.92 1941.39 1291.92 1942.74 1292.26 1943.69 1292.93 1944.24 1293.61 1944.8 1294.74 1945.13 1296.33 1945.25L1295.83 1947.45 1277.86 1947.45 1278.36 1945.25C1279.5 1945.07 1280.35 1944.78 1280.92 1944.38 1281.49 1943.97 1281.97 1943.41 1282.36 1942.69 1282.75 1941.97 1283.1 1941.1 1283.43 1940.06 1283.76 1939.03 1284.26 1937.03 1284.92 1934.07L1288.6 1917.4 1264.48 1917.4 1260.75 1934.38C1260.42 1935.88 1260.18 1937.11 1260.03 1938.09 1259.88 1939.06 1259.81 1940.16 1259.81 1941.39 1259.81 1942.68 1260.1 1943.61 1260.7 1944.17 1261.3 1944.74 1262.47 1945.1 1264.21 1945.25L1263.71 1947.45 1245.74 1947.45 1246.24 1945.25C1247.38 1945.07 1248.23 1944.78 1248.8 1944.38 1249.37 1943.97 1249.85 1943.41 1250.24 1942.69 1250.63 1941.97 1250.99 1941.1 1251.31 1940.06 1251.64 1939.03 1252.14 1937.03 1252.8 1934.07L1260.43 1899.48C1260.7 1898.25 1260.94 1896.94 1261.13 1895.55 1261.32 1894.15 1261.42 1893.05 1261.42 1892.25 1261.42 1890.84 1261.07 1889.86 1260.37 1889.3 1259.66 1888.75 1258.55 1888.43 1257.02 1888.34Z" fill-rule="evenodd"/><text fill="#000000" fill-opacity="0" font-family="Arial,Arial_MSFontService,sans-serif" font-size="61.3184" x="1245.74" y="1939.79">𝐻</text><path d="M1325.91 1923.1C1327.98 1923.1 1329.97 1923.26 1331.88 1923.58 1333.79 1923.89 1335.79 1924.4 1337.88 1925.1L1336.02 1933.41 1332.45 1933.41C1332.39 1932.19 1332.2 1931.13 1331.88 1930.25 1331.56 1929.37 1331.12 1928.65 1330.55 1928.09 1329.99 1927.53 1329.27 1927.12 1328.4 1926.85 1327.52 1926.57 1326.49 1926.44 1325.29 1926.44 1324 1926.44 1322.83 1926.61 1321.79 1926.96 1320.74 1927.31 1319.85 1927.81 1319.1 1928.45 1318.36 1929.09 1317.79 1929.87 1317.39 1930.77 1316.98 1931.68 1316.78 1932.67 1316.78 1933.73 1316.78 1934.54 1316.88 1935.28 1317.08 1935.96 1317.27 1936.63 1317.61 1937.29 1318.09 1937.92 1318.57 1938.55 1319.23 1939.2 1320.07 1939.85 1320.91 1940.51 1321.97 1941.23 1323.26 1942.01 1324.83 1942.99 1326.18 1943.92 1327.3 1944.79 1328.42 1945.66 1329.34 1946.57 1330.05 1947.51 1330.76 1948.44 1331.27 1949.44 1331.6 1950.5 1331.93 1951.56 1332.09 1952.74 1332.09 1954.05 1332.09 1955.95 1331.72 1957.68 1330.96 1959.25 1330.21 1960.82 1329.14 1962.17 1327.76 1963.31 1326.37 1964.44 1324.71 1965.32 1322.78 1965.94 1320.85 1966.56 1318.7 1966.87 1316.32 1966.87 1314.32 1966.87 1312.16 1966.7 1309.85 1966.37 1307.53 1966.03 1305.26 1965.53 1303.01 1964.88L1304.94 1956.05 1308.41 1956.05C1308.47 1958.66 1309.17 1960.56 1310.5 1961.74 1311.83 1962.92 1313.88 1963.5 1316.65 1963.5 1318.07 1963.5 1319.34 1963.32 1320.48 1962.95 1321.61 1962.58 1322.57 1962.04 1323.36 1961.35 1324.14 1960.65 1324.74 1959.8 1325.16 1958.79 1325.57 1957.79 1325.78 1956.67 1325.78 1955.42 1325.78 1954.55 1325.67 1953.76 1325.45 1953.05 1325.23 1952.34 1324.85 1951.64 1324.31 1950.94 1323.76 1950.24 1323.02 1949.54 1322.1 1948.82 1321.17 1948.1 1320.02 1947.31 1318.65 1946.46 1317.27 1945.61 1316.08 1944.76 1315.06 1943.92 1314.05 1943.08 1313.2 1942.21 1312.53 1941.31 1311.85 1940.4 1311.35 1939.46 1311.01 1938.48 1310.67 1937.5 1310.5 1936.45 1310.5 1935.34 1310.5 1933.5 1310.86 1931.84 1311.58 1930.35 1312.3 1928.85 1313.33 1927.57 1314.67 1926.49 1316.01 1925.41 1317.64 1924.57 1319.55 1923.98 1321.45 1923.4 1323.58 1923.1 1325.91 1923.1Z" fill-rule="evenodd"/><text fill="#000000" fill-opacity="0" font-family="Arial,Arial_MSFontService,sans-serif" font-size="43.7725" x="1303.01" y="1961.4">𝑆</text><path d="M1389.47 1880.92 1392.57 1880.92 1408.96 1897.64 1406.31 1900.47 1394.23 1890.94 1394.23 1948.17 1387.85 1948.17 1387.85 1890.94 1375.77 1900.47 1373.12 1897.64Z" fill-rule="evenodd"/><text fill="#000000" fill-opacity="0" font-family="Arial,Arial_MSFontService,sans-serif" font-size="67.248" x="1373.12" y="1939.77">↑</text><path d="M1463.74 1885.42C1469.31 1885.42 1473.51 1886.64 1476.36 1889.08 1479.21 1891.52 1480.63 1895.06 1480.63 1899.7 1480.63 1901.29 1480.47 1902.75 1480.16 1904.08 1479.84 1905.41 1479.35 1906.73 1478.67 1908.04 1478 1909.34 1477.09 1910.74 1475.96 1912.24 1474.82 1913.73 1473.56 1915.25 1472.18 1916.8 1470.8 1918.34 1468.42 1920.91 1465.04 1924.5 1459.35 1930.52 1455.17 1935.77 1452.51 1940.27L1469.44 1940.27C1470.91 1940.27 1472.09 1940.18 1472.99 1940 1473.89 1939.82 1474.61 1939.52 1475.15 1939.1 1475.69 1938.68 1476.11 1938.13 1476.43 1937.46 1476.74 1936.79 1477.14 1935.74 1477.62 1934.34L1481.44 1934.34 1480.67 1947.45 1443.7 1947.45 1443.7 1945.3C1444.99 1942.15 1446.73 1938.93 1448.91 1935.64 1451.1 1932.35 1454.2 1928.47 1458.21 1924.01 1461.69 1920.17 1464.19 1917.27 1465.71 1915.29 1467.39 1913.13 1468.64 1911.27 1469.46 1909.7 1470.29 1908.13 1470.88 1906.64 1471.24 1905.25 1471.6 1903.86 1471.78 1902.46 1471.78 1901.05 1471.78 1898.8 1471.42 1896.82 1470.7 1895.1 1469.98 1893.38 1468.88 1892.02 1467.4 1891.03 1465.92 1890.04 1464.05 1889.55 1461.81 1889.55 1456.21 1889.55 1452.43 1892.66 1450.48 1898.89L1445.05 1898.89 1445.05 1890.27C1448.67 1888.56 1452.06 1887.33 1455.22 1886.56 1458.38 1885.8 1461.22 1885.42 1463.74 1885.42Z" fill-rule="evenodd"/><text fill="#000000" fill-opacity="0" font-family="Arial,Arial_MSFontService,sans-serif" font-size="62.0371" x="1443.7" y="1939.7">2</text><path d="M4.13523e-06-1.71875 127.083-1.71844 127.083 1.71906-4.13523e-06 1.71875ZM122.5-13.7497 150 0.000360892 122.5 13.7503Z" transform="matrix(1 0 0 -1 1550.5 1915.5)"/><path d="M0 0 228 0.000360892" stroke="#000000" stroke-width="3.4375" stroke-linejoin="round" stroke-miterlimit="10" fill="none" fill-rule="evenodd" transform="matrix(1 0 0 -1 1554.5 2159.5)"/><path d="M1782.9 1891.61 1788.66 1891.61 1788.66 1914.95 1810.74 1914.95 1810.74 1920.34 1788.66 1920.34 1788.66 1943.68 1782.9 1943.68 1782.9 1920.34 1760.81 1920.34 1760.81 1914.95 1782.9 1914.95Z" fill-rule="evenodd"/><text fill="#000000" fill-opacity="0" font-family="Arial,Arial_MSFontService,sans-serif" font-size="52.0776" x="1760.81" y="1937.17">+</text><path d="M1696.5 1918C1696.5 1872.44 1733.44 1835.5 1779 1835.5 1824.56 1835.5 1861.5 1872.44 1861.5 1918 1861.5 1963.56 1824.56 2000.5 1779 2000.5 1733.44 2000.5 1696.5 1963.56 1696.5 1918Z" stroke="#000000" stroke-width="3.4375" stroke-linejoin="round" stroke-miterlimit="10" fill="none" fill-rule="evenodd"/><path d="M1.71875-4.00184e-06 1.71906 132.083-1.71844 132.083-1.71875 4.00184e-06ZM13.7503 127.5 0.000360892 155-13.7497 127.5Z" transform="matrix(1 0 0 -1 1783.5 2156.5)"/><path d="M4.13523e-06-1.71875 127.083-1.71844 127.083 1.71906-4.13523e-06 1.71875ZM122.5-13.7497 150 0.000360892 122.5 13.7503Z" transform="matrix(1 0 0 -1 1030.5 1907.5)"/><path d="M4.13523e-06-1.71875 127.083-1.71844 127.083 1.71906-4.13523e-06 1.71875ZM122.5-13.7497 150 0.000360892 122.5 13.7503Z" transform="matrix(1 0 0 -1 1030.5 2155.5)"/><path d="M941.064 1822.7C942.038 1822.7 942.87 1822.84 943.559 1823.1 944.034 1823.29 944.51 1823.6 944.985 1824.04 945.46 1824.48 945.882 1825.09 946.25 1825.88 946.619 1826.66 946.939 1827.54 947.213 1828.51 947.486 1829.49 947.789 1830.89 948.122 1832.72 948.692 1835.79 949.244 1839.01 949.779 1842.4 950.314 1845.78 950.771 1848.93 951.151 1851.83 953.456 1848.5 955.411 1845.24 957.015 1842.06 958.619 1838.88 959.771 1836.11 960.472 1833.75 961.173 1831.4 961.524 1829.49 961.524 1828.02 961.524 1826.9 961.286 1826.14 960.811 1825.73 960.336 1825.33 959.528 1825.09 958.387 1825.02L958.744 1823.27 968.118 1823.27 969.081 1825.06C967.275 1830 964.827 1835.29 961.738 1840.92 958.696 1846.43 955.215 1851.92 951.294 1857.39 947.539 1862.59 944.415 1866.36 941.919 1868.69 940.185 1870.28 938.509 1871.42 936.894 1872.11 935.61 1872.63 934.244 1872.89 932.794 1872.89 932.295 1872.89 931.719 1872.85 931.066 1872.77 930.412 1872.68 929.907 1872.57 929.551 1872.43L931.083 1865.51 933.899 1865.51C933.899 1867.03 934.422 1867.79 935.468 1867.79 936.846 1867.79 938.45 1866.93 940.28 1865.21 942.11 1863.49 944.26 1860.89 946.731 1857.42 946.042 1853.26 945.104 1848.25 943.916 1842.38 942.656 1836.11 941.824 1832.22 941.42 1830.72 940.921 1828.92 940.399 1827.77 939.852 1827.27 939.519 1826.96 939.104 1826.8 938.604 1826.8 937.844 1826.8 937.131 1827.11 936.466 1827.73 935.8 1828.35 934.981 1829.42 934.006 1830.94L931.689 1829.41C933.329 1826.96 934.862 1825.23 936.288 1824.22 937.713 1823.21 939.305 1822.7 941.064 1822.7Z" fill-rule="evenodd"/><text fill="#000000" fill-opacity="0" font-family="Arial,Arial_MSFontService,sans-serif" font-size="50.1875" x="929.551" y="1866.62">𝑦</text><path d="M983.726 1838.8C985.107 1838.8 986.396 1838.95 987.595 1839.24 988.794 1839.54 989.834 1839.98 990.714 1840.58 991.594 1841.17 992.279 1841.91 992.771 1842.8 993.263 1843.69 993.509 1844.72 993.509 1845.89 993.509 1847 993.353 1847.97 993.043 1848.82 992.732 1849.66 992.253 1850.43 991.606 1851.12 990.959 1851.81 990.166 1852.44 989.226 1853 988.285 1853.56 987.203 1854.1 985.978 1854.61L985.978 1854.92C987.134 1855.13 988.212 1855.46 989.213 1855.92 990.213 1856.38 991.089 1856.96 991.839 1857.66 992.59 1858.35 993.181 1859.16 993.612 1860.07 994.043 1860.99 994.259 1862 994.259 1863.1 994.259 1864.48 994 1865.76 993.483 1866.95 992.965 1868.13 992.189 1869.15 991.154 1870.01 990.118 1870.88 988.842 1871.55 987.323 1872.03 985.805 1872.51 984.028 1872.76 981.992 1872.76 980.388 1872.76 978.758 1872.6 977.101 1872.28 975.445 1871.96 973.875 1871.54 972.391 1871.02L972.391 1865.43 975.73 1865.43C976.006 1866.29 976.334 1867.03 976.713 1867.64 977.093 1868.26 977.537 1868.76 978.046 1869.15 978.555 1869.53 979.141 1869.81 979.806 1869.99 980.47 1870.16 981.225 1870.25 982.07 1870.25 984.296 1870.25 985.982 1869.71 987.129 1868.65 988.277 1867.59 988.85 1865.98 988.85 1863.83 988.85 1861.53 988.096 1859.79 986.586 1858.61 985.076 1857.43 982.838 1856.84 979.87 1856.84L977.593 1856.84 977.593 1854.36C979.405 1854.27 980.97 1854.01 982.29 1853.59 983.61 1853.17 984.71 1852.62 985.59 1851.95 986.469 1851.28 987.125 1850.49 987.556 1849.59 987.988 1848.7 988.203 1847.74 988.203 1846.72 988.203 1845.07 987.712 1843.76 986.728 1842.8 985.745 1841.84 984.322 1841.36 982.458 1841.36 980.888 1841.36 979.573 1841.8 978.512 1842.66 977.451 1843.52 976.635 1844.81 976.066 1846.51L972.78 1846.51 972.78 1841.42C974.815 1840.55 976.735 1839.9 978.538 1839.46 980.341 1839.02 982.07 1838.8 983.726 1838.8Z" fill-rule="evenodd"/><text fill="#000000" fill-opacity="0" font-family="Arial,Arial_MSFontService,sans-serif" font-size="33.9531" x="972.391" y="1868.51">3</text><path d="M1113.27 1802.49 1129.17 1802.49 1129.17 1870.47 1113.27 1870.47 1113.27 1867.72 1123.25 1867.72 1123.25 1805.24 1113.27 1805.24ZM1010.44 1802.49 1026.34 1802.49 1026.34 1805.24 1016.36 1805.24 1016.36 1867.72 1026.34 1867.72 1026.34 1870.47 1010.44 1870.47Z" fill-rule="evenodd"/><path d="M1048.19 1833.61C1046.43 1833.61 1044.95 1833.89 1043.75 1834.43 1042.55 1834.98 1041.58 1835.71 1040.83 1836.64 1040.08 1837.57 1039.55 1838.66 1039.23 1839.9 1038.91 1841.15 1038.75 1842.49 1038.75 1843.91 1038.75 1845.46 1038.92 1846.9 1039.28 1848.24 1039.64 1849.59 1040.2 1850.74 1040.97 1851.72 1041.75 1852.69 1042.74 1853.47 1043.95 1854.04 1045.16 1854.61 1046.63 1854.89 1048.37 1854.89 1050.32 1854.89 1051.99 1854.49 1053.38 1853.7 1054.77 1852.9 1055.82 1851.72 1056.55 1850.15 1057.27 1848.58 1057.64 1846.73 1057.64 1844.59 1057.64 1842.31 1057.24 1840.34 1056.46 1838.69 1055.68 1837.04 1054.57 1835.78 1053.15 1834.91 1051.72 1834.05 1050.07 1833.61 1048.19 1833.61ZM1048.37 1811.16C1045.38 1811.16 1043.09 1811.97 1041.51 1813.6 1039.93 1815.23 1039.14 1817.54 1039.14 1820.53 1039.14 1821.93 1039.3 1823.25 1039.64 1824.49 1039.97 1825.72 1040.5 1826.79 1041.24 1827.69 1041.98 1828.6 1042.93 1829.32 1044.11 1829.85 1045.29 1830.39 1046.73 1830.65 1048.44 1830.65 1050.41 1830.65 1052.07 1830.27 1053.41 1829.49 1054.76 1828.72 1055.75 1827.59 1056.41 1826.11 1057.06 1824.62 1057.39 1822.91 1057.39 1820.96 1057.39 1818.82 1057 1817.01 1056.23 1815.52 1055.46 1814.04 1054.39 1812.94 1053.04 1812.22 1051.68 1811.51 1050.13 1811.16 1048.37 1811.16ZM1048.44 1808.13C1051.86 1808.13 1054.74 1808.61 1057.07 1809.57 1059.4 1810.53 1061.15 1811.92 1062.32 1813.74 1063.5 1815.56 1064.09 1817.74 1064.09 1820.28 1064.09 1822.89 1063.45 1825.15 1062.16 1827.04 1060.88 1828.92 1058.9 1830.46 1056.21 1831.65L1056.28 1832.11C1058.97 1833.16 1061 1834.69 1062.38 1836.69 1063.76 1838.7 1064.44 1841.12 1064.44 1843.95 1064.44 1846.73 1063.78 1849.18 1062.45 1851.29 1061.12 1853.41 1059.19 1855.04 1056.66 1856.19 1054.13 1857.34 1051.17 1857.92 1047.8 1857.92 1044.64 1857.92 1041.86 1857.39 1039.48 1856.34 1037.09 1855.28 1035.23 1853.73 1033.92 1851.7 1032.6 1849.67 1031.94 1847.28 1031.94 1844.52 1031.94 1842.45 1032.29 1840.66 1033.01 1839.14 1033.72 1837.62 1034.65 1836.36 1035.8 1835.38 1036.96 1834.39 1038.41 1833.49 1040.17 1832.68L1040.1 1832.22C1034.99 1830.01 1032.44 1826.22 1032.44 1820.85 1032.44 1818.4 1033.11 1816.22 1034.45 1814.29 1035.79 1812.37 1037.71 1810.86 1040.19 1809.77 1042.67 1808.67 1045.42 1808.13 1048.44 1808.13Z" fill-rule="evenodd"/><text fill="#000000" fill-opacity="0" font-family="Arial,Arial_MSFontService,sans-serif" font-size="49.7954" x="1031.94" y="1851.7">8</text><path d="M1079.89 1822.67C1081.38 1822.67 1082.56 1823.16 1083.43 1824.15 1084.3 1825.13 1084.73 1826.42 1084.73 1828.02 1084.73 1829.27 1084.45 1830.68 1083.88 1832.22L1084.31 1832.36C1086.63 1829.08 1088.85 1826.66 1090.95 1825.07 1093.06 1823.49 1095.22 1822.7 1097.46 1822.7 1099.67 1822.7 1101.37 1823.34 1102.56 1824.61 1103.74 1825.88 1104.34 1827.65 1104.34 1829.9 1104.34 1831.4 1103.99 1833.53 1103.3 1836.29L1100.99 1845.62C1100.35 1848.21 1100.02 1850.04 1100.02 1851.11 1100.02 1852.06 1100.18 1852.75 1100.49 1853.18 1100.8 1853.61 1101.28 1853.82 1101.95 1853.82 1102.66 1853.82 1103.42 1853.53 1104.23 1852.95 1105.04 1852.37 1106.18 1851.26 1107.65 1849.62L1109.68 1851.61C1107.64 1853.8 1105.86 1855.4 1104.34 1856.41 1102.82 1857.42 1101.08 1857.92 1099.13 1857.92 1097.59 1857.92 1096.35 1857.37 1095.43 1856.26 1094.5 1855.16 1094.04 1853.75 1094.04 1852.04 1094.04 1850.5 1094.43 1848.23 1095.21 1845.23L1096.78 1839.07C1097.35 1836.83 1097.73 1835.18 1097.9 1834.11 1098.08 1833.04 1098.17 1832.17 1098.17 1831.51 1098.17 1829.87 1097.9 1828.69 1097.35 1827.96 1096.8 1827.24 1095.91 1826.87 1094.68 1826.87 1093.68 1826.87 1092.6 1827.27 1091.45 1828.07 1090.3 1828.86 1089.08 1830.07 1087.78 1831.67 1086.49 1833.27 1085.45 1834.83 1084.66 1836.34 1083.88 1837.85 1083.24 1839.71 1082.74 1841.92L1079.35 1857.35 1073.18 1857.35 1078.39 1834.75C1078.91 1832.47 1079.17 1830.71 1079.17 1829.48 1079.17 1828.53 1079.02 1827.84 1078.71 1827.41 1078.4 1826.98 1077.91 1826.77 1077.25 1826.77 1076.51 1826.77 1075.73 1827.07 1074.91 1827.68 1074.09 1828.28 1072.97 1829.38 1071.54 1830.97L1069.51 1828.98C1071.7 1826.7 1073.52 1825.07 1074.97 1824.11 1076.42 1823.15 1078.06 1822.67 1079.89 1822.67Z" fill-rule="evenodd"/><text fill="#000000" fill-opacity="0" font-family="Arial,Arial_MSFontService,sans-serif" font-size="35.2524" x="1069.51" y="1853.51">𝑛</text><path d="M942.645 2085.67C943.62 2085.67 944.451 2085.8 945.14 2086.07 945.616 2086.26 946.091 2086.57 946.566 2087.01 947.041 2087.45 947.463 2088.06 947.831 2088.85 948.2 2089.63 948.521 2090.51 948.794 2091.48 949.067 2092.46 949.37 2093.86 949.703 2095.69 950.273 2098.75 950.826 2101.98 951.36 2105.37 951.895 2108.75 952.352 2111.9 952.733 2114.79 955.038 2111.47 956.992 2108.21 958.596 2105.03 960.2 2101.84 961.353 2099.08 962.054 2096.72 962.755 2094.37 963.105 2092.46 963.105 2090.98 963.105 2089.87 962.868 2089.11 962.392 2088.7 961.917 2088.3 961.109 2088.06 959.968 2087.99L960.325 2086.24 969.699 2086.24 970.662 2088.03C968.856 2092.97 966.408 2098.26 963.319 2103.89 960.277 2109.4 956.796 2114.89 952.875 2120.36 949.121 2125.56 945.996 2129.33 943.501 2131.65 941.766 2133.25 940.091 2134.39 938.475 2135.08 937.192 2135.6 935.825 2135.86 934.376 2135.86 933.877 2135.86 933.3 2135.82 932.647 2135.74 931.993 2135.65 931.488 2135.54 931.132 2135.4L932.665 2128.48 935.481 2128.48C935.481 2130 936.003 2130.76 937.049 2130.76 938.427 2130.76 940.031 2129.9 941.861 2128.18 943.691 2126.46 945.841 2123.86 948.313 2120.39 947.624 2116.23 946.685 2111.22 945.497 2105.35 944.237 2099.08 943.406 2095.19 943.002 2093.69 942.503 2091.89 941.98 2090.73 941.433 2090.24 941.101 2089.93 940.685 2089.77 940.186 2089.77 939.425 2089.77 938.712 2090.08 938.047 2090.7 937.382 2091.32 936.562 2092.39 935.588 2093.91L933.271 2092.37C934.91 2089.93 936.443 2088.2 937.869 2087.19 939.295 2086.18 940.887 2085.67 942.645 2085.67Z" fill-rule="evenodd"/><text fill="#000000" fill-opacity="0" font-family="Arial,Arial_MSFontService,sans-serif" font-size="50.1875" x="931.132" y="2129.59">𝑦</text><path d="M983.436 2108.19C981.78 2110.59 980.128 2112.97 978.48 2115.33 976.833 2117.7 975.172 2120.07 973.499 2122.45L973.499 2122.76 983.436 2122.76 983.436 2117.56C983.436 2116.97 983.445 2116.25 983.462 2115.38 983.479 2114.52 983.501 2113.65 983.527 2112.76 983.552 2111.87 983.583 2111.02 983.617 2110.22 983.652 2109.42 983.686 2108.74 983.721 2108.19ZM984.187 2102.13 988.301 2102.13 988.301 2122.76 988.767 2122.76C989.474 2122.76 990.048 2122.72 990.488 2122.66 990.928 2122.59 991.282 2122.44 991.549 2122.23 991.816 2122.01 992.041 2121.71 992.222 2121.32 992.403 2120.93 992.597 2120.43 992.804 2119.81L995.004 2119.81C994.952 2120.76 994.896 2121.7 994.836 2122.63 994.775 2123.56 994.719 2124.51 994.667 2125.48L988.301 2125.48 988.301 2128.87C988.301 2129.87 988.323 2130.64 988.366 2131.2 988.409 2131.75 988.539 2132.18 988.754 2132.49 988.97 2132.8 989.289 2133.03 989.712 2133.19 990.134 2133.34 990.725 2133.52 991.484 2133.73L991.484 2135.28 980.305 2135.28 980.305 2133.73C980.822 2133.59 981.262 2133.47 981.625 2133.36 981.987 2133.24 982.289 2133.11 982.53 2132.97 982.772 2132.82 982.949 2132.65 983.061 2132.45 983.173 2132.25 983.259 2132 983.32 2131.7 983.38 2131.4 983.414 2131.02 983.423 2130.56 983.432 2130.1 983.436 2129.54 983.436 2128.87L983.436 2125.48 968.866 2125.48 968.866 2123.43C971.437 2119.86 973.99 2116.31 976.526 2112.78 979.062 2109.25 981.616 2105.7 984.187 2102.13Z" fill-rule="evenodd"/><text fill="#000000" fill-opacity="0" font-family="Arial,Arial_MSFontService,sans-serif" font-size="33.1509" x="968.866" y="2131.14">4</text><path d="M1111.72 2065.46 1127.61 2065.46 1127.61 2133.44 1111.72 2133.44 1111.72 2130.69 1121.7 2130.69 1121.7 2068.21 1111.72 2068.21ZM1008.88 2065.46 1024.78 2065.46 1024.78 2068.21 1014.8 2068.21 1014.8 2130.69 1024.78 2130.69 1024.78 2133.44 1008.88 2133.44Z" fill-rule="evenodd"/><path d="M1046.63 2096.58C1044.87 2096.58 1043.39 2096.85 1042.19 2097.4 1040.99 2097.95 1040.02 2098.68 1039.27 2099.61 1038.52 2100.54 1037.99 2101.62 1037.67 2102.87 1037.35 2104.12 1037.19 2105.46 1037.19 2106.88 1037.19 2108.43 1037.36 2109.87 1037.72 2111.21 1038.08 2112.56 1038.64 2113.71 1039.41 2114.69 1040.19 2115.66 1041.18 2116.43 1042.39 2117 1043.6 2117.58 1045.08 2117.86 1046.81 2117.86 1048.76 2117.86 1050.43 2117.46 1051.82 2116.67 1053.21 2115.87 1054.27 2114.69 1054.99 2113.12 1055.72 2111.55 1056.08 2109.7 1056.08 2107.56 1056.08 2105.28 1055.69 2103.31 1054.9 2101.66 1054.12 2100.01 1053.01 2098.75 1051.59 2097.88 1050.16 2097.01 1048.51 2096.58 1046.63 2096.58ZM1046.81 2074.12C1043.82 2074.12 1041.53 2074.94 1039.95 2076.57 1038.37 2078.19 1037.58 2080.5 1037.58 2083.5 1037.58 2084.9 1037.75 2086.22 1038.08 2087.46 1038.41 2088.69 1038.95 2089.76 1039.68 2090.66 1040.42 2091.57 1041.38 2092.29 1042.55 2092.82 1043.73 2093.35 1045.17 2093.62 1046.88 2093.62 1048.85 2093.62 1050.51 2093.24 1051.85 2092.46 1053.2 2091.69 1054.2 2090.56 1054.85 2089.08 1055.5 2087.59 1055.83 2085.88 1055.83 2083.93 1055.83 2081.79 1055.44 2079.98 1054.67 2078.49 1053.9 2077.01 1052.83 2075.91 1051.48 2075.19 1050.13 2074.48 1048.57 2074.12 1046.81 2074.12ZM1046.88 2071.09C1050.3 2071.09 1053.18 2071.58 1055.51 2072.54 1057.84 2073.5 1059.59 2074.89 1060.77 2076.71 1061.94 2078.53 1062.53 2080.71 1062.53 2083.25 1062.53 2085.86 1061.89 2088.11 1060.61 2090 1059.32 2091.89 1057.34 2093.43 1054.65 2094.62L1054.72 2095.08C1057.41 2096.13 1059.44 2097.66 1060.82 2099.66 1062.2 2101.67 1062.89 2104.09 1062.89 2106.92 1062.89 2109.7 1062.22 2112.15 1060.89 2114.26 1059.56 2116.38 1057.63 2118.01 1055.1 2119.16 1052.57 2120.31 1049.61 2120.89 1046.24 2120.89 1043.08 2120.89 1040.31 2120.36 1037.92 2119.3 1035.53 2118.25 1033.68 2116.7 1032.36 2114.67 1031.04 2112.64 1030.38 2110.24 1030.38 2107.49 1030.38 2105.42 1030.74 2103.63 1031.45 2102.11 1032.16 2100.58 1033.09 2099.33 1034.25 2098.34 1035.4 2097.36 1036.85 2096.46 1038.61 2095.65L1038.54 2095.19C1033.43 2092.98 1030.88 2089.19 1030.88 2083.82 1030.88 2081.37 1031.55 2079.19 1032.89 2077.26 1034.23 2075.34 1036.15 2073.83 1038.63 2072.73 1041.11 2071.64 1043.86 2071.09 1046.88 2071.09Z" fill-rule="evenodd"/><text fill="#000000" fill-opacity="0" font-family="Arial,Arial_MSFontService,sans-serif" font-size="49.7954" x="1030.38" y="2114.67">8</text><path d="M1078.33 2085.64C1079.82 2085.64 1081.01 2086.13 1081.87 2087.12 1082.74 2088.1 1083.17 2089.39 1083.17 2090.98 1083.17 2092.24 1082.89 2093.65 1082.32 2095.19L1082.75 2095.33C1085.08 2092.05 1087.29 2089.62 1089.39 2088.04 1091.5 2086.46 1093.67 2085.67 1095.9 2085.67 1098.11 2085.67 1099.81 2086.31 1101 2087.58 1102.19 2088.85 1102.78 2090.62 1102.78 2092.87 1102.78 2094.37 1102.43 2096.5 1101.75 2099.25L1099.43 2108.59C1098.79 2111.18 1098.47 2113.01 1098.47 2114.08 1098.47 2115.03 1098.62 2115.72 1098.93 2116.15 1099.24 2116.58 1099.73 2116.79 1100.39 2116.79 1101.1 2116.79 1101.86 2116.5 1102.67 2115.92 1103.48 2115.34 1104.62 2114.22 1106.09 2112.58L1108.13 2114.58C1106.08 2116.77 1104.3 2118.37 1102.78 2119.38 1101.26 2120.39 1099.52 2120.89 1097.58 2120.89 1096.03 2120.89 1094.8 2120.34 1093.87 2119.23 1092.94 2118.13 1092.48 2116.72 1092.48 2115.01 1092.48 2113.46 1092.87 2111.19 1093.65 2108.2L1095.22 2102.03C1095.79 2099.8 1096.17 2098.15 1096.35 2097.08 1096.52 2096.01 1096.61 2095.14 1096.61 2094.48 1096.61 2092.84 1096.34 2091.66 1095.79 2090.93 1095.25 2090.21 1094.36 2089.84 1093.12 2089.84 1092.12 2089.84 1091.05 2090.24 1089.89 2091.04 1088.74 2091.83 1087.52 2093.03 1086.22 2094.64 1084.93 2096.24 1083.89 2097.8 1083.1 2099.31 1082.32 2100.82 1081.68 2102.68 1081.18 2104.89L1077.79 2120.32 1071.63 2120.32 1076.83 2097.72C1077.35 2095.44 1077.61 2093.68 1077.61 2092.45 1077.61 2091.5 1077.46 2090.81 1077.15 2090.38 1076.84 2089.95 1076.35 2089.74 1075.69 2089.74 1074.95 2089.74 1074.17 2090.04 1073.35 2090.65 1072.54 2091.25 1071.41 2092.35 1069.99 2093.94L1067.95 2091.95C1070.14 2089.67 1071.96 2088.04 1073.41 2087.08 1074.86 2086.12 1076.5 2085.64 1078.33 2085.64Z" fill-rule="evenodd"/><text fill="#000000" fill-opacity="0" font-family="Arial,Arial_MSFontService,sans-serif" font-size="35.2524" x="1067.95" y="2116.48">𝑛</text></g></svg>