<svg width="1653" height="993" xmlns="http://www.w3.org/2000/svg" xmlns:xlink="http://www.w3.org/1999/xlink" overflow="hidden"><defs><clipPath id="clip0"><rect x="1489" y="12778" width="1653" height="993"/></clipPath><clipPath id="clip1"><rect x="1490" y="12778" width="1650" height="990"/></clipPath><clipPath id="clip2"><rect x="1490" y="12778" width="1650" height="990"/></clipPath><clipPath id="clip3"><rect x="1540" y="12948" width="1553" height="525"/></clipPath><clipPath id="clip4"><rect x="1540" y="12948" width="1553" height="525"/></clipPath><clipPath id="clip5"><rect x="1490" y="12778" width="1650" height="990"/></clipPath><clipPath id="clip6"><rect x="1490" y="12778" width="1650" height="990"/></clipPath><clipPath id="clip7"><rect x="1490" y="12778" width="1650" height="990"/></clipPath><clipPath id="clip8"><rect x="1490" y="12778" width="1650" height="990"/></clipPath><clipPath id="clip9"><rect x="1490" y="12778" width="1650" height="990"/></clipPath><clipPath id="clip10"><rect x="1490" y="12778" width="1650" height="990"/></clipPath><clipPath id="clip11"><rect x="1490" y="12778" width="1650" height="990"/></clipPath><clipPath id="clip12"><rect x="1490" y="12778" width="1650" height="990"/></clipPath><clipPath id="clip13"><rect x="1490" y="12778" width="1650" height="990"/></clipPath><clipPath id="clip14"><rect x="1490" y="12778" width="1650" height="990"/></clipPath><clipPath id="clip15"><rect x="1490" y="12778" width="1650" height="990"/></clipPath><clipPath id="clip16"><rect x="1490" y="12778" width="1650" height="990"/></clipPath><clipPath id="clip17"><rect x="1490" y="12778" width="1650" height="990"/></clipPath><clipPath id="clip18"><rect x="1490" y="12778" width="1650" height="990"/></clipPath><clipPath id="clip19"><rect x="1490" y="12778" width="1650" height="990"/></clipPath><clipPath id="clip20"><rect x="1490" y="12778" width="1650" height="990"/></clipPath><clipPath id="clip21"><rect x="1490" y="12778" width="1650" height="990"/></clipPath><clipPath id="clip22"><rect x="1490" y="12778" width="1650" height="990"/></clipPath><clipPath id="clip23"><rect x="1490" y="12778" width="1650" height="990"/></clipPath><clipPath id="clip24"><rect x="1490" y="12778" width="1650" height="990"/></clipPath><clipPath id="clip25"><rect x="1490" y="12778" width="1650" height="990"/></clipPath><clipPath id="clip26"><rect x="1490" y="12778" width="1650" height="990"/></clipPath><clipPath id="clip27"><rect x="1490" y="12778" width="1650" height="990"/></clipPath><clipPath id="clip28"><rect x="1490" y="12778" width="1650" height="990"/></clipPath><clipPath id="clip29"><rect x="1490" y="12778" width="1650" height="990"/></clipPath><clipPath id="clip30"><rect x="1490" y="12778" width="1650" height="990"/></clipPath><clipPath id="clip31"><rect x="1490" y="12778" width="1650" height="990"/></clipPath><clipPath id="clip32"><rect x="1490" y="12778" width="1650" height="990"/></clipPath><clipPath id="clip33"><rect x="1490" y="12778" width="1650" height="990"/></clipPath><clipPath id="clip34"><rect x="1490" y="12778" width="1650" height="990"/></clipPath><clipPath id="clip35"><rect x="1490" y="12778" width="1650" height="990"/></clipPath><clipPath id="clip36"><rect x="1490" y="12778" width="1650" height="990"/></clipPath></defs><g clip-path="url(#clip0)" transform="translate(-1489 -12778)"><g clip-path="url(#clip1)"><path d="M1540.5 13382.9 3089.5 13382.9M1540.5 13295.9 3089.5 13295.9M1540.5 13209.9 3089.5 13209.9M1540.5 13122.9 3089.5 13122.9M1540.5 13035.9 3089.5 13035.9M1540.5 12948.5 3089.5 12948.5" stroke="#D9D9D9" stroke-width="3.4375" stroke-linejoin="round" stroke-miterlimit="10" fill="none"/></g><g clip-path="url(#clip2)"><path d="M1540.5 13470.5 3089.5 13470.5" stroke="#D9D9D9" stroke-width="3.4375" stroke-linejoin="round" stroke-miterlimit="10" fill="none" fill-rule="evenodd"/></g><g clip-path="url(#clip3)"><path d="M1544 13192.4 1551.05 13127.4 1559.05 13036 1566.05 13087.4 1573.05 13148.4 1581.05 13057.4 1588.05 13192.4 1595.05 13222.4 1602.05 13174.4 1610.05 13170.4 1617.05 13226.4 1624.05 13157.4 1631.05 13174.4 1639.05 13231.4 1646.05 13283.4 1653.05 13235.4 1661.05 13218.4 1668.05 13209.4 1675.05 13213.4 1682.06 13244.4 1690.06 13248.4 1697.06 13305.4 1704.06 13274.4 1711.06 13305.4 1719.06 13300.4 1726.06 13266.4 1733.06 13287.4 1741.06 13283.4 1748.06 13309.4 1755.06 13322.4 1762.06 13339.4 1770.06 13348.4 1777.06 13322.4 1784.06 13335.4 1791.06 13305.4 1799.06 13348.4 1806.06 13339.4 1813.06 13370.4 1821.06 13348.4 1828.06 13326.4 1835.06 13322.4 1842.06 13318.4 1850.06 13361.4 1857.06 13352.4 1864.06 13370.4 1871.06 13361.4 1879.06 13348.4 1886.06 13348.4 1893.06 13357.4 1901.06 13361.4 1908.06 13352.4 1915.06 13365.4 1922.06 13374.4 1930.06 13370.4 1937.06 13378.4 1944.06 13396.4 1951.06 13374.4 1959.06 13391.4 1966.06 13365.4 1973.06 13383.4 1981.06 13370.4 1988.07 13383.4 1995.07 13383.4 2002.07 13352.4 2010.07 13378.4 2017.07 13370.4 2024.07 13400.4 2031.07 13383.4 2039.07 13387.4 2046.07 13378.4 2053.07 13383.4 2061.07 13400.4 2068.07 13391.4 2075.07 13387.4 2082.07 13374.4 2090.07 13383.4 2097.07 13391.4 2104.07 13409.4 2111.07 13404.4 2119.07 13409.4 2126.07 13404.4 2133.07 13404.4 2141.07 13400.4 2148.07 13400.4 2155.07 13400.4 2162.07 13396.4 2170.07 13396.4 2177.07 13404.4 2184.07 13396.4 2191.07 13418.4 2199.07 13404.4 2206.07 13413.4 2213.07 13409.4 2221.07 13409.4 2228.07 13409.4 2235.07 13418.4 2242.07 13418.4 2250.07 13413.4 2257.07 13404.4 2264.07 13404.4 2271.07 13404.4 2279.07 13413.4 2286.07 13413.4 2293.08 13426.4 2301.08 13409.4 2308.08 13418.4 2315.08 13413.4 2322.08 13418.4 2330.08 13422.4 2337.08 13413.4 2344.08 13418.4 2351.08 13404.4 2359.08 13422.4 2366.08 13418.4 2373.08 13418.4 2381.08 13426.4 2388.08 13426.4 2395.08 13418.4 2402.08 13413.4 2410.08 13418.4 2417.08 13422.4 2424.08 13418.4 2431.08 13409.4 2439.08 13413.4 2446.08 13418.4 2453.08 13431.4 2461.08 13431.4 2468.08 13431.4 2475.08 13426.4 2482.08 13431.4 2490.08 13422.4 2497.08 13426.4 2504.08 13431.4 2511.08 13426.4 2519.08 13422.4 2526.08 13418.4 2533.08 13422.4 2541.08 13431.4 2548.08 13431.4 2555.08 13435.4 2562.08 13431.4 2570.08 13431.4 2577.08 13435.4 2584.08 13439.4 2591.08 13435.4 2599.09 13431.4 2606.09 13426.4 2613.09 13431.4 2621.09 13431.4 2628.09 13435.4 2635.09 13435.4 2642.09 13435.4 2650.09 13439.4 2657.09 13435.4 2664.09 13431.4 2671.09 13431.4 2679.09 13431.4 2686.09 13431.4 2693.09 13426.4 2701.09 13426.4 2708.09 13431.4 2715.09 13431.4 2722.09 13444.4 2730.09 13448.4 2737.09 13439.4 2744.09 13439.4 2751.09 13435.4 2759.09 13435.4 2766.09 13439.4 2773.09 13439.4 2781.09 13435.4 2788.09 13439.4 2795.09 13444.4 2802.09 13444.4 2810.09 13444.4 2817.09 13444.4 2824.09 13448.4 2831.09 13444.4 2839.09 13439.4 2846.09 13448.4 2853.09 13448.4 2861.09 13439.4 2868.09 13448.4 2875.09 13439.4 2882.09 13448.4 2890.09 13448.4 2897.09 13444.4 2904.1 13448.4 2911.1 13448.4 2919.1 13444.4 2926.1 13439.4 2933.1 13448.4 2941.1 13448.4 2948.1 13444.4 2955.1 13448.4 2962.1 13444.4 2970.1 13448.4 2977.1 13444.4 2984.1 13444.4 2991.1 13448.4 2999.1 13448.4 3006.1 13448.4 3013.1 13452.4 3021.1 13448.4 3028.1 13448.4 3035.1 13448.4 3042.1 13448.4 3050.1 13448.4 3057.1 13448.4 3064.1 13448.4 3071.1 13452.4 3079.1 13457 3086 13452.4" stroke="#4472C4" stroke-width="10.3125" stroke-linecap="round" stroke-linejoin="round" stroke-miterlimit="10" fill="none"/></g><g clip-path="url(#clip4)"><path d="M1544 13470 1551.05 13313.4 1559.05 13444.4 1566.05 13396.4 1573.05 13470 1581.05 13357.4 1588.05 13452.4 1595.05 13374.4 1602.05 13413.4 1610.05 13396.4 1617.05 13426.4 1624.05 13413.4 1631.05 13396.4 1639.05 13391.4 1646.05 13374.4 1653.05 13409.4 1661.05 13396.4 1668.05 13418.4 1675.05 13418.4 1682.06 13426.4 1690.06 13444.4 1697.06 13374.4 1704.06 13435.4 1711.06 13400.4 1719.06 13448.4 1726.06 13448.4 1733.06 13435.4 1741.06 13418.4 1748.06 13404.4 1755.06 13422.4 1762.06 13413.4 1770.06 13444.4 1777.06 13422.4 1784.06 13431.4 1791.06 13409.4 1799.06 13413.4 1806.06 13431.4 1813.06 13448.4 1821.06 13439.4 1828.06 13431.4 1835.06 13435.4 1842.06 13444.4 1850.06 13418.4 1857.06 13426.4 1864.06 13444.4 1871.06 13431.4 1879.06 13431.4 1886.06 13422.4 1893.06 13400.4 1901.06 13422.4 1908.06 13431.4 1915.06 13422.4 1922.06 13426.4 1930.06 13457.4 1937.06 13422.4 1944.06 13422.4 1951.06 13431.4 1959.06 13422.4 1966.06 13409.4 1973.06 13431.4 1981.06 13422.4 1988.07 13413.4 1995.07 13435.4 2002.07 13439.4 2010.07 13444.4 2017.07 13426.4 2024.07 13435.4 2031.07 13448.4 2039.07 13426.4 2046.07 13444.4 2053.07 13439.4 2061.07 13418.4 2068.07 13426.4 2075.07 13426.4 2082.07 13439.4 2090.07 13422.4 2097.07 13431.4 2104.07 13435.4 2111.07 13444.4 2119.07 13435.4 2126.07 13431.4 2133.07 13431.4 2141.07 13435.4 2148.07 13444.4 2155.07 13439.4 2162.07 13448.4 2170.07 13422.4 2177.07 13448.4 2184.07 13439.4 2191.07 13439.4 2199.07 13439.4 2206.07 13439.4 2213.07 13435.4 2221.07 13439.4 2228.07 13444.4 2235.07 13439.4 2242.07 13444.4 2250.07 13435.4 2257.07 13435.4 2264.07 13439.4 2271.07 13435.4 2279.07 13448.4 2286.07 13439.4 2293.08 13444.4 2301.08 13439.4 2308.08 13431.4 2315.08 13439.4 2322.08 13439.4 2330.08 13448.4 2337.08 13448.4 2344.08 13435.4 2351.08 13431.4 2359.08 13444.4 2366.08 13439.4 2373.08 13435.4 2381.08 13448.4 2388.08 13435.4 2395.08 13435.4 2402.08 13435.4 2410.08 13439.4 2417.08 13435.4 2424.08 13426.4 2431.08 13418.4 2439.08 13435.4 2446.08 13426.4 2453.08 13426.4 2461.08 13431.4 2468.08 13431.4 2475.08 13418.4 2482.08 13418.4 2490.08 13418.4 2497.08 13418.4 2504.08 13413.4 2511.08 13400.4 2519.08 13404.4 2526.08 13387.4 2533.08 13383.4 2541.08 13391.4 2548.08 13396.4 2555.08 13387.4 2562.08 13387.4 2570.08 13365.4 2577.08 13374.4 2584.08 13378.4 2591.08 13352.4 2599.09 13348.4 2606.09 13331.4 2613.09 13309.4 2621.09 13309.4 2628.09 13287.4 2635.09 13339.4 2642.09 13322.4 2650.09 13309.4 2657.09 13283.4 2664.09 13231.4 2671.09 13287.4 2679.09 13252.4 2686.09 13231.4 2693.09 13200.4 2701.09 13205.4 2708.09 13200.4 2715.09 13196.4 2722.09 13196.4 2730.09 13205.4 2737.09 13200.4 2744.09 13174.4 2751.09 13100.4 2759.09 13122.4 2766.09 13118.4 2773.09 13135.4 2781.09 13105.4 2788.09 13070.4 2795.09 13087.4 2802.09 13109.4 2810.09 13153.4 2817.09 13131.4 2824.09 13118.4 2831.09 13087.4 2839.09 13036 2846.09 13118.4 2853.09 13114.4 2861.09 13114.4 2868.09 13079.4 2875.09 13048.4 2882.09 13044.4 2890.09 13061.4 2897.09 13105.4 2904.1 13131.4 2911.1 13083.4 2919.1 13083.4 2926.1 13061.4 2933.1 13074.4 2941.1 13087.4 2948.1 13057.4 2955.1 13114.4 2962.1 13083.4 2970.1 13061.4 2977.1 13070.4 2984.1 13092.4 2991.1 13127.4 2999.1 13122.4 3006.1 13157.4 3013.1 13140.4 3021.1 13174.4 3028.1 13196.4 3035.1 13174.4 3042.1 13122.4 3050.1 13135.4 3057.1 13114.4 3064.1 13127.4 3071.1 13166.4 3079.1 13205.4 3086 13192.4" stroke="#ED7D31" stroke-width="10.3125" stroke-linecap="round" stroke-linejoin="round" stroke-miterlimit="10" fill="none"/></g><g clip-path="url(#clip5)"><text fill="#595959" font-family="Calibri,Calibri_MSFontService,sans-serif" font-weight="400" font-size="41" transform="matrix(6.12323e-17 -1 1 6.12323e-17 1558.04 13634)">2004-01</text></g><g clip-path="url(#clip6)"><text fill="#595959" font-family="Calibri,Calibri_MSFontService,sans-serif" font-weight="400" font-size="41" transform="matrix(6.12323e-17 -1 1 6.12323e-17 1616.22 13634)">2004-09</text></g><g clip-path="url(#clip7)"><text fill="#595959" font-family="Calibri,Calibri_MSFontService,sans-serif" font-weight="400" font-size="41" transform="matrix(6.12323e-17 -1 1 6.12323e-17 1674.4 13634)">2005-05</text></g><g clip-path="url(#clip8)"><text fill="#595959" font-family="Calibri,Calibri_MSFontService,sans-serif" font-weight="400" font-size="41" transform="matrix(6.12323e-17 -1 1 6.12323e-17 1732.59 13634)">2006-01</text></g><g clip-path="url(#clip9)"><text fill="#595959" font-family="Calibri,Calibri_MSFontService,sans-serif" font-weight="400" font-size="41" transform="matrix(6.12323e-17 -1 1 6.12323e-17 1790.77 13634)">2006-09</text></g><g clip-path="url(#clip10)"><text fill="#595959" font-family="Calibri,Calibri_MSFontService,sans-serif" font-weight="400" font-size="41" transform="matrix(6.12323e-17 -1 1 6.12323e-17 1848.96 13634)">2007-05</text></g><g clip-path="url(#clip11)"><text fill="#595959" font-family="Calibri,Calibri_MSFontService,sans-serif" font-weight="400" font-size="41" transform="matrix(6.12323e-17 -1 1 6.12323e-17 1907.14 13634)">2008-01</text></g><g clip-path="url(#clip12)"><text fill="#595959" font-family="Calibri,Calibri_MSFontService,sans-serif" font-weight="400" font-size="41" transform="matrix(6.12323e-17 -1 1 6.12323e-17 1965.33 13634)">2008-09</text></g><g clip-path="url(#clip13)"><text fill="#595959" font-family="Calibri,Calibri_MSFontService,sans-serif" font-weight="400" font-size="41" transform="matrix(6.12323e-17 -1 1 6.12323e-17 2023.51 13634)">2009-05</text></g><g clip-path="url(#clip14)"><text fill="#595959" font-family="Calibri,Calibri_MSFontService,sans-serif" font-weight="400" font-size="41" transform="matrix(6.12323e-17 -1 1 6.12323e-17 2081.7 13634)">2010-01</text></g><g clip-path="url(#clip15)"><text fill="#595959" font-family="Calibri,Calibri_MSFontService,sans-serif" font-weight="400" font-size="41" transform="matrix(6.12323e-17 -1 1 6.12323e-17 2139.88 13634)">2010-09</text></g><g clip-path="url(#clip16)"><text fill="#595959" font-family="Calibri,Calibri_MSFontService,sans-serif" font-weight="400" font-size="41" transform="matrix(6.12323e-17 -1 1 6.12323e-17 2198.07 13634)">2011-05</text></g><g clip-path="url(#clip17)"><text fill="#595959" font-family="Calibri,Calibri_MSFontService,sans-serif" font-weight="400" font-size="41" transform="matrix(6.12323e-17 -1 1 6.12323e-17 2256.25 13634)">2012-01</text></g><g clip-path="url(#clip18)"><text fill="#595959" font-family="Calibri,Calibri_MSFontService,sans-serif" font-weight="400" font-size="41" transform="matrix(6.12323e-17 -1 1 6.12323e-17 2314.44 13634)">2012-09</text></g><g clip-path="url(#clip19)"><text fill="#595959" font-family="Calibri,Calibri_MSFontService,sans-serif" font-weight="400" font-size="41" transform="matrix(6.12323e-17 -1 1 6.12323e-17 2372.62 13634)">2013-05</text></g><g clip-path="url(#clip20)"><text fill="#595959" font-family="Calibri,Calibri_MSFontService,sans-serif" font-weight="400" font-size="41" transform="matrix(6.12323e-17 -1 1 6.12323e-17 2430.81 13634)">2014-01</text></g><g clip-path="url(#clip21)"><text fill="#595959" font-family="Calibri,Calibri_MSFontService,sans-serif" font-weight="400" font-size="41" transform="matrix(6.12323e-17 -1 1 6.12323e-17 2488.99 13634)">2014-09</text></g><g clip-path="url(#clip22)"><text fill="#595959" font-family="Calibri,Calibri_MSFontService,sans-serif" font-weight="400" font-size="41" transform="matrix(6.12323e-17 -1 1 6.12323e-17 2547.17 13634)">2015-05</text></g><g clip-path="url(#clip23)"><text fill="#595959" font-family="Calibri,Calibri_MSFontService,sans-serif" font-weight="400" font-size="41" transform="matrix(6.12323e-17 -1 1 6.12323e-17 2605.36 13634)">2016-01</text></g><g clip-path="url(#clip24)"><text fill="#595959" font-family="Calibri,Calibri_MSFontService,sans-serif" font-weight="400" font-size="41" transform="matrix(6.12323e-17 -1 1 6.12323e-17 2663.54 13634)">2016-09</text></g><g clip-path="url(#clip25)"><text fill="#595959" font-family="Calibri,Calibri_MSFontService,sans-serif" font-weight="400" font-size="41" transform="matrix(6.12323e-17 -1 1 6.12323e-17 2721.73 13634)">2017-05</text></g><g clip-path="url(#clip26)"><text fill="#595959" font-family="Calibri,Calibri_MSFontService,sans-serif" font-weight="400" font-size="41" transform="matrix(6.12323e-17 -1 1 6.12323e-17 2779.91 13634)">2018-01</text></g><g clip-path="url(#clip27)"><text fill="#595959" font-family="Calibri,Calibri_MSFontService,sans-serif" font-weight="400" font-size="41" transform="matrix(6.12323e-17 -1 1 6.12323e-17 2838.1 13634)">2018-09</text></g><g clip-path="url(#clip28)"><text fill="#595959" font-family="Calibri,Calibri_MSFontService,sans-serif" font-weight="400" font-size="41" transform="matrix(6.12323e-17 -1 1 6.12323e-17 2896.28 13634)">2019-05</text></g><g clip-path="url(#clip29)"><text fill="#595959" font-family="Calibri,Calibri_MSFontService,sans-serif" font-weight="400" font-size="41" transform="matrix(6.12323e-17 -1 1 6.12323e-17 2954.47 13634)">2020-01</text></g><g clip-path="url(#clip30)"><text fill="#595959" font-family="Calibri,Calibri_MSFontService,sans-serif" font-weight="400" font-size="41" transform="matrix(6.12323e-17 -1 1 6.12323e-17 3012.65 13634)">2020-09</text></g><g clip-path="url(#clip31)"><text fill="#595959" font-family="Calibri,Calibri_MSFontService,sans-serif" font-weight="400" font-size="41" transform="matrix(6.12323e-17 -1 1 6.12323e-17 3070.84 13634)">2021-05</text></g><g clip-path="url(#clip32)"><text fill="#595959" font-family="Calibri,Calibri_MSFontService,sans-serif" font-weight="400" font-size="64" transform="matrix(1 0 0 1 2034.31 12874)">Google Search Trends</text></g><g clip-path="url(#clip33)"><path d="M1831 13703 1919 13703" stroke="#4472C4" stroke-width="10.3125" stroke-linecap="round" stroke-linejoin="round" stroke-miterlimit="10" fill="none" fill-rule="evenodd"/></g><g clip-path="url(#clip34)"><text fill="#595959" font-family="Calibri,Calibri_MSFontService,sans-serif" font-weight="400" font-size="41" transform="matrix(1 0 0 1 1928.23 13714)">"Wavelet"</text></g><g clip-path="url(#clip35)"><path d="M2176 13703 2264 13703" stroke="#ED7D31" stroke-width="10.3125" stroke-linecap="round" stroke-linejoin="round" stroke-miterlimit="10" fill="none" fill-rule="evenodd"/></g><g clip-path="url(#clip36)"><text fill="#595959" font-family="Calibri,Calibri_MSFontService,sans-serif" font-weight="400" font-size="41" transform="matrix(1 0 0 1 2273.08 13714)">"Convolutional Neural Network"</text></g><rect x="1490.5" y="12779.5" width="1650" height="990" stroke="#D9D9D9" stroke-width="3.4375" stroke-linejoin="round" stroke-miterlimit="10" fill="none"/></g></svg>