<?xml version="1.0" encoding="utf-8"?>
<svg xmlns="http://www.w3.org/2000/svg" xmlns:xlink="http://www.w3.org/1999/xlink" width="700" height="350" viewBox="0 0 2800 1400">
<defs>
  <clipPath id="clip880">
    <rect x="0" y="0" width="2800" height="1400"/>
  </clipPath>
</defs>
<path clip-path="url(#clip880)" d="
M0 1400 L2800 1400 L2800 0 L0 0  Z
  " fill="#ffffff" fill-rule="evenodd" fill-opacity="1"/>
<defs>
  <clipPath id="clip881">
    <rect x="560" y="0" width="1961" height="1400"/>
  </clipPath>
</defs>
<path clip-path="url(#clip880)" d="
M276.749 1173.5 L2689.76 1173.5 L2689.76 110.236 L276.749 110.236  Z
  " fill="#ffffff" fill-rule="evenodd" fill-opacity="1"/>
<defs>
  <clipPath id="clip882">
    <rect x="276" y="110" width="2414" height="1064"/>
  </clipPath>
</defs>
<polyline clip-path="url(#clip882)" style="stroke:#000000; stroke-linecap:butt; stroke-linejoin:round; stroke-width:2; stroke-opacity:0.1; fill:none" points="
  333.828,1173.5 333.828,110.236 
  "/>
<polyline clip-path="url(#clip882)" style="stroke:#000000; stroke-linecap:butt; stroke-linejoin:round; stroke-width:2; stroke-opacity:0.1; fill:none" points="
  922.812,1173.5 922.812,110.236 
  "/>
<polyline clip-path="url(#clip882)" style="stroke:#000000; stroke-linecap:butt; stroke-linejoin:round; stroke-width:2; stroke-opacity:0.1; fill:none" points="
  1511.8,1173.5 1511.8,110.236 
  "/>
<polyline clip-path="url(#clip882)" style="stroke:#000000; stroke-linecap:butt; stroke-linejoin:round; stroke-width:2; stroke-opacity:0.1; fill:none" points="
  2100.78,1173.5 2100.78,110.236 
  "/>
<polyline clip-path="url(#clip882)" style="stroke:#000000; stroke-linecap:butt; stroke-linejoin:round; stroke-width:2; stroke-opacity:0.1; fill:none" points="
  2689.76,1173.5 2689.76,110.236 
  "/>
<polyline clip-path="url(#clip880)" style="stroke:#000000; stroke-linecap:butt; stroke-linejoin:round; stroke-width:4; stroke-opacity:1; fill:none" points="
  276.749,1173.5 2689.76,1173.5 
  "/>
<polyline clip-path="url(#clip880)" style="stroke:#000000; stroke-linecap:butt; stroke-linejoin:round; stroke-width:4; stroke-opacity:1; fill:none" points="
  333.828,1173.5 333.828,1154.6 
  "/>
<polyline clip-path="url(#clip880)" style="stroke:#000000; stroke-linecap:butt; stroke-linejoin:round; stroke-width:4; stroke-opacity:1; fill:none" points="
  922.812,1173.5 922.812,1154.6 
  "/>
<polyline clip-path="url(#clip880)" style="stroke:#000000; stroke-linecap:butt; stroke-linejoin:round; stroke-width:4; stroke-opacity:1; fill:none" points="
  1511.8,1173.5 1511.8,1154.6 
  "/>
<polyline clip-path="url(#clip880)" style="stroke:#000000; stroke-linecap:butt; stroke-linejoin:round; stroke-width:4; stroke-opacity:1; fill:none" points="
  2100.78,1173.5 2100.78,1154.6 
  "/>
<polyline clip-path="url(#clip880)" style="stroke:#000000; stroke-linecap:butt; stroke-linejoin:round; stroke-width:4; stroke-opacity:1; fill:none" points="
  2689.76,1173.5 2689.76,1154.6 
  "/>
<path clip-path="url(#clip880)" d="M298.284 1250.82 L305.923 1250.82 L305.923 1224.45 L297.613 1226.12 L297.613 1221.86 L305.876 1220.2 L310.552 1220.2 L310.552 1250.82 L318.191 1250.82 L318.191 1254.76 L298.284 1254.76 L298.284 1250.82 Z" fill="#000000" fill-rule="evenodd" fill-opacity="1" /><path clip-path="url(#clip880)" d="M337.636 1223.27 Q334.024 1223.27 332.196 1226.84 Q330.39 1230.38 330.39 1237.51 Q330.39 1244.62 332.196 1248.18 Q334.024 1251.72 337.636 1251.72 Q341.27 1251.72 343.075 1248.18 Q344.904 1244.62 344.904 1237.51 Q344.904 1230.38 343.075 1226.84 Q341.27 1223.27 337.636 1223.27 M337.636 1219.57 Q343.446 1219.57 346.501 1224.18 Q349.58 1228.76 349.58 1237.51 Q349.58 1246.24 346.501 1250.84 Q343.446 1255.43 337.636 1255.43 Q331.825 1255.43 328.747 1250.84 Q325.691 1246.24 325.691 1237.51 Q325.691 1228.76 328.747 1224.18 Q331.825 1219.57 337.636 1219.57 Z" fill="#000000" fill-rule="evenodd" fill-opacity="1" /><path clip-path="url(#clip880)" d="M362.256 1202.58 L352.664 1217.56 L362.256 1217.56 L362.256 1202.58 M361.26 1199.26 L366.037 1199.26 L366.037 1217.56 L370.043 1217.56 L370.043 1220.72 L366.037 1220.72 L366.037 1227.34 L362.256 1227.34 L362.256 1220.72 L349.58 1220.72 L349.58 1217.06 L361.26 1199.26 Z" fill="#000000" fill-rule="evenodd" fill-opacity="1" /><path clip-path="url(#clip880)" d="M888.415 1250.82 L896.054 1250.82 L896.054 1224.45 L887.744 1226.12 L887.744 1221.86 L896.008 1220.2 L900.684 1220.2 L900.684 1250.82 L908.322 1250.82 L908.322 1254.76 L888.415 1254.76 L888.415 1250.82 Z" fill="#000000" fill-rule="evenodd" fill-opacity="1" /><path clip-path="url(#clip880)" d="M927.767 1223.27 Q924.156 1223.27 922.327 1226.84 Q920.521 1230.38 920.521 1237.51 Q920.521 1244.62 922.327 1248.18 Q924.156 1251.72 927.767 1251.72 Q931.401 1251.72 933.207 1248.18 Q935.035 1244.62 935.035 1237.51 Q935.035 1230.38 933.207 1226.84 Q931.401 1223.27 927.767 1223.27 M927.767 1219.57 Q933.577 1219.57 936.633 1224.18 Q939.711 1228.76 939.711 1237.51 Q939.711 1246.24 936.633 1250.84 Q933.577 1255.43 927.767 1255.43 Q921.957 1255.43 918.878 1250.84 Q915.822 1246.24 915.822 1237.51 Q915.822 1228.76 918.878 1224.18 Q921.957 1219.57 927.767 1219.57 Z" fill="#000000" fill-rule="evenodd" fill-opacity="1" /><path clip-path="url(#clip880)" d="M940.896 1199.26 L955.811 1199.26 L955.811 1202.46 L944.376 1202.46 L944.376 1209.35 Q945.203 1209.06 946.031 1208.93 Q946.858 1208.78 947.686 1208.78 Q952.388 1208.78 955.134 1211.36 Q957.88 1213.93 957.88 1218.34 Q957.88 1222.87 955.058 1225.39 Q952.237 1227.89 947.103 1227.89 Q945.335 1227.89 943.492 1227.59 Q941.667 1227.29 939.711 1226.69 L939.711 1222.87 Q941.404 1223.79 943.209 1224.24 Q945.015 1224.69 947.027 1224.69 Q950.281 1224.69 952.181 1222.98 Q954.08 1221.27 954.08 1218.34 Q954.08 1215.4 952.181 1213.69 Q950.281 1211.98 947.027 1211.98 Q945.504 1211.98 943.981 1212.32 Q942.476 1212.66 940.896 1213.37 L940.896 1199.26 Z" fill="#000000" fill-rule="evenodd" fill-opacity="1" /><path clip-path="url(#clip880)" d="M1476.79 1250.82 L1484.43 1250.82 L1484.43 1224.45 L1476.12 1226.12 L1476.12 1221.86 L1484.38 1220.2 L1489.06 1220.2 L1489.06 1250.82 L1496.7 1250.82 L1496.7 1254.76 L1476.79 1254.76 L1476.79 1250.82 Z" fill="#000000" fill-rule="evenodd" fill-opacity="1" /><path clip-path="url(#clip880)" d="M1516.14 1223.27 Q1512.53 1223.27 1510.7 1226.84 Q1508.89 1230.38 1508.89 1237.51 Q1508.89 1244.62 1510.7 1248.18 Q1512.53 1251.72 1516.14 1251.72 Q1519.77 1251.72 1521.58 1248.18 Q1523.41 1244.62 1523.41 1237.51 Q1523.41 1230.38 1521.58 1226.84 Q1519.77 1223.27 1516.14 1223.27 M1516.14 1219.57 Q1521.95 1219.57 1525.01 1224.18 Q1528.08 1228.76 1528.08 1237.51 Q1528.08 1246.24 1525.01 1250.84 Q1521.95 1255.43 1516.14 1255.43 Q1510.33 1255.43 1507.25 1250.84 Q1504.2 1246.24 1504.2 1237.51 Q1504.2 1228.76 1507.25 1224.18 Q1510.33 1219.57 1516.14 1219.57 Z" fill="#000000" fill-rule="evenodd" fill-opacity="1" /><path clip-path="url(#clip880)" d="M1538.11 1211.79 Q1535.55 1211.79 1534.05 1213.54 Q1532.56 1215.29 1532.56 1218.34 Q1532.56 1221.36 1534.05 1223.13 Q1535.55 1224.88 1538.11 1224.88 Q1540.67 1224.88 1542.15 1223.13 Q1543.66 1221.36 1543.66 1218.34 Q1543.66 1215.29 1542.15 1213.54 Q1540.67 1211.79 1538.11 1211.79 M1545.65 1199.89 L1545.65 1203.35 Q1544.22 1202.67 1542.75 1202.31 Q1541.31 1201.95 1539.88 1201.95 Q1536.11 1201.95 1534.12 1204.49 Q1532.15 1207.03 1531.86 1212.17 Q1532.97 1210.53 1534.65 1209.67 Q1536.32 1208.78 1538.33 1208.78 Q1542.57 1208.78 1545.01 1211.36 Q1547.47 1213.92 1547.47 1218.34 Q1547.47 1222.66 1544.92 1225.28 Q1542.36 1227.89 1538.11 1227.89 Q1533.24 1227.89 1530.66 1224.17 Q1528.08 1220.42 1528.08 1213.33 Q1528.08 1206.68 1531.24 1202.73 Q1534.4 1198.76 1539.73 1198.76 Q1541.16 1198.76 1542.6 1199.04 Q1544.07 1199.32 1545.65 1199.89 Z" fill="#000000" fill-rule="evenodd" fill-opacity="1" /><path clip-path="url(#clip880)" d="M2066.44 1250.82 L2074.08 1250.82 L2074.08 1224.45 L2065.77 1226.12 L2065.77 1221.86 L2074.03 1220.2 L2078.71 1220.2 L2078.71 1250.82 L2086.35 1250.82 L2086.35 1254.76 L2066.44 1254.76 L2066.44 1250.82 Z" fill="#000000" fill-rule="evenodd" fill-opacity="1" /><path clip-path="url(#clip880)" d="M2105.79 1223.27 Q2102.18 1223.27 2100.35 1226.84 Q2098.55 1230.38 2098.55 1237.51 Q2098.55 1244.62 2100.35 1248.18 Q2102.18 1251.72 2105.79 1251.72 Q2109.43 1251.72 2111.23 1248.18 Q2113.06 1244.62 2113.06 1237.51 Q2113.06 1230.38 2111.23 1226.84 Q2109.43 1223.27 2105.79 1223.27 M2105.79 1219.57 Q2111.6 1219.57 2114.66 1224.18 Q2117.74 1228.76 2117.74 1237.51 Q2117.74 1246.24 2114.66 1250.84 Q2111.6 1255.43 2105.79 1255.43 Q2099.98 1255.43 2096.9 1250.84 Q2093.85 1246.24 2093.85 1237.51 Q2093.85 1228.76 2096.9 1224.18 Q2099.98 1219.57 2105.79 1219.57 Z" fill="#000000" fill-rule="evenodd" fill-opacity="1" /><path clip-path="url(#clip880)" d="M2117.74 1199.26 L2135.79 1199.26 L2135.79 1200.88 L2125.6 1227.34 L2121.63 1227.34 L2131.22 1202.46 L2117.74 1202.46 L2117.74 1199.26 Z" fill="#000000" fill-rule="evenodd" fill-opacity="1" /><path clip-path="url(#clip880)" d="M2654.82 1250.82 L2662.46 1250.82 L2662.46 1224.45 L2654.15 1226.12 L2654.15 1221.86 L2662.41 1220.2 L2667.09 1220.2 L2667.09 1250.82 L2674.73 1250.82 L2674.73 1254.76 L2654.82 1254.76 L2654.82 1250.82 Z" fill="#000000" fill-rule="evenodd" fill-opacity="1" /><path clip-path="url(#clip880)" d="M2694.17 1223.27 Q2690.56 1223.27 2688.73 1226.84 Q2686.93 1230.38 2686.93 1237.51 Q2686.93 1244.62 2688.73 1248.18 Q2690.56 1251.72 2694.17 1251.72 Q2697.81 1251.72 2699.61 1248.18 Q2701.44 1244.62 2701.44 1237.51 Q2701.44 1230.38 2699.61 1226.84 Q2697.81 1223.27 2694.17 1223.27 M2694.17 1219.57 Q2699.98 1219.57 2703.04 1224.18 Q2706.12 1228.76 2706.12 1237.51 Q2706.12 1246.24 2703.04 1250.84 Q2699.98 1255.43 2694.17 1255.43 Q2688.36 1255.43 2685.28 1250.84 Q2682.23 1246.24 2682.23 1237.51 Q2682.23 1228.76 2685.28 1224.18 Q2688.36 1219.57 2694.17 1219.57 Z" fill="#000000" fill-rule="evenodd" fill-opacity="1" /><path clip-path="url(#clip880)" d="M2715.75 1214.01 Q2713.04 1214.01 2711.48 1215.46 Q2709.94 1216.91 2709.94 1219.45 Q2709.94 1221.98 2711.48 1223.43 Q2713.04 1224.88 2715.75 1224.88 Q2718.46 1224.88 2720.02 1223.43 Q2721.58 1221.97 2721.58 1219.45 Q2721.58 1216.91 2720.02 1215.46 Q2718.47 1214.01 2715.75 1214.01 M2711.95 1212.39 Q2709.5 1211.79 2708.13 1210.12 Q2706.78 1208.44 2706.78 1206.04 Q2706.78 1202.67 2709.16 1200.71 Q2711.57 1198.76 2715.75 1198.76 Q2719.94 1198.76 2722.33 1200.71 Q2724.72 1202.67 2724.72 1206.04 Q2724.72 1208.44 2723.35 1210.12 Q2721.99 1211.79 2719.57 1212.39 Q2722.31 1213.03 2723.83 1214.89 Q2725.38 1216.76 2725.38 1219.45 Q2725.38 1223.53 2722.88 1225.71 Q2720.39 1227.89 2715.75 1227.89 Q2711.1 1227.89 2708.6 1225.71 Q2706.12 1223.53 2706.12 1219.45 Q2706.12 1216.76 2707.66 1214.89 Q2709.2 1213.03 2711.95 1212.39 M2710.56 1206.39 Q2710.56 1208.57 2711.91 1209.8 Q2713.28 1211.02 2715.75 1211.02 Q2718.19 1211.02 2719.57 1209.8 Q2720.96 1208.57 2720.96 1206.39 Q2720.96 1204.21 2719.57 1202.99 Q2718.19 1201.77 2715.75 1201.77 Q2713.28 1201.77 2711.91 1202.99 Q2710.56 1204.21 2710.56 1206.39 Z" fill="#000000" fill-rule="evenodd" fill-opacity="1" /><path clip-path="url(#clip880)" d="M1156.33 1295.26 L1162.76 1295.26 L1162.76 1342.78 L1156.33 1342.78 L1156.33 1295.26 Z" fill="#000000" fill-rule="evenodd" fill-opacity="1" /><path clip-path="url(#clip880)" d="M1204.93 1321.27 L1204.93 1342.78 L1199.08 1342.78 L1199.08 1321.46 Q1199.08 1316.4 1197.1 1313.88 Q1195.13 1311.37 1191.18 1311.37 Q1186.44 1311.37 1183.7 1314.39 Q1180.97 1317.42 1180.97 1322.64 L1180.97 1342.78 L1175.08 1342.78 L1175.08 1307.14 L1180.97 1307.14 L1180.97 1312.67 Q1183.07 1309.46 1185.9 1307.87 Q1188.76 1306.28 1192.49 1306.28 Q1198.63 1306.28 1201.78 1310.1 Q1204.93 1313.88 1204.93 1321.27 Z" fill="#000000" fill-rule="evenodd" fill-opacity="1" /><path clip-path="url(#clip880)" d="M1222.28 1337.44 L1222.28 1356.34 L1216.39 1356.34 L1216.39 1307.14 L1222.28 1307.14 L1222.28 1312.55 Q1224.12 1309.36 1226.93 1307.84 Q1229.76 1306.28 1233.67 1306.28 Q1240.17 1306.28 1244.21 1311.43 Q1248.28 1316.59 1248.28 1324.99 Q1248.28 1333.39 1244.21 1338.55 Q1240.17 1343.71 1233.67 1343.71 Q1229.76 1343.71 1226.93 1342.18 Q1224.12 1340.62 1222.28 1337.44 M1242.2 1324.99 Q1242.2 1318.53 1239.53 1314.87 Q1236.89 1311.18 1232.24 1311.18 Q1227.59 1311.18 1224.92 1314.87 Q1222.28 1318.53 1222.28 1324.99 Q1222.28 1331.45 1224.92 1335.15 Q1227.59 1338.81 1232.24 1338.81 Q1236.89 1338.81 1239.53 1335.15 Q1242.2 1331.45 1242.2 1324.99 Z" fill="#000000" fill-rule="evenodd" fill-opacity="1" /><path clip-path="url(#clip880)" d="M1257.39 1328.72 L1257.39 1307.14 L1263.24 1307.14 L1263.24 1328.49 Q1263.24 1333.55 1265.22 1336.1 Q1267.19 1338.61 1271.14 1338.61 Q1275.88 1338.61 1278.61 1335.59 Q1281.38 1332.57 1281.38 1327.35 L1281.38 1307.14 L1287.24 1307.14 L1287.24 1342.78 L1281.38 1342.78 L1281.38 1337.31 Q1279.25 1340.56 1276.42 1342.15 Q1273.62 1343.71 1269.89 1343.71 Q1263.75 1343.71 1260.57 1339.89 Q1257.39 1336.07 1257.39 1328.72 M1272.12 1306.28 L1272.12 1306.28 Z" fill="#000000" fill-rule="evenodd" fill-opacity="1" /><path clip-path="url(#clip880)" d="M1305.1 1297.01 L1305.1 1307.14 L1317.16 1307.14 L1317.16 1311.69 L1305.1 1311.69 L1305.1 1331.04 Q1305.1 1335.4 1306.27 1336.64 Q1307.48 1337.88 1311.14 1337.88 L1317.16 1337.88 L1317.16 1342.78 L1311.14 1342.78 Q1304.36 1342.78 1301.79 1340.27 Q1299.21 1337.72 1299.21 1331.04 L1299.21 1311.69 L1294.91 1311.69 L1294.91 1307.14 L1299.21 1307.14 L1299.21 1297.01 L1305.1 1297.01 Z" fill="#000000" fill-rule="evenodd" fill-opacity="1" /><path clip-path="url(#clip880)" d="M1374.32 1296.82 L1374.32 1303.09 Q1370.66 1301.34 1367.42 1300.48 Q1364.17 1299.62 1361.15 1299.62 Q1355.89 1299.62 1353.03 1301.66 Q1350.2 1303.7 1350.2 1307.45 Q1350.2 1310.61 1352.08 1312.23 Q1353.98 1313.82 1359.27 1314.81 L1363.15 1315.6 Q1370.34 1316.97 1373.75 1320.44 Q1377.19 1323.88 1377.19 1329.67 Q1377.19 1336.58 1372.54 1340.14 Q1367.93 1343.71 1358.98 1343.71 Q1355.61 1343.71 1351.79 1342.94 Q1348 1342.18 1343.93 1340.68 L1343.93 1334.06 Q1347.84 1336.26 1351.6 1337.37 Q1355.35 1338.49 1358.98 1338.49 Q1364.49 1338.49 1367.48 1336.32 Q1370.47 1334.16 1370.47 1330.15 Q1370.47 1326.65 1368.31 1324.67 Q1366.18 1322.7 1361.27 1321.71 L1357.36 1320.95 Q1350.17 1319.52 1346.95 1316.46 Q1343.74 1313.41 1343.74 1307.96 Q1343.74 1301.66 1348.16 1298.03 Q1352.62 1294.4 1360.41 1294.4 Q1363.76 1294.4 1367.23 1295.01 Q1370.69 1295.61 1374.32 1296.82 Z" fill="#000000" fill-rule="evenodd" fill-opacity="1" /><path clip-path="url(#clip880)" d="M1386.96 1307.14 L1392.82 1307.14 L1392.82 1342.78 L1386.96 1342.78 L1386.96 1307.14 M1386.96 1293.26 L1392.82 1293.26 L1392.82 1300.67 L1386.96 1300.67 L1386.96 1293.26 Z" fill="#000000" fill-rule="evenodd" fill-opacity="1" /><path clip-path="url(#clip880)" d="M1402.52 1307.14 L1430.34 1307.14 L1430.34 1312.48 L1408.32 1338.11 L1430.34 1338.11 L1430.34 1342.78 L1401.73 1342.78 L1401.73 1337.44 L1423.75 1311.81 L1402.52 1311.81 L1402.52 1307.14 Z" fill="#000000" fill-rule="evenodd" fill-opacity="1" /><path clip-path="url(#clip880)" d="M1469.78 1323.5 L1469.78 1326.36 L1442.85 1326.36 Q1443.23 1332.41 1446.48 1335.59 Q1449.76 1338.74 1455.58 1338.74 Q1458.96 1338.74 1462.11 1337.91 Q1465.29 1337.09 1468.41 1335.43 L1468.41 1340.97 Q1465.26 1342.31 1461.95 1343.01 Q1458.64 1343.71 1455.23 1343.71 Q1446.7 1343.71 1441.7 1338.74 Q1436.74 1333.78 1436.74 1325.31 Q1436.74 1316.56 1441.45 1311.43 Q1446.19 1306.28 1454.21 1306.28 Q1461.41 1306.28 1465.58 1310.92 Q1469.78 1315.54 1469.78 1323.5 M1463.92 1321.78 Q1463.86 1316.97 1461.22 1314.11 Q1458.61 1311.24 1454.28 1311.24 Q1449.38 1311.24 1446.41 1314.01 Q1443.49 1316.78 1443.04 1321.81 L1463.92 1321.78 Z" fill="#000000" fill-rule="evenodd" fill-opacity="1" /><path clip-path="url(#clip880)" d="M1499.57 1293.26 L1513.06 1293.26 L1513.06 1297.81 L1505.43 1297.81 L1505.43 1346.83 L1513.06 1346.83 L1513.06 1351.38 L1499.57 1351.38 L1499.57 1293.26 Z" fill="#000000" fill-rule="evenodd" fill-opacity="1" /><path clip-path="url(#clip880)" d="M1548.27 1308.19 L1548.27 1313.72 Q1545.78 1312.45 1543.11 1311.81 Q1540.44 1311.18 1537.57 1311.18 Q1533.21 1311.18 1531.02 1312.52 Q1528.85 1313.85 1528.85 1316.53 Q1528.85 1318.56 1530.41 1319.74 Q1531.97 1320.89 1536.68 1321.94 L1538.69 1322.38 Q1544.92 1323.72 1547.53 1326.17 Q1550.18 1328.59 1550.18 1332.95 Q1550.18 1337.91 1546.23 1340.81 Q1542.31 1343.71 1535.44 1343.71 Q1532.57 1343.71 1529.46 1343.13 Q1526.37 1342.59 1522.93 1341.48 L1522.93 1335.43 Q1526.18 1337.12 1529.33 1337.98 Q1532.48 1338.81 1535.57 1338.81 Q1539.7 1338.81 1541.93 1337.41 Q1544.16 1335.97 1544.16 1333.39 Q1544.16 1331.01 1542.54 1329.73 Q1540.95 1328.46 1535.5 1327.28 L1533.47 1326.81 Q1528.02 1325.66 1525.6 1323.31 Q1523.19 1320.92 1523.19 1316.78 Q1523.19 1311.75 1526.75 1309.01 Q1530.31 1306.28 1536.87 1306.28 Q1540.12 1306.28 1542.98 1306.75 Q1545.85 1307.23 1548.27 1308.19 Z" fill="#000000" fill-rule="evenodd" fill-opacity="1" /><path clip-path="url(#clip880)" d="M1575.7 1324.86 Q1568.6 1324.86 1565.87 1326.49 Q1563.13 1328.11 1563.13 1332.03 Q1563.13 1335.15 1565.17 1336.99 Q1567.24 1338.81 1570.77 1338.81 Q1575.64 1338.81 1578.57 1335.37 Q1581.53 1331.9 1581.53 1326.17 L1581.53 1324.86 L1575.7 1324.86 M1587.38 1322.45 L1587.38 1342.78 L1581.53 1342.78 L1581.53 1337.37 Q1579.52 1340.62 1576.53 1342.18 Q1573.54 1343.71 1569.21 1343.71 Q1563.73 1343.71 1560.49 1340.65 Q1557.27 1337.56 1557.27 1332.41 Q1557.27 1326.39 1561.28 1323.34 Q1565.33 1320.28 1573.32 1320.28 L1581.53 1320.28 L1581.53 1319.71 Q1581.53 1315.67 1578.85 1313.47 Q1576.21 1311.24 1571.41 1311.24 Q1568.35 1311.24 1565.45 1311.97 Q1562.56 1312.71 1559.88 1314.17 L1559.88 1308.76 Q1563.1 1307.52 1566.12 1306.91 Q1569.15 1306.28 1572.01 1306.28 Q1579.74 1306.28 1583.56 1310.29 Q1587.38 1314.3 1587.38 1322.45 Z" fill="#000000" fill-rule="evenodd" fill-opacity="1" /><path clip-path="url(#clip880)" d="M1627.2 1313.98 Q1629.4 1310.03 1632.45 1308.15 Q1635.51 1306.28 1639.65 1306.28 Q1645.22 1306.28 1648.24 1310.19 Q1651.26 1314.07 1651.26 1321.27 L1651.26 1342.78 L1645.38 1342.78 L1645.38 1321.46 Q1645.38 1316.33 1643.56 1313.85 Q1641.75 1311.37 1638.02 1311.37 Q1633.47 1311.37 1630.83 1314.39 Q1628.19 1317.42 1628.19 1322.64 L1628.19 1342.78 L1622.3 1342.78 L1622.3 1321.46 Q1622.3 1316.3 1620.49 1313.85 Q1618.67 1311.37 1614.88 1311.37 Q1610.4 1311.37 1607.75 1314.42 Q1605.11 1317.45 1605.11 1322.64 L1605.11 1342.78 L1599.22 1342.78 L1599.22 1307.14 L1605.11 1307.14 L1605.11 1312.67 Q1607.12 1309.4 1609.92 1307.84 Q1612.72 1306.28 1616.57 1306.28 Q1620.45 1306.28 1623.16 1308.25 Q1625.9 1310.22 1627.2 1313.98 Z" fill="#000000" fill-rule="evenodd" fill-opacity="1" /><path clip-path="url(#clip880)" d="M1668.61 1337.44 L1668.61 1356.34 L1662.72 1356.34 L1662.72 1307.14 L1668.61 1307.14 L1668.61 1312.55 Q1670.46 1309.36 1673.26 1307.84 Q1676.09 1306.28 1680 1306.28 Q1686.5 1306.28 1690.54 1311.43 Q1694.61 1316.59 1694.61 1324.99 Q1694.61 1333.39 1690.54 1338.55 Q1686.5 1343.71 1680 1343.71 Q1676.09 1343.71 1673.26 1342.18 Q1670.46 1340.62 1668.61 1337.44 M1688.53 1324.99 Q1688.53 1318.53 1685.86 1314.87 Q1683.22 1311.18 1678.57 1311.18 Q1673.93 1311.18 1671.25 1314.87 Q1668.61 1318.53 1668.61 1324.99 Q1668.61 1331.45 1671.25 1335.15 Q1673.93 1338.81 1678.57 1338.81 Q1683.22 1338.81 1685.86 1335.15 Q1688.53 1331.45 1688.53 1324.99 Z" fill="#000000" fill-rule="evenodd" fill-opacity="1" /><path clip-path="url(#clip880)" d="M1704.32 1293.26 L1710.18 1293.26 L1710.18 1342.78 L1704.32 1342.78 L1704.32 1293.26 Z" fill="#000000" fill-rule="evenodd" fill-opacity="1" /><path clip-path="url(#clip880)" d="M1752.92 1323.5 L1752.92 1326.36 L1726 1326.36 Q1726.38 1332.41 1729.63 1335.59 Q1732.9 1338.74 1738.73 1338.74 Q1742.1 1338.74 1745.25 1337.91 Q1748.44 1337.09 1751.56 1335.43 L1751.56 1340.97 Q1748.4 1342.31 1745.09 1343.01 Q1741.78 1343.71 1738.38 1343.71 Q1729.85 1343.71 1724.85 1338.74 Q1719.89 1333.78 1719.89 1325.31 Q1719.89 1316.56 1724.6 1311.43 Q1729.34 1306.28 1737.36 1306.28 Q1744.55 1306.28 1748.72 1310.92 Q1752.92 1315.54 1752.92 1323.5 M1747.07 1321.78 Q1747 1316.97 1744.36 1314.11 Q1741.75 1311.24 1737.42 1311.24 Q1732.52 1311.24 1729.56 1314.01 Q1726.63 1316.78 1726.19 1321.81 L1747.07 1321.78 Z" fill="#000000" fill-rule="evenodd" fill-opacity="1" /><path clip-path="url(#clip880)" d="M1785.26 1308.19 L1785.26 1313.72 Q1782.78 1312.45 1780.11 1311.81 Q1777.43 1311.18 1774.57 1311.18 Q1770.21 1311.18 1768.01 1312.52 Q1765.85 1313.85 1765.85 1316.53 Q1765.85 1318.56 1767.41 1319.74 Q1768.97 1320.89 1773.68 1321.94 L1775.68 1322.38 Q1781.92 1323.72 1784.53 1326.17 Q1787.17 1328.59 1787.17 1332.95 Q1787.17 1337.91 1783.22 1340.81 Q1779.31 1343.71 1772.43 1343.71 Q1769.57 1343.71 1766.45 1343.13 Q1763.36 1342.59 1759.93 1341.48 L1759.93 1335.43 Q1763.17 1337.12 1766.32 1337.98 Q1769.47 1338.81 1772.56 1338.81 Q1776.7 1338.81 1778.93 1337.41 Q1781.16 1335.97 1781.16 1333.39 Q1781.16 1331.01 1779.53 1329.73 Q1777.94 1328.46 1772.5 1327.28 L1770.46 1326.81 Q1765.02 1325.66 1762.6 1323.31 Q1760.18 1320.92 1760.18 1316.78 Q1760.18 1311.75 1763.75 1309.01 Q1767.31 1306.28 1773.87 1306.28 Q1777.11 1306.28 1779.98 1306.75 Q1782.84 1307.23 1785.26 1308.19 Z" fill="#000000" fill-rule="evenodd" fill-opacity="1" /><path clip-path="url(#clip880)" d="M1810.18 1293.26 L1810.18 1351.38 L1796.69 1351.38 L1796.69 1346.83 L1804.29 1346.83 L1804.29 1297.81 L1796.69 1297.81 L1796.69 1293.26 L1810.18 1293.26 Z" fill="#000000" fill-rule="evenodd" fill-opacity="1" /><polyline clip-path="url(#clip882)" style="stroke:#000000; stroke-linecap:butt; stroke-linejoin:round; stroke-width:2; stroke-opacity:0.1; fill:none" points="
  276.749,1152.76 2689.76,1152.76 
  "/>
<polyline clip-path="url(#clip882)" style="stroke:#000000; stroke-linecap:butt; stroke-linejoin:round; stroke-width:2; stroke-opacity:0.1; fill:none" points="
  276.749,699.694 2689.76,699.694 
  "/>
<polyline clip-path="url(#clip882)" style="stroke:#000000; stroke-linecap:butt; stroke-linejoin:round; stroke-width:2; stroke-opacity:0.1; fill:none" points="
  276.749,246.624 2689.76,246.624 
  "/>
<polyline clip-path="url(#clip880)" style="stroke:#000000; stroke-linecap:butt; stroke-linejoin:round; stroke-width:4; stroke-opacity:1; fill:none" points="
  276.749,1173.5 276.749,110.236 
  "/>
<polyline clip-path="url(#clip880)" style="stroke:#000000; stroke-linecap:butt; stroke-linejoin:round; stroke-width:4; stroke-opacity:1; fill:none" points="
  276.749,1152.76 295.647,1152.76 
  "/>
<polyline clip-path="url(#clip880)" style="stroke:#000000; stroke-linecap:butt; stroke-linejoin:round; stroke-width:4; stroke-opacity:1; fill:none" points="
  276.749,699.694 295.647,699.694 
  "/>
<polyline clip-path="url(#clip880)" style="stroke:#000000; stroke-linecap:butt; stroke-linejoin:round; stroke-width:4; stroke-opacity:1; fill:none" points="
  276.749,246.624 295.647,246.624 
  "/>
<path clip-path="url(#clip880)" d="M164.044 1172.56 L171.682 1172.56 L171.682 1146.19 L163.372 1147.86 L163.372 1143.6 L171.636 1141.93 L176.312 1141.93 L176.312 1172.56 L183.951 1172.56 L183.951 1176.49 L164.044 1176.49 L164.044 1172.56 Z" fill="#000000" fill-rule="evenodd" fill-opacity="1" /><path clip-path="url(#clip880)" d="M203.395 1145.01 Q199.784 1145.01 197.955 1148.58 Q196.15 1152.12 196.15 1159.25 Q196.15 1166.35 197.955 1169.92 Q199.784 1173.46 203.395 1173.46 Q207.029 1173.46 208.835 1169.92 Q210.664 1166.35 210.664 1159.25 Q210.664 1152.12 208.835 1148.58 Q207.029 1145.01 203.395 1145.01 M203.395 1141.31 Q209.205 1141.31 212.261 1145.91 Q215.34 1150.5 215.34 1159.25 Q215.34 1167.97 212.261 1172.58 Q209.205 1177.16 203.395 1177.16 Q197.585 1177.16 194.506 1172.58 Q191.451 1167.97 191.451 1159.25 Q191.451 1150.5 194.506 1145.91 Q197.585 1141.31 203.395 1141.31 Z" fill="#000000" fill-rule="evenodd" fill-opacity="1" /><path clip-path="url(#clip880)" d="M225.044 1123.5 Q222.11 1123.5 220.625 1126.4 Q219.158 1129.28 219.158 1135.07 Q219.158 1140.84 220.625 1143.74 Q222.11 1146.62 225.044 1146.62 Q227.997 1146.62 229.464 1143.74 Q230.95 1140.84 230.95 1135.07 Q230.95 1129.28 229.464 1126.4 Q227.997 1123.5 225.044 1123.5 M225.044 1120.49 Q229.765 1120.49 232.248 1124.24 Q234.749 1127.96 234.749 1135.07 Q234.749 1142.16 232.248 1145.9 Q229.765 1149.63 225.044 1149.63 Q220.324 1149.63 217.822 1145.9 Q215.34 1142.16 215.34 1135.07 Q215.34 1127.96 217.822 1124.24 Q220.324 1120.49 225.044 1120.49 Z" fill="#000000" fill-rule="evenodd" fill-opacity="1" /><path clip-path="url(#clip880)" d="M166.733 719.486 L174.372 719.486 L174.372 693.121 L166.062 694.787 L166.062 690.528 L174.326 688.862 L179.002 688.862 L179.002 719.486 L186.64 719.486 L186.64 723.422 L166.733 723.422 L166.733 719.486 Z" fill="#000000" fill-rule="evenodd" fill-opacity="1" /><path clip-path="url(#clip880)" d="M206.085 691.94 Q202.474 691.94 200.645 695.505 Q198.839 699.047 198.839 706.176 Q198.839 713.283 200.645 716.847 Q202.474 720.389 206.085 720.389 Q209.719 720.389 211.525 716.847 Q213.353 713.283 213.353 706.176 Q213.353 699.047 211.525 695.505 Q209.719 691.94 206.085 691.94 M206.085 688.237 Q211.895 688.237 214.95 692.843 Q218.029 697.426 218.029 706.176 Q218.029 714.903 214.95 719.51 Q211.895 724.093 206.085 724.093 Q200.275 724.093 197.196 719.51 Q194.14 714.903 194.14 706.176 Q194.14 697.426 197.196 692.843 Q200.275 688.237 206.085 688.237 Z" fill="#000000" fill-rule="evenodd" fill-opacity="1" /><path clip-path="url(#clip880)" d="M218.575 692.814 L224.781 692.814 L224.781 671.392 L218.029 672.746 L218.029 669.285 L224.743 667.931 L228.543 667.931 L228.543 692.814 L234.749 692.814 L234.749 696.011 L218.575 696.011 L218.575 692.814 Z" fill="#000000" fill-rule="evenodd" fill-opacity="1" /><path clip-path="url(#clip880)" d="M165.623 266.416 L173.262 266.416 L173.262 240.051 L164.952 241.717 L164.952 237.458 L173.216 235.791 L177.892 235.791 L177.892 266.416 L185.531 266.416 L185.531 270.351 L165.623 270.351 L165.623 266.416 Z" fill="#000000" fill-rule="evenodd" fill-opacity="1" /><path clip-path="url(#clip880)" d="M204.975 238.87 Q201.364 238.87 199.535 242.435 Q197.73 245.977 197.73 253.106 Q197.73 260.213 199.535 263.777 Q201.364 267.319 204.975 267.319 Q208.609 267.319 210.415 263.777 Q212.244 260.213 212.244 253.106 Q212.244 245.977 210.415 242.435 Q208.609 238.87 204.975 238.87 M204.975 235.166 Q210.785 235.166 213.841 239.773 Q216.919 244.356 216.919 253.106 Q216.919 261.833 213.841 266.439 Q210.785 271.023 204.975 271.023 Q199.165 271.023 196.086 266.439 Q193.031 261.833 193.031 253.106 Q193.031 244.356 196.086 239.773 Q199.165 235.166 204.975 235.166 Z" fill="#000000" fill-rule="evenodd" fill-opacity="1" /><path clip-path="url(#clip880)" d="M221.49 239.744 L234.749 239.744 L234.749 242.941 L216.919 242.941 L216.919 239.744 Q219.082 237.506 222.806 233.744 Q226.549 229.964 227.508 228.873 Q229.333 226.823 230.047 225.412 Q230.781 223.983 230.781 222.61 Q230.781 220.372 229.201 218.961 Q227.64 217.551 225.12 217.551 Q223.333 217.551 221.339 218.171 Q219.364 218.792 217.108 220.052 L217.108 216.215 Q219.402 215.294 221.396 214.823 Q223.389 214.353 225.044 214.353 Q229.408 214.353 232.003 216.535 Q234.599 218.717 234.599 222.365 Q234.599 224.096 233.94 225.657 Q233.301 227.199 231.59 229.305 Q231.119 229.851 228.599 232.465 Q226.079 235.061 221.49 239.744 Z" fill="#000000" fill-rule="evenodd" fill-opacity="1" /><path clip-path="url(#clip880)" d="M61.1559 750.863 L67.4261 750.863 Q65.6755 754.523 64.8162 757.769 Q63.9568 761.016 63.9568 764.04 Q63.9568 769.291 65.9938 772.156 Q68.0308 774.989 71.7866 774.989 Q74.9376 774.989 76.5609 773.111 Q78.1523 771.201 79.139 765.917 L79.9347 762.034 Q81.3033 754.841 84.7727 751.435 Q88.2101 747.998 94.0029 747.998 Q100.91 747.998 104.475 752.645 Q108.039 757.26 108.039 766.204 Q108.039 769.578 107.275 773.397 Q106.512 777.185 105.016 781.259 L98.3953 781.259 Q100.591 777.344 101.705 773.588 Q102.819 769.832 102.819 766.204 Q102.819 760.698 100.655 757.706 Q98.4908 754.714 94.4804 754.714 Q90.9792 754.714 89.0058 756.878 Q87.0325 759.011 86.0458 763.912 L85.2819 767.827 Q83.8496 775.02 80.7941 778.235 Q77.7385 781.45 72.2959 781.45 Q65.9938 781.45 62.3654 777.026 Q58.7369 772.57 58.7369 764.772 Q58.7369 761.43 59.3417 757.96 Q59.9464 754.491 61.1559 750.863 Z" fill="#000000" fill-rule="evenodd" fill-opacity="1" /><path clip-path="url(#clip880)" d="M101.769 732.561 L120.675 732.561 L120.675 738.449 L71.4683 738.449 L71.4683 732.561 L76.8792 732.561 Q73.6963 730.715 72.1686 727.914 Q70.609 725.081 70.609 721.167 Q70.609 714.674 75.7652 710.631 Q80.9214 706.557 89.3241 706.557 Q97.7269 706.557 102.883 710.631 Q108.039 714.674 108.039 721.167 Q108.039 725.081 106.512 727.914 Q104.952 730.715 101.769 732.561 M89.3241 712.637 Q82.8629 712.637 79.2027 715.31 Q75.5106 717.952 75.5106 722.599 Q75.5106 727.246 79.2027 729.919 Q82.8629 732.561 89.3241 732.561 Q95.7853 732.561 99.4774 729.919 Q103.138 727.246 103.138 722.599 Q103.138 717.952 99.4774 715.31 Q95.7853 712.637 89.3241 712.637 Z" fill="#000000" fill-rule="evenodd" fill-opacity="1" /><path clip-path="url(#clip880)" d="M87.8282 666.358 L90.6928 666.358 L90.6928 693.285 Q96.7402 692.903 99.923 689.656 Q103.074 686.378 103.074 680.553 Q103.074 677.18 102.247 674.029 Q101.419 670.846 99.7639 667.726 L105.302 667.726 Q106.639 670.877 107.339 674.188 Q108.039 677.498 108.039 680.903 Q108.039 689.434 103.074 694.431 Q98.1088 699.396 89.6424 699.396 Q80.8896 699.396 75.7652 694.685 Q70.609 689.943 70.609 681.922 Q70.609 674.729 75.2559 670.559 Q79.8711 666.358 87.8282 666.358 M86.1095 672.214 Q81.3033 672.278 78.4388 674.92 Q75.5742 677.53 75.5742 681.858 Q75.5742 686.76 78.3433 689.72 Q81.1124 692.648 86.1413 693.094 L86.1095 672.214 Z" fill="#000000" fill-rule="evenodd" fill-opacity="1" /><path clip-path="url(#clip880)" d="M87.8282 626.254 L90.6928 626.254 L90.6928 653.181 Q96.7402 652.799 99.923 649.552 Q103.074 646.274 103.074 640.449 Q103.074 637.076 102.247 633.925 Q101.419 630.742 99.7639 627.622 L105.302 627.622 Q106.639 630.774 107.339 634.084 Q108.039 637.394 108.039 640.8 Q108.039 649.33 103.074 654.327 Q98.1088 659.292 89.6424 659.292 Q80.8896 659.292 75.7652 654.581 Q70.609 649.839 70.609 641.818 Q70.609 634.625 75.2559 630.455 Q79.8711 626.254 87.8282 626.254 M86.1095 632.11 Q81.3033 632.174 78.4388 634.816 Q75.5742 637.426 75.5742 641.754 Q75.5742 646.656 78.3433 649.616 Q81.1124 652.544 86.1413 652.99 L86.1095 632.11 Z" fill="#000000" fill-rule="evenodd" fill-opacity="1" /><path clip-path="url(#clip880)" d="M76.8792 593.184 L57.5911 593.184 L57.5911 587.328 L107.116 587.328 L107.116 593.184 L101.769 593.184 Q104.952 595.03 106.512 597.863 Q108.039 600.664 108.039 604.61 Q108.039 611.072 102.883 615.146 Q97.7269 619.188 89.3241 619.188 Q80.9214 619.188 75.7652 615.146 Q70.609 611.072 70.609 604.61 Q70.609 600.664 72.1686 597.863 Q73.6963 595.03 76.8792 593.184 M89.3241 613.141 Q95.7853 613.141 99.4774 610.499 Q103.138 607.825 103.138 603.178 Q103.138 598.531 99.4774 595.858 Q95.7853 593.184 89.3241 593.184 Q82.8629 593.184 79.2027 595.858 Q75.5106 598.531 75.5106 603.178 Q75.5106 607.825 79.2027 610.499 Q82.8629 613.141 89.3241 613.141 Z" fill="#000000" fill-rule="evenodd" fill-opacity="1" /><path clip-path="url(#clip880)" d="M93.0481 575.869 L71.4683 575.869 L71.4683 570.013 L92.8253 570.013 Q97.886 570.013 100.432 568.039 Q102.947 566.066 102.947 562.119 Q102.947 557.377 99.923 554.64 Q96.8993 551.871 91.6794 551.871 L71.4683 551.871 L71.4683 546.014 L107.116 546.014 L107.116 551.871 L101.642 551.871 Q104.888 554.003 106.48 556.836 Q108.039 559.637 108.039 563.361 Q108.039 569.504 104.22 572.686 Q100.4 575.869 93.0481 575.869 M70.609 561.133 L70.609 561.133 Z" fill="#000000" fill-rule="evenodd" fill-opacity="1" /><path clip-path="url(#clip880)" d="M101.769 528.286 L120.675 528.286 L120.675 534.174 L71.4683 534.174 L71.4683 528.286 L76.8792 528.286 Q73.6963 526.44 72.1686 523.639 Q70.609 520.806 70.609 516.891 Q70.609 510.398 75.7652 506.356 Q80.9214 502.282 89.3241 502.282 Q97.7269 502.282 102.883 506.356 Q108.039 510.398 108.039 516.891 Q108.039 520.806 106.512 523.639 Q104.952 526.44 101.769 528.286 M89.3241 508.361 Q82.8629 508.361 79.2027 511.035 Q75.5106 513.676 75.5106 518.323 Q75.5106 522.97 79.2027 525.644 Q82.8629 528.286 89.3241 528.286 Q95.7853 528.286 99.4774 525.644 Q103.138 522.97 103.138 518.323 Q103.138 513.676 99.4774 511.035 Q95.7853 508.361 89.3241 508.361 Z" fill="#000000" fill-rule="evenodd" fill-opacity="1" /><polyline clip-path="url(#clip882)" style="stroke:#009af9; stroke-linecap:butt; stroke-linejoin:round; stroke-width:4; stroke-opacity:1; fill:none" points="
  637.419,1007.03 1169.33,1067.18 1878.53,711.583 2587.74,961.798 
  "/>
<path clip-path="url(#clip882)" d="M637.419 991.033 L621.419 1007.03 L637.419 1023.03 L653.419 1007.03 L637.419 991.033 Z" fill="#009af9" fill-rule="evenodd" fill-opacity="1" stroke="#000000" stroke-opacity="1" stroke-width="2.8"/>
<path clip-path="url(#clip882)" d="M1169.33 1051.18 L1153.33 1067.18 L1169.33 1083.18 L1185.33 1067.18 L1169.33 1051.18 Z" fill="#009af9" fill-rule="evenodd" fill-opacity="1" stroke="#000000" stroke-opacity="1" stroke-width="2.8"/>
<path clip-path="url(#clip882)" d="M1878.53 695.583 L1862.53 711.583 L1878.53 727.583 L1894.53 711.583 L1878.53 695.583 Z" fill="#009af9" fill-rule="evenodd" fill-opacity="1" stroke="#000000" stroke-opacity="1" stroke-width="2.8"/>
<path clip-path="url(#clip882)" d="M2587.74 945.798 L2571.74 961.798 L2587.74 977.798 L2603.74 961.798 L2587.74 945.798 Z" fill="#009af9" fill-rule="evenodd" fill-opacity="1" stroke="#000000" stroke-opacity="1" stroke-width="2.8"/>
<polyline clip-path="url(#clip882)" style="stroke:#e26f46; stroke-linecap:butt; stroke-linejoin:round; stroke-width:4; stroke-opacity:1; fill:none" points="
  637.419,759.676 1169.33,457.481 1878.53,160.203 2587.74,378.456 
  "/>
<path clip-path="url(#clip882)" d="M637.419 743.676 L621.419 759.676 L637.419 775.676 L653.419 759.676 L637.419 743.676 Z" fill="#e26f46" fill-rule="evenodd" fill-opacity="1" stroke="#000000" stroke-opacity="1" stroke-width="2.8"/>
<path clip-path="url(#clip882)" d="M1169.33 441.481 L1153.33 457.481 L1169.33 473.481 L1185.33 457.481 L1169.33 441.481 Z" fill="#e26f46" fill-rule="evenodd" fill-opacity="1" stroke="#000000" stroke-opacity="1" stroke-width="2.8"/>
<path clip-path="url(#clip882)" d="M1878.53 144.203 L1862.53 160.203 L1878.53 176.203 L1894.53 160.203 L1878.53 144.203 Z" fill="#e26f46" fill-rule="evenodd" fill-opacity="1" stroke="#000000" stroke-opacity="1" stroke-width="2.8"/>
<path clip-path="url(#clip882)" d="M2587.74 362.456 L2571.74 378.456 L2587.74 394.456 L2603.74 378.456 L2587.74 362.456 Z" fill="#e26f46" fill-rule="evenodd" fill-opacity="1" stroke="#000000" stroke-opacity="1" stroke-width="2.8"/>
<path clip-path="url(#clip880)" d="
M357.183 301.198 L1042.1 301.198 L1042.1 145.678 L357.183 145.678  Z
  " fill="#ffffff" fill-rule="evenodd" fill-opacity="1"/>
<polyline clip-path="url(#clip880)" style="stroke:#000000; stroke-linecap:butt; stroke-linejoin:round; stroke-width:4; stroke-opacity:1; fill:none" points="
  357.183,301.198 1042.1,301.198 1042.1,145.678 357.183,145.678 357.183,301.198 
  "/>
<polyline clip-path="url(#clip880)" style="stroke:#009af9; stroke-linecap:butt; stroke-linejoin:round; stroke-width:4; stroke-opacity:1; fill:none" points="
  383.994,197.518 544.862,197.518 
  "/>
<path clip-path="url(#clip880)" d="M464.428 171.918 L438.828 197.518 L464.428 223.118 L490.028 197.518 L464.428 171.918 Z" fill="#009af9" fill-rule="evenodd" fill-opacity="1" stroke="#000000" stroke-opacity="1" stroke-width="4.48"/>
<path clip-path="url(#clip880)" d="M571.673 180.238 L600.909 180.238 L600.909 184.173 L588.641 184.173 L588.641 214.798 L583.942 214.798 L583.942 184.173 L571.673 184.173 L571.673 180.238 Z" fill="#000000" fill-rule="evenodd" fill-opacity="1" /><path clip-path="url(#clip880)" d="M613.293 192.854 Q612.576 192.437 611.719 192.252 Q610.886 192.044 609.867 192.044 Q606.256 192.044 604.312 194.405 Q602.391 196.743 602.391 201.141 L602.391 214.798 L598.108 214.798 L598.108 188.872 L602.391 188.872 L602.391 192.9 Q603.733 190.539 605.886 189.405 Q608.039 188.247 611.117 188.247 Q611.557 188.247 612.09 188.317 Q612.622 188.363 613.27 188.479 L613.293 192.854 Z" fill="#000000" fill-rule="evenodd" fill-opacity="1" /><path clip-path="url(#clip880)" d="M629.543 201.766 Q624.381 201.766 622.391 202.946 Q620.4 204.127 620.4 206.974 Q620.4 209.243 621.881 210.585 Q623.386 211.905 625.955 211.905 Q629.497 211.905 631.627 209.405 Q633.779 206.882 633.779 202.715 L633.779 201.766 L629.543 201.766 M638.039 200.007 L638.039 214.798 L633.779 214.798 L633.779 210.863 Q632.321 213.224 630.145 214.358 Q627.969 215.469 624.821 215.469 Q620.84 215.469 618.479 213.247 Q616.141 211.002 616.141 207.252 Q616.141 202.877 619.057 200.655 Q621.997 198.433 627.807 198.433 L633.779 198.433 L633.779 198.016 Q633.779 195.076 631.835 193.479 Q629.914 191.858 626.418 191.858 Q624.196 191.858 622.09 192.391 Q619.983 192.923 618.039 193.988 L618.039 190.053 Q620.377 189.15 622.576 188.71 Q624.775 188.247 626.858 188.247 Q632.483 188.247 635.261 191.164 Q638.039 194.081 638.039 200.007 Z" fill="#000000" fill-rule="evenodd" fill-opacity="1" /><path clip-path="url(#clip880)" d="M668.363 199.15 L668.363 214.798 L664.103 214.798 L664.103 199.289 Q664.103 195.608 662.668 193.78 Q661.233 191.951 658.363 191.951 Q654.914 191.951 652.923 194.15 Q650.932 196.349 650.932 200.145 L650.932 214.798 L646.65 214.798 L646.65 188.872 L650.932 188.872 L650.932 192.9 Q652.46 190.562 654.52 189.405 Q656.603 188.247 659.312 188.247 Q663.779 188.247 666.071 191.025 Q668.363 193.78 668.363 199.15 Z" fill="#000000" fill-rule="evenodd" fill-opacity="1" /><path clip-path="url(#clip880)" d="M693.386 189.636 L693.386 193.664 Q691.58 192.738 689.636 192.275 Q687.691 191.812 685.608 191.812 Q682.437 191.812 680.839 192.784 Q679.265 193.757 679.265 195.701 Q679.265 197.183 680.399 198.039 Q681.534 198.872 684.96 199.636 L686.418 199.96 Q690.955 200.933 692.853 202.715 Q694.774 204.474 694.774 207.645 Q694.774 211.257 691.904 213.363 Q689.057 215.469 684.057 215.469 Q681.974 215.469 679.705 215.053 Q677.46 214.659 674.96 213.849 L674.96 209.451 Q677.321 210.678 679.612 211.303 Q681.904 211.905 684.149 211.905 Q687.159 211.905 688.779 210.886 Q690.399 209.845 690.399 207.97 Q690.399 206.233 689.219 205.308 Q688.061 204.382 684.103 203.525 L682.622 203.178 Q678.663 202.345 676.904 200.632 Q675.145 198.895 675.145 195.886 Q675.145 192.229 677.737 190.238 Q680.33 188.247 685.099 188.247 Q687.46 188.247 689.543 188.595 Q691.626 188.942 693.386 189.636 Z" fill="#000000" fill-rule="evenodd" fill-opacity="1" /><path clip-path="url(#clip880)" d="M714.682 178.78 L714.682 182.322 L710.608 182.322 Q708.316 182.322 707.413 183.247 Q706.534 184.173 706.534 186.581 L706.534 188.872 L713.547 188.872 L713.547 192.183 L706.534 192.183 L706.534 214.798 L702.251 214.798 L702.251 192.183 L698.177 192.183 L698.177 188.872 L702.251 188.872 L702.251 187.067 Q702.251 182.738 704.265 180.771 Q706.279 178.78 710.654 178.78 L714.682 178.78 Z" fill="#000000" fill-rule="evenodd" fill-opacity="1" /><path clip-path="url(#clip880)" d="M728.293 191.858 Q724.867 191.858 722.876 194.544 Q720.885 197.206 720.885 201.858 Q720.885 206.511 722.853 209.196 Q724.844 211.858 728.293 211.858 Q731.696 211.858 733.686 209.173 Q735.677 206.488 735.677 201.858 Q735.677 197.252 733.686 194.567 Q731.696 191.858 728.293 191.858 M728.293 188.247 Q733.848 188.247 737.02 191.858 Q740.191 195.47 740.191 201.858 Q740.191 208.224 737.02 211.858 Q733.848 215.469 728.293 215.469 Q722.714 215.469 719.543 211.858 Q716.395 208.224 716.395 201.858 Q716.395 195.47 719.543 191.858 Q722.714 188.247 728.293 188.247 Z" fill="#000000" fill-rule="evenodd" fill-opacity="1" /><path clip-path="url(#clip880)" d="M762.274 192.854 Q761.556 192.437 760.7 192.252 Q759.867 192.044 758.848 192.044 Q755.237 192.044 753.293 194.405 Q751.371 196.743 751.371 201.141 L751.371 214.798 L747.089 214.798 L747.089 188.872 L751.371 188.872 L751.371 192.9 Q752.714 190.539 754.867 189.405 Q757.019 188.247 760.098 188.247 Q760.538 188.247 761.07 188.317 Q761.603 188.363 762.251 188.479 L762.274 192.854 Z" fill="#000000" fill-rule="evenodd" fill-opacity="1" /><path clip-path="url(#clip880)" d="M786.093 193.849 Q787.691 190.979 789.913 189.613 Q792.135 188.247 795.144 188.247 Q799.195 188.247 801.394 191.095 Q803.593 193.919 803.593 199.15 L803.593 214.798 L799.311 214.798 L799.311 199.289 Q799.311 195.562 797.991 193.757 Q796.672 191.951 793.964 191.951 Q790.654 191.951 788.732 194.15 Q786.811 196.349 786.811 200.145 L786.811 214.798 L782.529 214.798 L782.529 199.289 Q782.529 195.539 781.209 193.757 Q779.89 191.951 777.135 191.951 Q773.871 191.951 771.95 194.173 Q770.029 196.372 770.029 200.145 L770.029 214.798 L765.746 214.798 L765.746 188.872 L770.029 188.872 L770.029 192.9 Q771.487 190.516 773.524 189.382 Q775.561 188.247 778.362 188.247 Q781.186 188.247 783.154 189.683 Q785.144 191.118 786.093 193.849 Z" fill="#000000" fill-rule="evenodd" fill-opacity="1" /><polyline clip-path="url(#clip880)" style="stroke:#e26f46; stroke-linecap:butt; stroke-linejoin:round; stroke-width:4; stroke-opacity:1; fill:none" points="
  383.994,249.358 544.862,249.358 
  "/>
<path clip-path="url(#clip880)" d="M464.428 223.758 L438.828 249.358 L464.428 274.958 L490.028 249.358 L464.428 223.758 Z" fill="#e26f46" fill-rule="evenodd" fill-opacity="1" stroke="#000000" stroke-opacity="1" stroke-width="4.48"/>
<path clip-path="url(#clip880)" d="M571.673 232.078 L576.349 232.078 L576.349 266.638 L571.673 266.638 L571.673 232.078 Z" fill="#000000" fill-rule="evenodd" fill-opacity="1" /><path clip-path="url(#clip880)" d="M607.02 250.99 L607.02 266.638 L602.761 266.638 L602.761 251.129 Q602.761 247.448 601.326 245.62 Q599.891 243.791 597.02 243.791 Q593.571 243.791 591.581 245.99 Q589.59 248.189 589.59 251.985 L589.59 266.638 L585.307 266.638 L585.307 240.712 L589.59 240.712 L589.59 244.74 Q591.118 242.402 593.178 241.245 Q595.261 240.087 597.969 240.087 Q602.437 240.087 604.729 242.865 Q607.02 245.62 607.02 250.99 Z" fill="#000000" fill-rule="evenodd" fill-opacity="1" /><path clip-path="url(#clip880)" d="M612.46 240.712 L616.974 240.712 L625.076 262.472 L633.178 240.712 L637.691 240.712 L627.969 266.638 L622.182 266.638 L612.46 240.712 Z" fill="#000000" fill-rule="evenodd" fill-opacity="1" /><path clip-path="url(#clip880)" d="M665.747 252.61 L665.747 254.694 L646.164 254.694 Q646.441 259.092 648.802 261.407 Q651.187 263.698 655.423 263.698 Q657.876 263.698 660.168 263.097 Q662.483 262.495 664.751 261.291 L664.751 265.319 Q662.46 266.291 660.052 266.8 Q657.645 267.309 655.168 267.309 Q648.964 267.309 645.33 263.698 Q641.719 260.087 641.719 253.93 Q641.719 247.564 645.145 243.837 Q648.594 240.087 654.427 240.087 Q659.659 240.087 662.691 243.467 Q665.747 246.823 665.747 252.61 M661.488 251.36 Q661.441 247.865 659.52 245.782 Q657.622 243.698 654.474 243.698 Q650.909 243.698 648.756 245.712 Q646.627 247.726 646.302 251.384 L661.488 251.36 Z" fill="#000000" fill-rule="evenodd" fill-opacity="1" /><path clip-path="url(#clip880)" d="M687.761 244.694 Q687.043 244.277 686.186 244.092 Q685.353 243.884 684.335 243.884 Q680.724 243.884 678.779 246.245 Q676.858 248.583 676.858 252.981 L676.858 266.638 L672.575 266.638 L672.575 240.712 L676.858 240.712 L676.858 244.74 Q678.2 242.379 680.353 241.245 Q682.506 240.087 685.585 240.087 Q686.024 240.087 686.557 240.157 Q687.089 240.203 687.737 240.319 L687.761 244.694 Z" fill="#000000" fill-rule="evenodd" fill-opacity="1" /><path clip-path="url(#clip880)" d="M708.756 241.476 L708.756 245.504 Q706.95 244.578 705.006 244.115 Q703.061 243.652 700.978 243.652 Q697.807 243.652 696.21 244.624 Q694.636 245.597 694.636 247.541 Q694.636 249.023 695.77 249.879 Q696.904 250.712 700.33 251.476 L701.788 251.8 Q706.325 252.773 708.223 254.555 Q710.145 256.314 710.145 259.485 Q710.145 263.097 707.274 265.203 Q704.427 267.309 699.427 267.309 Q697.344 267.309 695.075 266.893 Q692.83 266.499 690.33 265.689 L690.33 261.291 Q692.691 262.518 694.983 263.143 Q697.274 263.745 699.52 263.745 Q702.529 263.745 704.149 262.726 Q705.77 261.685 705.77 259.81 Q705.77 258.073 704.589 257.148 Q703.432 256.222 699.473 255.365 L697.992 255.018 Q694.034 254.185 692.274 252.472 Q690.515 250.735 690.515 247.726 Q690.515 244.069 693.108 242.078 Q695.7 240.087 700.469 240.087 Q702.83 240.087 704.913 240.435 Q706.997 240.782 708.756 241.476 Z" fill="#000000" fill-rule="evenodd" fill-opacity="1" /><path clip-path="url(#clip880)" d="M739.103 252.61 L739.103 254.694 L719.52 254.694 Q719.797 259.092 722.159 261.407 Q724.543 263.698 728.779 263.698 Q731.233 263.698 733.524 263.097 Q735.839 262.495 738.108 261.291 L738.108 265.319 Q735.816 266.291 733.408 266.8 Q731.001 267.309 728.524 267.309 Q722.321 267.309 718.686 263.698 Q715.075 260.087 715.075 253.93 Q715.075 247.564 718.501 243.837 Q721.95 240.087 727.783 240.087 Q733.015 240.087 736.047 243.467 Q739.103 246.823 739.103 252.61 M734.844 251.36 Q734.797 247.865 732.876 245.782 Q730.978 243.698 727.83 243.698 Q724.265 243.698 722.112 245.712 Q719.983 247.726 719.659 251.384 L734.844 251.36 Z" fill="#000000" fill-rule="evenodd" fill-opacity="1" /><path clip-path="url(#clip880)" d="M756.556 232.078 L785.792 232.078 L785.792 236.013 L773.524 236.013 L773.524 266.638 L768.825 266.638 L768.825 236.013 L756.556 236.013 L756.556 232.078 Z" fill="#000000" fill-rule="evenodd" fill-opacity="1" /><path clip-path="url(#clip880)" d="M798.177 244.694 Q797.459 244.277 796.603 244.092 Q795.769 243.884 794.751 243.884 Q791.14 243.884 789.195 246.245 Q787.274 248.583 787.274 252.981 L787.274 266.638 L782.992 266.638 L782.992 240.712 L787.274 240.712 L787.274 244.74 Q788.617 242.379 790.769 241.245 Q792.922 240.087 796.001 240.087 Q796.441 240.087 796.973 240.157 Q797.505 240.203 798.153 240.319 L798.177 244.694 Z" fill="#000000" fill-rule="evenodd" fill-opacity="1" /><path clip-path="url(#clip880)" d="M814.427 253.606 Q809.265 253.606 807.274 254.786 Q805.283 255.967 805.283 258.814 Q805.283 261.083 806.765 262.425 Q808.269 263.745 810.839 263.745 Q814.38 263.745 816.51 261.245 Q818.663 258.722 818.663 254.555 L818.663 253.606 L814.427 253.606 M822.922 251.847 L822.922 266.638 L818.663 266.638 L818.663 262.703 Q817.204 265.064 815.028 266.198 Q812.852 267.309 809.704 267.309 Q805.723 267.309 803.362 265.087 Q801.024 262.842 801.024 259.092 Q801.024 254.717 803.94 252.495 Q806.88 250.273 812.69 250.273 L818.663 250.273 L818.663 249.856 Q818.663 246.916 816.718 245.319 Q814.797 243.698 811.302 243.698 Q809.079 243.698 806.973 244.231 Q804.866 244.763 802.922 245.828 L802.922 241.893 Q805.26 240.99 807.459 240.55 Q809.658 240.087 811.741 240.087 Q817.366 240.087 820.144 243.004 Q822.922 245.921 822.922 251.847 Z" fill="#000000" fill-rule="evenodd" fill-opacity="1" /><path clip-path="url(#clip880)" d="M853.246 250.99 L853.246 266.638 L848.987 266.638 L848.987 251.129 Q848.987 247.448 847.551 245.62 Q846.116 243.791 843.246 243.791 Q839.797 243.791 837.806 245.99 Q835.815 248.189 835.815 251.985 L835.815 266.638 L831.533 266.638 L831.533 240.712 L835.815 240.712 L835.815 244.74 Q837.343 242.402 839.403 241.245 Q841.487 240.087 844.195 240.087 Q848.662 240.087 850.954 242.865 Q853.246 245.62 853.246 250.99 Z" fill="#000000" fill-rule="evenodd" fill-opacity="1" /><path clip-path="url(#clip880)" d="M878.269 241.476 L878.269 245.504 Q876.463 244.578 874.519 244.115 Q872.574 243.652 870.491 243.652 Q867.32 243.652 865.723 244.624 Q864.149 245.597 864.149 247.541 Q864.149 249.023 865.283 249.879 Q866.417 250.712 869.843 251.476 L871.301 251.8 Q875.838 252.773 877.736 254.555 Q879.658 256.314 879.658 259.485 Q879.658 263.097 876.787 265.203 Q873.94 267.309 868.94 267.309 Q866.857 267.309 864.588 266.893 Q862.343 266.499 859.843 265.689 L859.843 261.291 Q862.204 262.518 864.496 263.143 Q866.787 263.745 869.033 263.745 Q872.042 263.745 873.662 262.726 Q875.283 261.685 875.283 259.81 Q875.283 258.073 874.102 257.148 Q872.945 256.222 868.986 255.365 L867.505 255.018 Q863.547 254.185 861.787 252.472 Q860.028 250.735 860.028 247.726 Q860.028 244.069 862.621 242.078 Q865.213 240.087 869.982 240.087 Q872.343 240.087 874.426 240.435 Q876.51 240.782 878.269 241.476 Z" fill="#000000" fill-rule="evenodd" fill-opacity="1" /><path clip-path="url(#clip880)" d="M899.565 230.62 L899.565 234.162 L895.491 234.162 Q893.199 234.162 892.297 235.087 Q891.417 236.013 891.417 238.421 L891.417 240.712 L898.431 240.712 L898.431 244.023 L891.417 244.023 L891.417 266.638 L887.134 266.638 L887.134 244.023 L883.06 244.023 L883.06 240.712 L887.134 240.712 L887.134 238.907 Q887.134 234.578 889.148 232.611 Q891.162 230.62 895.537 230.62 L899.565 230.62 Z" fill="#000000" fill-rule="evenodd" fill-opacity="1" /><path clip-path="url(#clip880)" d="M913.176 243.698 Q909.75 243.698 907.759 246.384 Q905.769 249.046 905.769 253.698 Q905.769 258.351 907.736 261.036 Q909.727 263.698 913.176 263.698 Q916.579 263.698 918.57 261.013 Q920.56 258.328 920.56 253.698 Q920.56 249.092 918.57 246.407 Q916.579 243.698 913.176 243.698 M913.176 240.087 Q918.732 240.087 921.903 243.698 Q925.074 247.31 925.074 253.698 Q925.074 260.064 921.903 263.698 Q918.732 267.309 913.176 267.309 Q907.597 267.309 904.426 263.698 Q901.278 260.064 901.278 253.698 Q901.278 247.31 904.426 243.698 Q907.597 240.087 913.176 240.087 Z" fill="#000000" fill-rule="evenodd" fill-opacity="1" /><path clip-path="url(#clip880)" d="M947.157 244.694 Q946.44 244.277 945.583 244.092 Q944.75 243.884 943.731 243.884 Q940.12 243.884 938.176 246.245 Q936.255 248.583 936.255 252.981 L936.255 266.638 L931.972 266.638 L931.972 240.712 L936.255 240.712 L936.255 244.74 Q937.597 242.379 939.75 241.245 Q941.903 240.087 944.981 240.087 Q945.421 240.087 945.954 240.157 Q946.486 240.203 947.134 240.319 L947.157 244.694 Z" fill="#000000" fill-rule="evenodd" fill-opacity="1" /><path clip-path="url(#clip880)" d="M970.977 245.689 Q972.574 242.819 974.796 241.453 Q977.018 240.087 980.028 240.087 Q984.078 240.087 986.277 242.935 Q988.477 245.759 988.477 250.99 L988.477 266.638 L984.194 266.638 L984.194 251.129 Q984.194 247.402 982.875 245.597 Q981.555 243.791 978.847 243.791 Q975.537 243.791 973.616 245.99 Q971.694 248.189 971.694 251.985 L971.694 266.638 L967.412 266.638 L967.412 251.129 Q967.412 247.379 966.092 245.597 Q964.773 243.791 962.018 243.791 Q958.754 243.791 956.833 246.013 Q954.912 248.212 954.912 251.985 L954.912 266.638 L950.63 266.638 L950.63 240.712 L954.912 240.712 L954.912 244.74 Q956.37 242.356 958.407 241.222 Q960.444 240.087 963.245 240.087 Q966.069 240.087 968.037 241.523 Q970.028 242.958 970.977 245.689 Z" fill="#000000" fill-rule="evenodd" fill-opacity="1" /></svg>
