<svg width="1653" height="993" xmlns="http://www.w3.org/2000/svg" xmlns:xlink="http://www.w3.org/1999/xlink" overflow="hidden"><defs><clipPath id="clip0"><rect x="1479" y="12771" width="1653" height="993"/></clipPath><clipPath id="clip1"><rect x="1479" y="12772" width="1650" height="990"/></clipPath><clipPath id="clip2"><rect x="1479" y="12772" width="1650" height="990"/></clipPath><clipPath id="clip3"><rect x="1530" y="12942" width="1552" height="524"/></clipPath><clipPath id="clip4"><rect x="1530" y="12942" width="1552" height="524"/></clipPath><clipPath id="clip5"><rect x="1479" y="12772" width="1650" height="990"/></clipPath><clipPath id="clip6"><rect x="1479" y="12772" width="1650" height="990"/></clipPath><clipPath id="clip7"><rect x="1479" y="12772" width="1650" height="990"/></clipPath><clipPath id="clip8"><rect x="1479" y="12772" width="1650" height="990"/></clipPath><clipPath id="clip9"><rect x="1479" y="12772" width="1650" height="990"/></clipPath><clipPath id="clip10"><rect x="1479" y="12772" width="1650" height="990"/></clipPath><clipPath id="clip11"><rect x="1479" y="12772" width="1650" height="990"/></clipPath><clipPath id="clip12"><rect x="1479" y="12772" width="1650" height="990"/></clipPath><clipPath id="clip13"><rect x="1479" y="12772" width="1650" height="990"/></clipPath><clipPath id="clip14"><rect x="1479" y="12772" width="1650" height="990"/></clipPath><clipPath id="clip15"><rect x="1479" y="12772" width="1650" height="990"/></clipPath><clipPath id="clip16"><rect x="1479" y="12772" width="1650" height="990"/></clipPath><clipPath id="clip17"><rect x="1479" y="12772" width="1650" height="990"/></clipPath><clipPath id="clip18"><rect x="1479" y="12772" width="1650" height="990"/></clipPath><clipPath id="clip19"><rect x="1479" y="12772" width="1650" height="990"/></clipPath><clipPath id="clip20"><rect x="1479" y="12772" width="1650" height="990"/></clipPath><clipPath id="clip21"><rect x="1479" y="12772" width="1650" height="990"/></clipPath><clipPath id="clip22"><rect x="1479" y="12772" width="1650" height="990"/></clipPath><clipPath id="clip23"><rect x="1479" y="12772" width="1650" height="990"/></clipPath><clipPath id="clip24"><rect x="1479" y="12772" width="1650" height="990"/></clipPath><clipPath id="clip25"><rect x="1479" y="12772" width="1650" height="990"/></clipPath><clipPath id="clip26"><rect x="1479" y="12772" width="1650" height="990"/></clipPath><clipPath id="clip27"><rect x="1479" y="12772" width="1650" height="990"/></clipPath><clipPath id="clip28"><rect x="1479" y="12772" width="1650" height="990"/></clipPath><clipPath id="clip29"><rect x="1479" y="12772" width="1650" height="990"/></clipPath><clipPath id="clip30"><rect x="1479" y="12772" width="1650" height="990"/></clipPath><clipPath id="clip31"><rect x="1479" y="12772" width="1650" height="990"/></clipPath><clipPath id="clip32"><rect x="1479" y="12772" width="1650" height="990"/></clipPath><clipPath id="clip33"><rect x="1479" y="12772" width="1650" height="990"/></clipPath><clipPath id="clip34"><rect x="1479" y="12772" width="1650" height="990"/></clipPath><clipPath id="clip35"><rect x="1479" y="12772" width="1650" height="990"/></clipPath><clipPath id="clip36"><rect x="1479" y="12772" width="1650" height="990"/></clipPath></defs><g clip-path="url(#clip0)" transform="translate(-1479 -12771)"><g clip-path="url(#clip1)"><path d="M1530.5 13375.9 3079.5 13375.9M1530.5 13289.9 3079.5 13289.9M1530.5 13202.9 3079.5 13202.9M1530.5 13115.9 3079.5 13115.9M1530.5 13028.9 3079.5 13028.9M1530.5 12942.5 3079.5 12942.5" stroke="#D9D9D9" stroke-width="3.4375" stroke-linejoin="round" stroke-miterlimit="10" fill="none"/></g><g clip-path="url(#clip2)"><path d="M1530.5 13463.5 3079.5 13463.5" stroke="#D9D9D9" stroke-width="3.4375" stroke-linejoin="round" stroke-miterlimit="10" fill="none" fill-rule="evenodd"/></g><g clip-path="url(#clip3)"><path d="M1534 13463 1541.05 13306.4 1548.05 13437.4 1556.05 13389.4 1563.05 13463 1570.05 13350.4 1577.05 13445.4 1585.05 13367.4 1592.05 13406.4 1599.05 13389.4 1607.05 13419.4 1614.05 13406.4 1621.05 13389.4 1628.05 13385.4 1636.05 13367.4 1643.05 13402.4 1650.05 13389.4 1657.05 13411.4 1665.05 13411.4 1672.05 13419.4 1679.06 13437.4 1687.06 13367.4 1694.06 13428.4 1701.06 13393.4 1708.06 13441.4 1716.06 13441.4 1723.06 13428.4 1730.06 13411.4 1737.06 13398.4 1745.06 13415.4 1752.06 13406.4 1759.06 13437.4 1767.06 13415.4 1774.06 13424.4 1781.06 13402.4 1788.06 13406.4 1796.06 13424.4 1803.06 13441.4 1810.06 13432.4 1817.06 13424.4 1825.06 13428.4 1832.06 13437.4 1839.06 13411.4 1847.06 13419.4 1854.06 13437.4 1861.06 13424.4 1868.06 13424.4 1876.06 13415.4 1883.06 13393.4 1890.06 13415.4 1897.06 13424.4 1905.06 13415.4 1912.06 13419.4 1919.06 13450.4 1927.06 13415.4 1934.06 13415.4 1941.06 13424.4 1948.06 13415.4 1956.06 13402.4 1963.06 13424.4 1970.06 13415.4 1977.06 13406.4 1985.07 13428.4 1992.07 13432.4 1999.07 13437.4 2007.07 13419.4 2014.07 13428.4 2021.07 13441.4 2028.07 13419.4 2036.07 13437.4 2043.07 13432.4 2050.07 13411.4 2057.07 13419.4 2065.07 13419.4 2072.07 13432.4 2079.07 13415.4 2087.07 13424.4 2094.07 13428.4 2101.07 13437.4 2108.07 13428.4 2116.07 13424.4 2123.07 13424.4 2130.07 13428.4 2137.07 13437.4 2145.07 13432.4 2152.07 13441.4 2159.07 13415.4 2167.07 13441.4 2174.07 13432.4 2181.07 13432.4 2188.07 13432.4 2196.07 13432.4 2203.07 13428.4 2210.07 13432.4 2217.07 13437.4 2225.07 13432.4 2232.07 13437.4 2239.07 13428.4 2247.07 13428.4 2254.07 13432.4 2261.07 13428.4 2268.07 13441.4 2276.07 13432.4 2283.07 13437.4 2290.08 13432.4 2297.08 13424.4 2305.08 13432.4 2312.08 13432.4 2319.08 13441.4 2327.08 13441.4 2334.08 13428.4 2341.08 13424.4 2348.08 13437.4 2356.08 13432.4 2363.08 13428.4 2370.08 13441.4 2377.08 13428.4 2385.08 13428.4 2392.08 13428.4 2399.08 13432.4 2407.08 13428.4 2414.08 13419.4 2421.08 13411.4 2428.08 13428.4 2436.08 13419.4 2443.08 13419.4 2450.08 13424.4 2457.08 13424.4 2465.08 13411.4 2472.08 13411.4 2479.08 13411.4 2487.08 13411.4 2494.08 13406.4 2501.08 13393.4 2508.08 13398.4 2516.08 13380.4 2523.08 13376.4 2530.08 13385.4 2537.08 13389.4 2545.08 13380.4 2552.08 13380.4 2559.08 13359.4 2567.08 13367.4 2574.08 13372.4 2581.08 13345.4 2588.08 13341.4 2596.08 13324.4 2603.09 13302.4 2610.09 13302.4 2618.09 13280.4 2625.09 13332.4 2632.09 13315.4 2639.09 13302.4 2647.09 13276.4 2654.09 13224.4 2661.09 13280.4 2668.09 13246.4 2676.09 13224.4 2683.09 13193.4 2690.09 13198.4 2698.09 13193.4 2705.09 13189.4 2712.09 13189.4 2719.09 13198.4 2727.09 13193.4 2734.09 13167.4 2741.09 13094.4 2748.09 13115.4 2756.09 13111.4 2763.09 13128.4 2770.09 13098.4 2778.09 13063.4 2785.09 13081.4 2792.09 13102.4 2799.09 13146.4 2807.09 13124.4 2814.09 13111.4 2821.09 13081.4 2828.09 13029 2836.09 13111.4 2843.09 13107.4 2850.09 13107.4 2858.09 13072.4 2865.09 13041.4 2872.09 13037.4 2879.09 13055.4 2887.09 13098.4 2894.09 13124.4 2901.1 13076.4 2908.1 13076.4 2916.1 13055.4 2923.1 13068.4 2930.1 13081.4 2938.1 13050.4 2945.1 13107.4 2952.1 13076.4 2959.1 13055.4 2967.1 13063.4 2974.1 13085.4 2981.1 13120.4 2988.1 13115.4 2996.1 13150.4 3003.1 13133.4 3010.1 13167.4 3018.1 13189.4 3025.1 13167.4 3032.1 13115.4 3039.1 13128.4 3047.1 13107.4 3054.1 13120.4 3061.1 13159.4 3068.1 13198.4 3076 13185.4" stroke="#ED7D31" stroke-width="10.3125" stroke-linecap="round" stroke-linejoin="round" stroke-miterlimit="10" fill="none"/></g><g clip-path="url(#clip4)"><path d="M1534 13463 1541.05 13463 1548.05 13463 1556.05 13463 1563.05 13463 1570.05 13463 1577.05 13463 1585.05 13463 1592.05 13463 1599.05 13463 1607.05 13463 1614.05 13463 1621.05 13463 1628.05 13463 1636.05 13463 1643.05 13463 1650.05 13463 1657.05 13463 1665.05 13463 1672.05 13463 1679.06 13463 1687.06 13463 1694.06 13463 1701.06 13463 1708.06 13463 1716.06 13463 1723.06 13463 1730.06 13463 1737.06 13463 1745.06 13463 1752.06 13463 1759.06 13463 1767.06 13463 1774.06 13463 1781.06 13463 1788.06 13463 1796.06 13463 1803.06 13463 1810.06 13463 1817.06 13463 1825.06 13463 1832.06 13463 1839.06 13463 1847.06 13463 1854.06 13463 1861.06 13463 1868.06 13463 1876.06 13463 1883.06 13463 1890.06 13463 1897.06 13463 1905.06 13463 1912.06 13463 1919.06 13463 1927.06 13463 1934.06 13463 1941.06 13463 1948.06 13463 1956.06 13185.4 1963.06 13463 1970.06 13463 1977.06 13463 1985.07 13463 1992.07 13463 1999.07 13463 2007.07 13463 2014.07 13463 2021.07 13463 2028.07 13463 2036.07 13463 2043.07 13463 2050.07 13463 2057.07 13463 2065.07 13267.4 2072.07 13463 2079.07 13463 2087.07 13463 2094.07 13463 2101.07 13463 2108.07 13463 2116.07 13463 2123.07 13463 2130.07 13463 2137.07 13463 2145.07 13463 2152.07 13463 2159.07 13463 2167.07 13463 2174.07 13463 2181.07 13463 2188.07 13463 2196.07 13463 2203.07 13463 2210.07 13463 2217.07 13463 2225.07 13463 2232.07 13463 2239.07 13463 2247.07 13463 2254.07 13463 2261.07 13463 2268.07 13463 2276.07 13463 2283.07 13463 2290.08 13463 2297.08 13463 2305.08 13367.4 2312.08 13463 2319.08 13463 2327.08 13463 2334.08 13463 2341.08 13463 2348.08 13463 2356.08 13463 2363.08 13463 2370.08 13463 2377.08 13463 2385.08 13463 2392.08 13463 2399.08 13463 2407.08 13463 2414.08 13463 2421.08 13463 2428.08 13463 2436.08 13463 2443.08 13463 2450.08 13463 2457.08 13380.4 2465.08 13463 2472.08 13463 2479.08 13463 2487.08 13463 2494.08 13463 2501.08 13463 2508.08 13463 2516.08 13463 2523.08 13463 2530.08 13463 2537.08 13463 2545.08 13463 2552.08 13463 2559.08 13463 2567.08 13463 2574.08 13463 2581.08 13463 2588.08 13463 2596.08 13463 2603.09 13463 2610.09 13463 2618.09 13463 2625.09 13463 2632.09 13463 2639.09 13463 2647.09 13328.4 2654.09 13463 2661.09 13463 2668.09 13402.4 2676.09 13463 2683.09 13402.4 2690.09 13398.4 2698.09 13337.4 2705.09 13463 2712.09 13463 2719.09 13463 2727.09 13398.4 2734.09 13402.4 2741.09 13402.4 2748.09 13463 2756.09 13406.4 2763.09 13146.4 2770.09 13406.4 2778.09 13345.4 2785.09 13402.4 2792.09 13163.4 2799.09 13228.4 2807.09 13406.4 2814.09 13228.4 2821.09 13463 2828.09 13289.4 2836.09 13402.4 2843.09 13406.4 2850.09 13280.4 2858.09 13293.4 2865.09 13285.4 2872.09 13246.4 2879.09 13406.4 2887.09 13237.4 2894.09 13237.4 2901.1 13354.4 2908.1 13107.4 2916.1 13193.4 2923.1 13141.4 2930.1 13311.4 2938.1 13146.4 2945.1 13233.4 2952.1 13141.4 2959.1 13280.4 2967.1 13276.4 2974.1 13220.4 2981.1 13224.4 2988.1 13029 2996.1 13263.4 3003.1 13363.4 3010.1 13211.4 3018.1 13315.4 3025.1 13189.4 3032.1 13415.4 3039.1 13359.4 3047.1 13259.4 3054.1 13202.4 3061.1 13306.4 3068.1 13202.4 3076 13185.4" stroke="#A5A5A5" stroke-width="10.3125" stroke-linecap="round" stroke-linejoin="round" stroke-miterlimit="10" fill="none"/></g><g clip-path="url(#clip5)"><text fill="#595959" font-family="Calibri,Calibri_MSFontService,sans-serif" font-weight="400" font-size="41" transform="matrix(6.12323e-17 -1 1 6.12323e-17 1547.72 13627)">2004-01</text></g><g clip-path="url(#clip6)"><text fill="#595959" font-family="Calibri,Calibri_MSFontService,sans-serif" font-weight="400" font-size="41" transform="matrix(6.12323e-17 -1 1 6.12323e-17 1605.91 13627)">2004-09</text></g><g clip-path="url(#clip7)"><text fill="#595959" font-family="Calibri,Calibri_MSFontService,sans-serif" font-weight="400" font-size="41" transform="matrix(6.12323e-17 -1 1 6.12323e-17 1664.09 13627)">2005-05</text></g><g clip-path="url(#clip8)"><text fill="#595959" font-family="Calibri,Calibri_MSFontService,sans-serif" font-weight="400" font-size="41" transform="matrix(6.12323e-17 -1 1 6.12323e-17 1722.28 13627)">2006-01</text></g><g clip-path="url(#clip9)"><text fill="#595959" font-family="Calibri,Calibri_MSFontService,sans-serif" font-weight="400" font-size="41" transform="matrix(6.12323e-17 -1 1 6.12323e-17 1780.46 13627)">2006-09</text></g><g clip-path="url(#clip10)"><text fill="#595959" font-family="Calibri,Calibri_MSFontService,sans-serif" font-weight="400" font-size="41" transform="matrix(6.12323e-17 -1 1 6.12323e-17 1838.65 13627)">2007-05</text></g><g clip-path="url(#clip11)"><text fill="#595959" font-family="Calibri,Calibri_MSFontService,sans-serif" font-weight="400" font-size="41" transform="matrix(6.12323e-17 -1 1 6.12323e-17 1896.83 13627)">2008-01</text></g><g clip-path="url(#clip12)"><text fill="#595959" font-family="Calibri,Calibri_MSFontService,sans-serif" font-weight="400" font-size="41" transform="matrix(6.12323e-17 -1 1 6.12323e-17 1955.02 13627)">2008-09</text></g><g clip-path="url(#clip13)"><text fill="#595959" font-family="Calibri,Calibri_MSFontService,sans-serif" font-weight="400" font-size="41" transform="matrix(6.12323e-17 -1 1 6.12323e-17 2013.2 13627)">2009-05</text></g><g clip-path="url(#clip14)"><text fill="#595959" font-family="Calibri,Calibri_MSFontService,sans-serif" font-weight="400" font-size="41" transform="matrix(6.12323e-17 -1 1 6.12323e-17 2071.38 13627)">2010-01</text></g><g clip-path="url(#clip15)"><text fill="#595959" font-family="Calibri,Calibri_MSFontService,sans-serif" font-weight="400" font-size="41" transform="matrix(6.12323e-17 -1 1 6.12323e-17 2129.57 13627)">2010-09</text></g><g clip-path="url(#clip16)"><text fill="#595959" font-family="Calibri,Calibri_MSFontService,sans-serif" font-weight="400" font-size="41" transform="matrix(6.12323e-17 -1 1 6.12323e-17 2187.75 13627)">2011-05</text></g><g clip-path="url(#clip17)"><text fill="#595959" font-family="Calibri,Calibri_MSFontService,sans-serif" font-weight="400" font-size="41" transform="matrix(6.12323e-17 -1 1 6.12323e-17 2245.94 13627)">2012-01</text></g><g clip-path="url(#clip18)"><text fill="#595959" font-family="Calibri,Calibri_MSFontService,sans-serif" font-weight="400" font-size="41" transform="matrix(6.12323e-17 -1 1 6.12323e-17 2304.12 13627)">2012-09</text></g><g clip-path="url(#clip19)"><text fill="#595959" font-family="Calibri,Calibri_MSFontService,sans-serif" font-weight="400" font-size="41" transform="matrix(6.12323e-17 -1 1 6.12323e-17 2362.31 13627)">2013-05</text></g><g clip-path="url(#clip20)"><text fill="#595959" font-family="Calibri,Calibri_MSFontService,sans-serif" font-weight="400" font-size="41" transform="matrix(6.12323e-17 -1 1 6.12323e-17 2420.49 13627)">2014-01</text></g><g clip-path="url(#clip21)"><text fill="#595959" font-family="Calibri,Calibri_MSFontService,sans-serif" font-weight="400" font-size="41" transform="matrix(6.12323e-17 -1 1 6.12323e-17 2478.68 13627)">2014-09</text></g><g clip-path="url(#clip22)"><text fill="#595959" font-family="Calibri,Calibri_MSFontService,sans-serif" font-weight="400" font-size="41" transform="matrix(6.12323e-17 -1 1 6.12323e-17 2536.86 13627)">2015-05</text></g><g clip-path="url(#clip23)"><text fill="#595959" font-family="Calibri,Calibri_MSFontService,sans-serif" font-weight="400" font-size="41" transform="matrix(6.12323e-17 -1 1 6.12323e-17 2595.05 13627)">2016-01</text></g><g clip-path="url(#clip24)"><text fill="#595959" font-family="Calibri,Calibri_MSFontService,sans-serif" font-weight="400" font-size="41" transform="matrix(6.12323e-17 -1 1 6.12323e-17 2653.23 13627)">2016-09</text></g><g clip-path="url(#clip25)"><text fill="#595959" font-family="Calibri,Calibri_MSFontService,sans-serif" font-weight="400" font-size="41" transform="matrix(6.12323e-17 -1 1 6.12323e-17 2711.42 13627)">2017-05</text></g><g clip-path="url(#clip26)"><text fill="#595959" font-family="Calibri,Calibri_MSFontService,sans-serif" font-weight="400" font-size="41" transform="matrix(6.12323e-17 -1 1 6.12323e-17 2769.6 13627)">2018-01</text></g><g clip-path="url(#clip27)"><text fill="#595959" font-family="Calibri,Calibri_MSFontService,sans-serif" font-weight="400" font-size="41" transform="matrix(6.12323e-17 -1 1 6.12323e-17 2827.79 13627)">2018-09</text></g><g clip-path="url(#clip28)"><text fill="#595959" font-family="Calibri,Calibri_MSFontService,sans-serif" font-weight="400" font-size="41" transform="matrix(6.12323e-17 -1 1 6.12323e-17 2885.97 13627)">2019-05</text></g><g clip-path="url(#clip29)"><text fill="#595959" font-family="Calibri,Calibri_MSFontService,sans-serif" font-weight="400" font-size="41" transform="matrix(6.12323e-17 -1 1 6.12323e-17 2944.15 13627)">2020-01</text></g><g clip-path="url(#clip30)"><text fill="#595959" font-family="Calibri,Calibri_MSFontService,sans-serif" font-weight="400" font-size="41" transform="matrix(6.12323e-17 -1 1 6.12323e-17 3002.34 13627)">2020-09</text></g><g clip-path="url(#clip31)"><text fill="#595959" font-family="Calibri,Calibri_MSFontService,sans-serif" font-weight="400" font-size="41" transform="matrix(6.12323e-17 -1 1 6.12323e-17 3060.52 13627)">2021-05</text></g><g clip-path="url(#clip32)"><text fill="#595959" font-family="Calibri,Calibri_MSFontService,sans-serif" font-weight="400" font-size="64" transform="matrix(1 0 0 1 2024 12867)">Google Search Trends</text></g><g clip-path="url(#clip33)"><path d="M1741 13696 1829 13696" stroke="#ED7D31" stroke-width="10.3125" stroke-linecap="round" stroke-linejoin="round" stroke-miterlimit="10" fill="none" fill-rule="evenodd"/></g><g clip-path="url(#clip34)"><text fill="#595959" font-family="Calibri,Calibri_MSFontService,sans-serif" font-weight="400" font-size="41" transform="matrix(1 0 0 1 1837.79 13707)">"Convolutional Neural Network"</text></g><g clip-path="url(#clip35)"><path d="M2465 13696 2553 13696" stroke="#A5A5A5" stroke-width="10.3125" stroke-linecap="round" stroke-linejoin="round" stroke-miterlimit="10" fill="none" fill-rule="evenodd"/></g><g clip-path="url(#clip36)"><text fill="#595959" font-family="Calibri,Calibri_MSFontService,sans-serif" font-weight="400" font-size="41" transform="matrix(1 0 0 1 2562.58 13707)">"Mel Spectrogram"</text></g><rect x="1480.5" y="12772.5" width="1650" height="990" stroke="#D9D9D9" stroke-width="3.4375" stroke-linejoin="round" stroke-miterlimit="10" fill="none"/></g></svg>